<?xml version="1.0" encoding="UTF-8" standalone="no"?>
<svg
   xmlns:dc="http://purl.org/dc/elements/1.1/"
   xmlns:cc="http://creativecommons.org/ns#"
   xmlns:rdf="http://www.w3.org/1999/02/22-rdf-syntax-ns#"
   xmlns:svg="http://www.w3.org/2000/svg"
   xmlns="http://www.w3.org/2000/svg"
   viewBox="0 0 1000 485"
   height="485"
   width="1000"
   xml:space="preserve"
   version="1.1"
   id="svg2"><metadata
     id="metadata8"><rdf:RDF><cc:Work
         rdf:about=""><dc:format>image/svg+xml</dc:format><dc:type
           rdf:resource="http://purl.org/dc/dcmitype/StillImage" /></cc:Work></rdf:RDF></metadata><defs
     id="defs6" /><g
     transform="scale(1.25,1.25)"
     id="g10"><g
       id="g12"><path
         id="path14"
         style="fill:none;stroke:#5e81b5;stroke-width:1.60000002;stroke-linecap:square;stroke-linejoin:miter;stroke-miterlimit:3.25;stroke-dasharray:none;stroke-opacity:1"
         d="m 45.008,163.383 1.359,-7.899 1.352,-1.328 1.34,4.61 1.332,-0.618 1.324,-0.918 1.316,-2.23 1.305,7.629 1.301,-2.356 1.289,-1.746 1.281,-21.828 1.273,13.696 1.266,6.16 1.262,-0.196 1.25,-0.218 1.242,-0.465 1.234,-1.18 1.231,1.891 1.219,-7.352 1.214,2.145 1.207,0.558 1.2,0.242 1.191,-1.183 1.188,-4.109 1.179,-1.825 1.172,1.047 1.164,0 1.156,0.188 1.153,3.3 1.148,-0.613 1.137,-0.113 1.133,-0.555 1.129,-1.492 1.121,1.336 1.113,1.551 1.109,-1.219 1.102,0 1.098,-0.484 1.09,0.218 1.085,-0.304 1.079,0.129 1.074,-0.153 1.066,-0.109 1.063,-0.258 1.058,0.719 1.051,0.355 1.047,-5.183 1.039,1.562 1.035,-0.183 1.031,-0.477 1.024,-1.238 5.051,-0.258 4.925,-4.297 4.813,-40.465 4.703,37.375 4.594,0.988 4.496,-1.035 4.398,-0.523 4.305,-1.875 4.219,-1.285 4.129,-0.789 4.05,-1.481 3.973,-0.844 3.895,-1.128 3.82,-1.54 3.754,-0.214 3.683,-0.082 3.622,-1.907 3.554,-1.511 3.496,-0.45 3.438,-1.195 3.383,-1.34 3.324,0.633 3.269,-1.883 3.223,-0.742 3.172,-0.664 3.121,-1.832 3.074,-2.891 3.031,-0.187 2.985,-1.192 2.941,-0.875 2.903,-2.402 2.859,-1.023 2.82,-0.289 2.785,-1.891 2.743,-0.957 2.711,0.457 2.671,1 2.641,-0.285 2.602,-0.426 2.574,-1.309 2.539,-1.078 2.512,0.336 2.476,-0.926 2.449,-1.023 2.422,0.395 2.391,-1.977 2.363,0.32 2.34,-1.558 2.309,0.05 2.285,-20.374 2.262,17.679 2.234,-1.91 2.211,-1.75 2.187,0.855 2.164,-1.957 2.141,-2.085 2.117,0.871 2.098,1.925 2.078,-0.668 2.055,-0.82 2.035,-2.402 2.015,0.105 1.997,-0.234" /><path
         id="path16"
         style="fill:none;stroke:#e19c24;stroke-width:1.60000002;stroke-linecap:square;stroke-linejoin:miter;stroke-miterlimit:3.25;stroke-dasharray:none;stroke-opacity:1"
         d="m 45.008,220.008 1.359,-26.324 1.352,8.082 1.34,18.043 1.332,-11.547 1.324,10.816 1.316,-0.535 1.305,-0.926 1.301,0.094 1.289,-10.926 1.281,9.918 1.273,-0.398 1.266,-0.594 1.262,-0.184 1.25,-9.339 1.242,8.39 1.234,-0.223 1.231,-12.906 1.219,12.051 1.214,-8.98 1.207,7.859 1.2,-1.512 1.191,-0.969 1.188,0.489 1.179,0.851 1.172,-2.754 1.164,-12.035 1.156,13.739 1.153,-3.153 1.148,2.387 1.137,-2.352 1.133,-1.683 1.129,2.144 1.121,0.176 1.113,-8.48 1.109,6.382 1.102,0.973 1.098,-7.582 1.09,-5.969 1.085,12.387 1.079,-0.297 1.074,-8.73 1.066,7.57 1.063,0.043 1.058,-5.149 1.051,-5.878 1.047,10.003 1.039,-0.734 1.035,-6.531 1.031,6.269 1.024,-1.492 5.051,-0.469 4.925,-7.476 4.813,-0.668 4.703,2.914 4.594,-1.906 4.496,-2.215 4.398,-10.277 4.305,-0.711 4.219,-4.606 4.129,-1.422 4.05,-1.148 3.973,0.836 3.895,-1.094 3.82,0.262 3.754,1.535 3.683,-1.68 3.622,-5.859 3.554,3.762 3.496,-2.016 3.438,0.129 3.383,-1.52 3.324,-1 3.269,-2.492 3.223,-4.457 3.172,1.09 3.121,-1.145 3.074,1.192 3.031,-1.473 2.985,-6.719 2.941,-1.488 2.903,3.371 2.859,-7.922 2.82,3.465 2.785,1.66 2.743,-3.129 2.711,0.098 2.671,-7.371 2.641,2.937 2.602,1.032 2.574,-2.375 2.539,-0.223 2.512,-3.336 2.476,1.508 2.449,-3.656 2.422,-6.141 2.391,5.176 2.363,-5.137 2.34,2.629 2.309,-4.035 2.285,-1.324 2.262,2.132 2.234,-2.847 2.211,-5.988 2.187,2.644 2.164,0.481 2.141,-1.168 2.117,-4.407 2.098,0.836 2.078,0.574 2.055,-1.062 2.035,-2.594 2.015,-4.312 1.997,-0.586 1.972,0.699 1.957,-1.77 1.942,-2.753 1.918,-0.973 1.902,-0.57 1.887,-1.024 1.867,-0.055 1.851,-1.246 1.832,-0.168 1.817,-1.363 1.805,-0.433 1.785,-0.942 1.769,-1.191 1.758,-1.035 1.738,-1.278 1.727,1.043 1.711,-2.828 1.699,-2.156 1.68,1.867 1.672,-1.906 1.656,-0.231 1.64,-1.136 1.629,-0.086 1.618,-1.985 1.605,0.879 1.59,-2.035 1.578,0.785 1.57,-2.59 1.555,1.028 1.543,-1.5 1.531,-2.098 1.52,-0.484 1.511,-0.594 1.497,-0.051 1.488,-0.066 1.476,-2.785 1.465,0.722 1.457,-1.32 1.446,-1.555 1.433,0.781 1.426,-0.32 1.414,-1.289 1.406,0.211 1.395,-0.695 1.387,-1.184 1.378,0.387 1.368,-1.539 1.359,-0.469 1.352,0.414 1.339,-0.867 1.332,-1.063 1.325,0.145 1.312,-0.524 1.309,-1.066 1.297,-9.723 1.293,9.614 1.281,-0.84 1.273,-1.238 1.266,0.058 1.258,-5.023 1.254,3.644 1.242,0.524 1.234,-1.957 1.231,-0.414 1.218,-0.852 1.215,-0.262 1.207,0.41 1.2,-1.804 1.191,-0.344 1.183,-0.664 1.18,-0.039 1.172,0.187 1.168,-1.8 1.156,0.281 1.153,-0.363 1.144,-0.231 1.141,-8.121 1.133,6.801 1.129,-4.465 1.117,4.793 1.117,-2.004 1.105,0.926 1.106,-1.723 1.094,1.203 1.093,-1.972 1.082,1.543 1.082,-2.219 1.071,1.445 1.07,-2.176 1.063,1.489 1.054,-1.957 1.051,-3.375 1.047,3.414 1.043,-1.223 1.035,1.188 1.031,-1.43 1.024,-1.629 2.035,1.441 2.015,-1.812 1.993,0.285 1.976,-1.863 1.957,-1.383 1.938,1.18 3.824,-1.086 3.754,-1.739" /><path
         id="path18"
         style="fill:none;stroke:#8fb032;stroke-width:1.60000002;stroke-linecap:square;stroke-linejoin:miter;stroke-miterlimit:3.25;stroke-dasharray:none;stroke-opacity:1"
         d="m 45.008,202.105 1.359,-0.867 1.352,1.516 1.34,1.226 1.332,-4.539 1.324,1.723 1.316,2.031 1.305,-3.343 1.301,0.593 1.289,1.2 1.281,-1.965 1.273,1.281 1.266,-2.426 1.262,0.852 1.25,1.703 1.242,-3.301 1.234,2.125 1.231,-2.91 1.219,1.894 1.214,-1.507 1.207,0.547 1.2,0.195 1.191,-1.059 1.188,1.453 1.179,-2.461 1.172,1.864 1.164,-1.383 1.156,0.945 1.153,-1.215 1.148,-0.285 1.137,0.11 1.133,-1.704 1.129,1.723 1.121,-1.601 1.113,1.609 1.109,-1.598 1.102,0.324 1.098,-1.101 1.09,0.094 1.085,1.285 1.079,-1.617 1.074,-1.352 1.066,1.957 1.063,-1.812 1.058,-0.239 1.051,1.137 1.047,-1.141 1.039,-0.882 1.035,2.015 1.031,-1.168 1.024,-1.074 5.051,0.949 4.925,-1.113 4.813,-1.641 4.703,-0.851 4.594,-1.258 4.496,-0.793 4.398,-0.855 4.305,-0.559 4.219,-0.656 4.129,-0.149 4.05,-0.738 3.973,-1.195 3.895,-1.383 3.82,0.097 3.754,-0.527 3.683,-1.055 3.622,0.11 3.554,-1.988 3.496,0.8 3.438,-1.98 3.383,0.922 3.324,-1.332 3.269,-1.336 3.223,0.797 3.172,-0.891 3.121,-1.07 3.074,-0.965 3.031,-0.758 2.985,-0.836 2.941,-0.207 2.903,-0.394 2.859,-0.629 2.82,-0.188 2.785,-0.523 2.743,-0.25 2.711,-0.645 2.671,-1.023 2.641,-0.137 2.602,-0.383 2.574,-0.707 2.539,-0.039 2.512,-1.016 2.476,0.106 2.449,-0.797 2.422,-0.933 2.391,0.628 2.363,-1.031 2.34,-0.769 2.309,0.343 2.285,-0.129 2.262,-0.761 2.234,-0.582 2.211,-0.535 2.187,-0.36 2.164,-0.25 2.141,-0.312 2.117,-0.11 2.098,-1.355 2.078,-0.574 2.055,0.086 2.035,0.257 2.015,-0.621 1.997,-0.972 1.972,-1.532 1.957,0.321 1.942,0.347 1.918,-0.101 1.902,-0.508 1.887,-0.734 1.867,0.175 1.851,-0.742 1.832,-0.801 1.817,0.778 1.805,-0.453 1.785,-0.286 1.769,-0.308 1.758,-0.004 1.738,-0.195 1.727,-0.551 1.711,-0.164 1.699,-0.406 1.68,-0.989 1.672,-0.562 1.656,1.472 1.64,-1.168 1.629,-0.621 1.618,1.071 1.605,-1.485 1.59,0.02 1.578,-0.434 1.57,0.992 1.555,-1.578 1.543,-0.316 1.531,-0.024 1.52,-0.5 1.511,-0.824 1.497,0.34 1.488,-0.254 1.476,0.176 1.465,-1.301 1.457,-0.117 1.446,-0.348 1.433,0.754 1.426,-0.722 1.414,0.019 1.406,-0.363 1.395,-1 1.387,0.918 1.378,-0.348 1.368,-2.59 1.359,1.852 1.352,-1.043 1.339,0.371 1.332,-1.02 1.325,0.481 1.312,-1.195 1.309,0.019 1.297,0.578 1.293,-0.687 1.281,-0.285 1.273,-0.227 1.266,-0.309 1.258,-2.476 1.254,2.75 1.242,-0.484 1.234,-0.086 1.231,-0.664 1.218,-0.008 1.215,0.269 1.207,-0.285 1.2,-0.594 1.191,-0.164 1.183,-0.73 1.18,0.398 1.172,-0.402 1.168,-0.109 1.156,-0.481 1.153,0.164 1.144,-0.777 1.141,0.328 1.133,-0.191 1.129,0.308 1.117,-3.191 1.117,1.613 1.105,0.441 1.106,-0.324 1.094,0.059 1.093,-0.438 1.082,0.09 1.082,-1.07 1.071,-0.035 1.07,-0.2 1.063,0.016 1.054,0.555 1.051,-0.77 1.047,-0.312 1.043,0.449 1.035,-0.719 1.031,1.27 1.024,-1.641 2.035,-0.086 2.015,-0.527 1.993,-0.274 1.976,-0.515 1.957,0.066 1.938,-0.172 1.922,-0.492 1.902,-0.625 1.887,-0.246 1.867,-0.656 1.847,-1.09 1.836,0.39 1.817,-0.828 1.805,-0.074 1.785,-0.562 1.769,0.445 1.754,-0.52 1.742,-0.148 1.727,-0.211 1.711,-0.367 1.695,-0.672 1.684,0.25 1.672,-0.582 1.652,0.082 1.644,-0.945 1.629,-0.235 1.618,0.094 1.605,0.129 1.59,-0.195 1.578,-0.403 1.566,-0.468 1.559,-0.965 1.543,-0.762 1.531,0.934 1.52,-1.067 1.508,-0.476 1.5,0.351 1.488,-0.398 1.476,0.093 1.465,-0.851 1.457,-0.234 1.446,0.046 1.433,-0.16 1.426,-0.343 1.414,-0.391 1.406,0.621 1.395,-1.043 1.387,0.551 1.378,-1.278 1.368,-0.16 1.359,-0.156 1.348,-0.277 1.343,-0.075 1.332,-0.226 1.325,-0.383 1.312,0.129 1.309,-0.762 1.297,0.121 1.289,-0.371 1.285,-0.558 1.273,0.676 1.266,-1.141 1.258,0.023 1.25,-0.164 1.246,-0.965 1.234,0.211 1.227,-0.464 1.222,0.644 1.215,-0.914 1.207,0.094 1.2,-0.504 1.191,0.769 1.183,-0.578 1.18,-0.086 1.172,-0.523 1.164,-0.094 1.16,-0.215 1.153,-0.316 1.144,-0.356 1.141,-1.105 1.133,0.652 1.125,-0.218 1.121,-0.083 1.117,-0.191 1.105,-0.148 1.106,-0.25 1.094,-0.114 1.089,-0.183 1.086,-0.239 1.078,-0.324 1.075,0.02 1.07,0.32 1.063,-1.387 1.054,0.063 1.051,-0.039 1.047,0.39 1.043,-0.605 1.035,-0.301 1.027,-0.012 1.028,-0.078" /><path
         id="path20"
         style="fill:none;stroke:#eb6235;stroke-width:1.60000002;stroke-linecap:square;stroke-linejoin:miter;stroke-miterlimit:3.25;stroke-dasharray:none;stroke-opacity:1"
         d="m 45.008,241.914 1.359,-8.73 1.352,8.718 1.34,-0.769 1.332,-13.117 1.324,3.242 1.316,9.629 1.305,-1.149 1.301,-10.281 1.289,10.055 1.281,-0.168 1.273,-11.063 1.266,10.25 1.262,-0.523 1.25,-10.043 1.242,9.949 1.234,-0.141 1.231,-8.976 1.219,8.398 1.214,-10.859 1.207,10.621 1.2,-0.25 1.191,-8.352 1.188,7.516 1.179,-9.246 1.172,8.953 1.164,-10.535 1.156,10.844 1.153,-10.91 1.148,10.312 1.137,-13.074 1.133,12.558 1.129,-12.972 1.121,12.801 1.113,-11.254 1.109,11.074 1.102,-10.82 1.098,9.656 1.09,-9.438 1.085,9.387 1.079,-9.656 1.074,-9.008 1.066,18.09 1.063,-10.477 1.058,9.656 1.051,-7.773 1.047,-8.531 1.039,16.375 1.035,-8.262 1.031,7.309 1.024,-0.11 5.051,-11.066 4.925,-5.156 4.813,13.117 4.703,-3.504 4.594,-6.094 4.496,-2.82 4.398,-7.852 4.305,1.535 4.219,-0.179 4.129,-0.098 4.05,-3.574 3.973,7.07 3.895,1.992 3.82,5.321 3.754,-11.832 3.683,-4.317 3.622,11.278 3.554,-9.407 3.496,-4.879 3.438,3.5 3.383,-1.48 3.324,0.645 3.269,-5.469 3.223,5.129 3.172,-1.242 3.121,-3.754 3.074,2.886 3.031,-1.316 2.985,0.281 2.941,-3.074 2.903,-1.918 2.859,0.832 2.82,-0.176 2.785,-1.039 2.743,1.18 2.711,2.863 2.671,-2.59 2.641,-0.019 2.602,0.043 2.574,-6.703 2.539,5.062 2.512,0.742 2.476,-7.968 2.449,6.847 2.422,-6.254 2.391,4.965 2.363,-10.402 2.34,10.101 2.309,-0.761 2.285,-4.246 2.262,4.562 2.234,-1.957 2.211,0.27 2.187,1.441 2.164,-5.965 2.141,0.481 2.117,-0.223 2.098,-0.356 2.078,-0.441 2.055,4.508 2.035,-3 2.015,-0.082 1.997,-1.313 1.972,-1.976 1.957,1.633 1.942,-1.293 1.918,-0.895 1.902,1.5 1.887,-1.711 1.867,1.692 1.851,-2.864 1.832,0.574 1.817,2.727 1.805,-4.074 1.785,1.012 1.769,0.953 1.758,1.199 1.738,-3.984 1.727,-0.618 1.711,1.297 1.699,-0.414 1.68,-0.93 1.672,-1.062 1.656,0.363 1.64,-0.683 1.629,1.289 1.618,-1.16 1.605,-0.415 1.59,0.356 1.578,-0.418 1.57,-0.035 1.555,2.492 1.543,-3.57 1.531,4.449 1.52,-5.012 1.511,0.028 1.497,-1.692 1.488,-0.41 1.476,1.582 1.465,-0.445 1.457,-2.727 1.446,1.703 1.433,0.047 1.426,-0.25 1.414,-0.012 1.406,-0.066 1.395,-0.168 1.387,-0.344 1.378,-0.058 1.368,-2.258 1.359,0.832 1.352,0.797 1.339,-0.875 1.332,-2.481 1.325,3.11 1.312,-0.996 1.309,2.945 1.297,-4.07 1.293,2.472 1.281,-2.465 1.273,-0.566 1.266,-2.02 1.258,2.5 1.254,-0.441 1.242,0.75 1.234,-1.672 1.231,-1.633 1.218,-0.972 1.215,-1.043 1.207,0.258 1.2,-0.192 1.191,0.633 1.183,0.551 1.18,3.445 1.172,-2.891 1.168,-0.839 1.156,-1.153 1.153,3.629 1.144,-2.707 1.141,-0.633" /><path
         id="path22"
         style="fill:none;stroke:#8778b3;stroke-width:1.60000002;stroke-linecap:square;stroke-linejoin:miter;stroke-miterlimit:3.25;stroke-dasharray:none;stroke-opacity:1"
         d="m 45.008,324.875 1.359,0.539 1.352,-0.539 1.34,-0.848 1.332,-0.879 1.324,-0.507 1.316,0.05 1.305,-0.648 1.301,1.828 1.289,-1.629 1.281,0.098 1.273,-0.246 1.266,0.547 1.262,-0.098 1.25,-0.895 1.242,-0.097 1.234,-0.293 1.231,-0.672 1.219,-10.836 1.214,10.363 1.207,0.141 1.2,-0.047 1.191,-0.609 1.188,-0.231 1.179,0.141 1.172,-0.871 1.164,-7.407 1.156,7.5 1.153,1.055 1.148,-1.461 1.137,-0.711 1.133,0.133 1.129,-1.086 1.121,1.617 1.113,-9.23 1.109,8.176 1.102,-0.477 1.098,-0.383 1.09,1.516 1.085,-11.504 1.079,9.191 1.074,1.614 1.066,-2.149 1.063,-0.648 1.058,0.855 1.051,-0.773 1.047,0.605 1.039,0.914 1.035,-2.238 1.031,-9.258 1.024,8.785 5.051,-0.5 4.925,0.075 4.813,0.039 4.703,-1.063 4.594,-0.148 4.496,-2.067 4.398,-1.519 4.305,-0.801 4.219,0.098 4.129,-0.821 4.05,0.922 3.973,-2.57 3.895,-0.309 3.82,-1.238 3.754,0.391 3.683,-0.242 3.622,-1.774 3.554,-0.508 3.496,0.114 3.438,-1.731 3.383,-0.16 3.324,-11.758 3.269,9.859 3.223,0.383 3.172,-13.742 3.121,11.172 3.074,0.625 3.031,-14.602 2.985,12.965 2.941,0.375 2.903,-1.492 2.859,-0.449 2.82,1.566 2.785,-3.386 2.743,0.406 2.711,-2.68 2.671,1.129 2.641,-0.203 2.602,-2.348 2.574,-9.937 2.539,10.418 2.512,-0.879 2.476,-1.098 2.449,-0.961 2.422,0.25 2.391,-1.304 2.363,-0.45 2.34,-8.777 2.309,9.836 2.285,-2.258 2.262,0.168 2.234,0.52 2.211,-1.75 2.187,-1.25 2.164,-0.754 2.141,0.273 2.117,-0.637 2.098,0.137 2.078,-0.691 2.055,-0.547 2.035,-18.438 2.015,17.93 1.997,-0.273 1.972,-0.711 1.957,-0.141 1.942,-0.98 1.918,-19.223 1.902,2.484 1.887,15.664 1.867,-0.105 1.851,-0.289 1.832,-16.617 1.817,15.953 1.805,-1.176 1.785,-12.285 1.769,-4.613 1.758,16.675 1.738,-0.48 1.727,0.48 1.711,-14.246 1.699,13.606 1.68,-0.696 1.672,-0.273 1.656,-11.633 1.64,-2.551 1.629,13.086 1.618,0.367 1.605,-9.828 1.59,8.766 1.578,-10.012 1.57,-3.48 1.555,12.219 1.543,-0.11 1.531,-13.922 1.52,13.481 1.511,-0.649 1.497,-0.273 1.488,0.316 1.476,-11.191 1.465,10.211 1.457,-0.324 1.446,-8.571 1.433,7.633 1.426,0.242 1.414,0.098 1.406,-0.664 1.395,-9.203 1.387,9.074 1.378,-0.426 1.368,-0.301 1.359,-0.476 1.352,-0.731 1.339,0.278 1.332,-0.25 1.325,-8.594 1.312,0.121 1.309,1.742 1.297,5.414 1.293,0.09 1.281,-18.469 1.273,17.723 1.266,-0.402 1.258,-0.141 1.254,-5.887 1.242,-5.472 1.234,10.273 1.231,-0.035 1.218,-0.746 1.215,-7.231 1.207,1.786 1.2,-4.911 1.191,0.407 1.183,-0.035 1.18,8.984 1.172,-0.25 1.168,-0.309 1.156,-7.441 1.153,7.133 1.144,-0.821 1.141,0.34 1.133,-0.379 1.129,-0.418 1.117,-9.644 1.117,-1.262 1.105,10.262 1.106,-0.348 1.094,-0.109 1.093,-0.371 1.082,0.144 1.082,0.16 1.071,-0.574 1.07,-8.726 1.063,-6.18 1.054,6.34 1.051,-0.738 1.047,-1.231 1.043,-1.48 1.035,-0.602 1.031,-5.758 1.024,8.672 2.035,-0.562 2.015,9.011 1.993,-12.492 1.976,2.289 1.957,7.492 1.938,0.078 1.922,-11.105 1.902,1.223 1.887,-6.825 1.867,14.891 1.847,-0.121 1.836,-17.23 1.817,8.886 1.805,-0.945 1.785,7.707 1.769,-13.578 1.754,13 1.742,-10.223 1.727,-2.242 1.711,11.141 1.695,-13.461 1.684,4.457 1.672,1.785 1.652,6.191 1.644,-15.023 1.629,14.187 1.618,0.821 1.605,-1.629 1.59,-8.653 1.578,-7.047 1.566,1 1.559,13.352 1.543,-9.398 1.531,8.765 1.52,-0.328 1.508,3.465 1.5,-11.461 1.488,7.336 1.476,-0.41 1.465,-0.215 1.457,2.109 1.446,-17.566 1.433,0.785 1.426,-3.957 1.414,11.496 1.406,5.235 1.395,0.007 1.387,-11.031 1.378,3.402 1.368,6.852 1.359,-6.996 1.348,-8.035 1.343,2.711 1.332,-2.672 1.325,0.004 1.312,13.5 1.309,-9.352 1.297,8.793 1.289,-16.504 1.285,10.196 1.273,-4.27 1.266,9.422 1.258,-15.918 1.25,15.746 1.246,1.102 1.234,-16.633 1.227,14.652 1.222,-5.719 1.215,-4.375 1.207,9.348 1.2,-9.582 1.191,4.656 1.183,-8.64 1.18,7.523 1.172,-4.187 1.164,8.847 1.16,-2.347 1.153,-6.926 1.144,-1.344 1.141,-4.547 1.133,7.188 1.125,-0.473 1.121,-6.977 1.117,0.688 1.105,4.117 1.106,-5 1.094,3.512 1.089,4.801 1.086,4.82 1.078,-0.406 1.075,-4.801 1.07,-13.34 1.063,5.484 1.054,3.809 1.051,-1.68 1.047,-0.64 1.043,6.691 1.035,-1.191 1.027,-4.508 1.028,4.894" /><path
         id="path24"
         style="fill:none;stroke:#c56e1a;stroke-width:1.60000002;stroke-linecap:square;stroke-linejoin:miter;stroke-miterlimit:3.25;stroke-dasharray:none;stroke-opacity:1"
         d="m 45.008,347.797 1.359,-3.785 1.352,8.441 1.34,-5.777 1.332,-2.664 1.324,-6.133 1.316,5.453 1.305,-5.742 1.301,1.019 1.289,5.063 1.281,0 1.273,-4.766 1.266,-0.883 1.262,-0.433 1.25,2.07 1.242,4.18 1.234,-5.082 1.231,3.094 1.219,1.988 1.214,-3.875 1.207,1.246 1.2,-4.332 1.191,1.879 1.188,-6 1.179,3.012 1.172,1.535 1.164,-2.211 1.156,-1.703 1.153,1.304 1.148,-2.187 1.137,4.515 1.133,-2.726 1.129,3.726 1.121,0.586 1.113,-5.218 1.109,0.386 1.102,-2.379 1.098,10.293 1.09,-4.101 1.085,-4.832 1.079,-2.078 1.074,0.84 1.066,0.121 1.063,-3.262 1.058,6.715 1.051,-39.438 1.047,35.383 1.039,0.481 1.035,0.863 1.031,-2.059 1.024,-1.496 5.051,1.496 4.925,-2.39 4.813,-0.657 4.703,0.879 4.594,-4.968 4.496,0.585 4.398,-1.257 4.305,-1.578 4.219,-2.036 4.129,0.786 4.05,1.984 3.973,-4.777 3.895,0.992 3.82,-3.66 3.754,0.996 3.683,-1.746 3.622,0.597 3.554,-5.316 3.496,11.996 3.438,-10.469 3.383,-1.527 3.324,0.39 3.269,-0.972 3.223,-32.235 3.172,28.926 3.121,0 3.074,-1.433 3.031,0.968 2.985,-0.289 2.941,-0.793 2.903,-2.859 2.859,1.43 2.82,-1.118 2.785,0.422 2.743,-0.785 2.711,2.688 2.671,-4.754 2.641,-0.242 2.602,-0.145 2.574,1.684 2.539,-2.969 2.512,-0.281 2.476,-1.809 2.449,0.398 2.422,6.055 2.391,-7.066 2.363,0.48 2.34,-0.871 2.309,-0.211 2.285,-1.711 2.262,1.328 2.234,11.766 2.211,-12.02 2.187,-3.785 2.164,1.039 2.141,-1.152 2.117,-1.148 2.098,1.527 2.078,-0.68 2.055,-0.847 2.035,-1.786 2.015,0.918 1.997,1.606 1.972,0.183 1.957,-3.019 1.942,0.176 1.918,-0.992 1.902,-1.032 1.887,-1.793 1.867,0.95 1.851,0.257 1.832,-1.519 1.817,1.519 1.805,-0.386 1.785,-0.883 1.769,-23.508 1.758,27.805 1.738,-5.25 1.727,-1.953 1.711,0.55 1.699,-0.23 1.68,-0.918 1.672,14.73 1.656,-14.73 1.64,-0.113 1.629,-0.59 1.618,-0.66 1.605,6.589 1.59,-7.05 1.578,-0.078 1.57,-0.165 1.555,6.583 1.543,-7.27 1.531,0.875 1.52,-1.164 1.511,0.898 1.497,-1 1.488,-0.621 1.476,5.653 1.465,-7.446 1.457,1.262 1.446,3.043 1.433,-4.133 1.426,0.024 1.414,-0.582 1.406,0.386 1.395,7.446 1.387,-7.786 1.378,-0.57 1.368,0.285 1.359,-0.144 1.352,-1.262 1.339,-0.094 1.332,3.086 1.325,-3.039 1.312,3.594 1.309,-4.41 1.297,4.308 1.293,-3.972 1.281,1.41 1.273,-2.238 1.266,-0.856 1.258,0.613 1.254,-1.699 1.242,-25.344 1.234,26.582 1.231,3.012 1.218,-4.082 1.215,0.383 1.207,21.32 1.2,-22.269 1.191,0.25 1.183,-0.125 1.18,-0.887 1.172,-0.141 1.168,-36.836 1.156,37.102 1.153,0.121 1.144,8.656 1.141,-9.644 1.133,0.601 1.129,0.989 1.117,-28.27 1.117,25.813 1.105,0.039 1.106,-0.621 1.094,9.464 1.093,-8.785 1.082,-0.851 1.082,-0.227 1.071,-0.566 1.07,6.769 1.063,-35.363 1.054,28.371 1.051,0.055 1.047,-0.754 1.043,-1.145 1.035,1 1.031,2.731 1.024,3.676 2.035,3.964 2.015,-31.941 1.993,-7.348 1.976,-8.441 1.957,-0.723 1.938,4.926 1.922,10.43 1.902,30.453 1.887,-3.461 1.867,-4.176 1.847,-4.199 1.836,-1.289 1.817,0.441 1.805,-0.582 1.785,-28.91 1.769,34.07 1.754,-7.16 1.742,0.821 1.727,-38.352 1.711,43.356 1.695,-6.555 1.684,0.015 1.672,6.055 1.652,-6.558 1.644,-35.543 1.629,35.503 1.618,-1.054 1.605,5.711 1.59,-5.586 1.578,6.785 1.566,-7.813 1.559,8.504 1.543,-8.906 1.531,5.883 1.52,-6.32 1.508,0.839 1.5,-26.085 1.488,24.281 1.476,4.551 1.465,-45.79 1.457,40.817 1.446,3.047 1.433,16.687 1.426,-20.187 1.414,-0.086 1.406,2.23 1.395,6.664 1.387,-46.222 1.378,35.988 1.368,-0.371 1.359,0.309 1.348,0.05 1.343,2.938 1.332,1.711 1.325,0.234 1.312,1.106 1.309,0.168 1.297,-0.649 1.289,-0.887 1.285,-1.449 1.273,-1.496 1.266,-3.211 1.258,-1.539 1.25,-0.625 1.246,0.227 1.234,-34.801 1.227,41.922 1.222,-3.028 1.215,-5.246 1.207,-0.285 1.2,19.117 1.191,-14.269 1.183,-5.715 1.18,-29.832 1.172,36.746 1.164,-7.422 1.16,-22.512 1.153,26.645 1.144,-4.988 1.141,8.328 1.133,-8.75 1.125,9.914 1.121,-9.887 1.117,10.25 1.105,-10.93 1.106,9.243 1.094,-9.473 1.089,4.527 1.086,-37.004 1.078,32.372 1.075,6.441 1.07,-7.797 1.063,1.375 1.054,7.309 1.051,-37.93 1.047,28.582 1.043,3.551 1.035,5.785 1.027,-29.781 1.028,19.636" /><path
         id="path26"
         style="fill:none;stroke:#ffffff;stroke-width:4;stroke-linecap:butt;stroke-linejoin:round;stroke-miterlimit:3.25;stroke-dasharray:none;stroke-opacity:1"
         d="m 297.27,86.047 0.269,-0.035 0.797,-0.102 1.293,-0.168 1.762,-0.23 2.199,-0.285 2.609,-0.34 2.992,-0.387 3.348,-0.438 3.668,-0.476 3.965,-0.512 4.234,-0.551 4.473,-0.582 4.68,-0.609 4.863,-0.629 5.016,-0.652 5.14,-0.668 5.234,-0.68 5.301,-0.687 5.34,-0.696 5.348,-0.695 5.332,-0.691 5.281,-0.688 5.207,-0.676 5.102,-0.66 4.968,-0.648 4.805,-0.621 4.613,-0.602 4.395,-0.57 4.148,-0.539 3.879,-0.504 3.614,-0.469 3.375,-0.437 3.14,-0.411 2.93,-0.379 2.73,-0.355 2.555,-0.332 2.383,-0.309 2.238,-0.289 2.102,-0.273 1.984,-0.258 1.883,-0.246 1.797,-0.234 1.726,-0.223 1.672,-0.219 1.637,-0.211 1.609,-0.211 1.61,-0.207 1.613,-0.211 1.641,-0.211 1.683,-0.218 1.738,-0.227 1.813,-0.234 1.902,-0.25 2.008,-0.258 2.129,-0.277 2.266,-0.297 2.414,-0.313 2.586,-0.336 2.765,-0.359 2.938,-0.383 3.097,-0.402 3.246,-0.418 3.379,-0.442 3.5,-0.453 3.61,-0.469 3.707,-0.48 3.789,-0.492 3.863,-0.5 3.922,-0.508 3.969,-0.512 4.004,-0.519 4.027,-0.52 4.031,-0.523 4.032,-0.52 4.015,-0.515 3.988,-0.516 3.946,-0.508 3.894,-0.5 3.824,-0.492 3.75,-0.48 3.657,-0.469 3.554,-0.453 3.438,-0.438 3.308,-0.422 3.168,-0.402 3.016,-0.383 2.852,-0.359 2.672,-0.336 2.5,-0.313 2.335,-0.289 2.176,-0.269 2.024,-0.246 1.871,-0.231 1.734,-0.207 1.598,-0.191 1.472,-0.176 1.348,-0.156 1.231,-0.141 1.125,-0.129 1.015,-0.113 0.922,-0.098 0.832,-0.086 0.746,-0.074 0.668,-0.066 0.598,-0.055 0.527,-0.047 0.469,-0.035 0.418,-0.031 0.371,-0.024 0.328,-0.015 0.293,-0.016 0.266,-0.008 0.246,-0.004 0.226,-0.004 5.016,0" /><path
         id="path28"
         style="fill:none;stroke:#aaaaaa;stroke-width:0.5;stroke-linecap:square;stroke-linejoin:miter;stroke-miterlimit:3.25;stroke-dasharray:none;stroke-opacity:1"
         d="m 297.27,86.047 0.269,-0.035 0.797,-0.102 1.293,-0.168 1.762,-0.23 2.199,-0.285 2.609,-0.34 2.992,-0.387 3.348,-0.438 3.668,-0.476 3.965,-0.512 4.234,-0.551 4.473,-0.582 4.68,-0.609 4.863,-0.629 5.016,-0.652 5.14,-0.668 5.234,-0.68 5.301,-0.687 5.34,-0.696 5.348,-0.695 5.332,-0.691 5.281,-0.688 5.207,-0.676 5.102,-0.66 4.968,-0.648 4.805,-0.621 4.613,-0.602 4.395,-0.57 4.148,-0.539 3.879,-0.504 3.614,-0.469 3.375,-0.437 3.14,-0.411 2.93,-0.379 2.73,-0.355 2.555,-0.332 2.383,-0.309 2.238,-0.289 2.102,-0.273 1.984,-0.258 1.883,-0.246 1.797,-0.234 1.726,-0.223 1.672,-0.219 1.637,-0.211 1.609,-0.211 1.61,-0.207 1.613,-0.211 1.641,-0.211 1.683,-0.218 1.738,-0.227 1.813,-0.234 1.902,-0.25 2.008,-0.258 2.129,-0.277 2.266,-0.297 2.414,-0.313 2.586,-0.336 2.765,-0.359 2.938,-0.383 3.097,-0.402 3.246,-0.418 3.379,-0.442 3.5,-0.453 3.61,-0.469 3.707,-0.48 3.789,-0.492 3.863,-0.5 3.922,-0.508 3.969,-0.512 4.004,-0.519 4.027,-0.52 4.031,-0.523 4.032,-0.52 4.015,-0.515 3.988,-0.516 3.946,-0.508 3.894,-0.5 3.824,-0.492 3.75,-0.48 3.657,-0.469 3.554,-0.453 3.438,-0.438 3.308,-0.422 3.168,-0.402 3.016,-0.383 2.852,-0.359 2.672,-0.336 2.5,-0.313 2.335,-0.289 2.176,-0.269 2.024,-0.246 1.871,-0.231 1.734,-0.207 1.598,-0.191 1.472,-0.176 1.348,-0.156 1.231,-0.141 1.125,-0.129 1.015,-0.113 0.922,-0.098 0.832,-0.086 0.746,-0.074 0.668,-0.066 0.598,-0.055 0.527,-0.047 0.469,-0.035 0.418,-0.031 0.371,-0.024 0.328,-0.015 0.293,-0.016 0.266,-0.008 0.246,-0.004 0.226,-0.004 5.016,0" /><path
         id="path30"
         style="fill:#ffffff;fill-opacity:0.66666697;fill-rule:nonzero;stroke:none"
         d="m 617.625,37.734 106,0 0,16 -106,0 0,-16 z" /><text
         id="text32"
         style="font-variant:normal;font-size:9px;font-family:CairoFont-0;-inkscape-font-specification:CairoFont-0-1;writing-mode:lr-tb;fill:#5e81b5;fill-opacity:1;fill-rule:nonzero;stroke:none"
         transform="translate(619.62581,48.851791)"><tspan
           id="tspan34"
           y="0"
           x="0">■</tspan></text>
<text
         id="text36"
         style="font-variant:normal;font-size:9px;font-family:CairoFont-1;-inkscape-font-specification:CairoFont-1-0;writing-mode:lr-tb;fill:#000000;fill-opacity:1;fill-rule:nonzero;stroke:none"
         transform="translate(627.52816,48.851791)"><tspan
           id="tspan38"
           y="0"
           x="0 5.994 10.998 13.995 18.495001 20.493 25.497 30.500999 36.494999 38.493 43.497002 48.500999 53.505001 56.501999 61.506001 63.999001 69.002998">ParsingElaborated</tspan></text>
<path
         id="path40"
         style="fill:none;stroke:#ffffff;stroke-width:4;stroke-linecap:butt;stroke-linejoin:round;stroke-miterlimit:3.25;stroke-dasharray:none;stroke-opacity:1"
         d="m 452.465,45.734 0.258,0.067 0.746,0.195 1.199,0.313 1.617,0.418 1.988,0.519 2.332,0.606 2.633,0.683 2.899,0.75 3.121,0.813 3.312,0.859 3.461,0.898 3.574,0.93 3.653,0.949 3.687,0.957 3.688,0.961 3.648,0.946 3.574,0.929 3.465,0.899 3.309,0.863 3.125,0.809 2.894,0.754 2.645,0.687 2.398,0.621 2.176,0.567 1.977,0.515 1.797,0.465 1.636,0.426 1.5,0.39 1.383,0.356 1.285,0.336 1.207,0.312 1.157,0.301 1.121,0.293 1.109,0.289 1.117,0.289 1.149,0.297 1.195,0.313 1.27,0.328 1.359,0.355 1.476,0.383 1.606,0.418 1.766,0.457 1.929,0.5 2.094,0.547 2.234,0.578 2.364,0.613 2.472,0.641 2.571,0.668 2.648,0.683 2.707,0.7 2.758,0.711 2.785,0.718 2.801,0.719 2.797,0.719 2.781,0.711 2.742,0.699 2.692,0.684 2.625,0.668 2.543,0.64 2.441,0.613 2.328,0.579 2.195,0.543 2.043,0.504 1.887,0.457 1.731,0.414 1.578,0.371 1.441,0.336 1.309,0.296 1.183,0.262 1.067,0.227 0.961,0.199 0.859,0.168 0.769,0.144 0.688,0.122 0.609,0.097 0.543,0.078 0.481,0.063 0.433,0.047 0.391,0.031 0.355,0.023 0.325,0.012 0.312,0.008 0.297,0.004 4.879,0" /><path
         id="path42"
         style="fill:none;stroke:#aaaaaa;stroke-width:0.5;stroke-linecap:square;stroke-linejoin:miter;stroke-miterlimit:3.25;stroke-dasharray:none;stroke-opacity:1"
         d="m 452.465,45.734 0.258,0.067 0.746,0.195 1.199,0.313 1.617,0.418 1.988,0.519 2.332,0.606 2.633,0.683 2.899,0.75 3.121,0.813 3.312,0.859 3.461,0.898 3.574,0.93 3.653,0.949 3.687,0.957 3.688,0.961 3.648,0.946 3.574,0.929 3.465,0.899 3.309,0.863 3.125,0.809 2.894,0.754 2.645,0.687 2.398,0.621 2.176,0.567 1.977,0.515 1.797,0.465 1.636,0.426 1.5,0.39 1.383,0.356 1.285,0.336 1.207,0.312 1.157,0.301 1.121,0.293 1.109,0.289 1.117,0.289 1.149,0.297 1.195,0.313 1.27,0.328 1.359,0.355 1.476,0.383 1.606,0.418 1.766,0.457 1.929,0.5 2.094,0.547 2.234,0.578 2.364,0.613 2.472,0.641 2.571,0.668 2.648,0.683 2.707,0.7 2.758,0.711 2.785,0.718 2.801,0.719 2.797,0.719 2.781,0.711 2.742,0.699 2.692,0.684 2.625,0.668 2.543,0.64 2.441,0.613 2.328,0.579 2.195,0.543 2.043,0.504 1.887,0.457 1.731,0.414 1.578,0.371 1.441,0.336 1.309,0.296 1.183,0.262 1.067,0.227 0.961,0.199 0.859,0.168 0.769,0.144 0.688,0.122 0.609,0.097 0.543,0.078 0.481,0.063 0.433,0.047 0.391,0.031 0.355,0.023 0.325,0.012 0.312,0.008 0.297,0.004 4.879,0" /><path
         id="path44"
         style="fill:#ffffff;fill-opacity:0.66666697;fill-rule:nonzero;stroke:none"
         d="m 617.625,78.047 156,0 0,16 -156,0 0,-16 z" /><text
         id="text46"
         style="font-variant:normal;font-size:9px;font-family:CairoFont-0;-inkscape-font-specification:CairoFont-0-1;writing-mode:lr-tb;fill:#e19c24;fill-opacity:1;fill-rule:nonzero;stroke:none"
         transform="translate(619.62581,89.163716)"><tspan
           id="tspan48"
           y="0"
           x="0">■</tspan></text>
<text
         id="text50"
         style="font-variant:normal;font-size:9px;font-family:CairoFont-1;-inkscape-font-specification:CairoFont-1-0;writing-mode:lr-tb;fill:#000000;fill-opacity:1;fill-rule:nonzero;stroke:none"
         transform="translate(627.52816,89.163716)"><tspan
           id="tspan52"
           y="0"
           x="0 5.994 10.998 13.995 18.999001 26.496 31.5 33.993 36.990002 38.987999 43.487999 45.486 47.979">Parametricity</tspan></text>
<text
         id="text54"
         style="font-variant:normal;font-size:9px;font-family:CairoFont-2;-inkscape-font-specification:CairoFont-2-0;writing-mode:lr-tb;fill:#000000;fill-opacity:1;fill-rule:nonzero;stroke:none"
         transform="translate(682.50916,89.163716)"><tspan
           id="tspan56"
           y="0"
           x="0">(</tspan></text>
<text
         id="text58"
         style="font-variant:normal;font-size:9px;font-family:CairoFont-1;-inkscape-font-specification:CairoFont-1-0;writing-mode:lr-tb;fill:#000000;fill-opacity:1;fill-rule:nonzero;stroke:none"
         transform="translate(685.50616,89.163716)"><tspan
           id="tspan60"
           y="0"
           x="0 2.997 8.0010004 13.005 18.009001 22.509001 27.513 35.019001 37.512001 42.515999 45.513">reducedterm</tspan></text>
<text
         id="text62"
         style="font-variant:normal;font-size:9px;font-family:CairoFont-2;-inkscape-font-specification:CairoFont-2-0;writing-mode:lr-tb;fill:#000000;fill-opacity:1;fill-rule:nonzero;stroke:none"
         transform="translate(738.51616,89.163716)"><tspan
           id="tspan64"
           y="0"
           x="0">)</tspan></text>
<path
         id="path66"
         style="fill:none;stroke:#ffffff;stroke-width:4;stroke-linecap:butt;stroke-linejoin:round;stroke-miterlimit:3.25;stroke-dasharray:none;stroke-opacity:1"
         d="m 574.723,106.777 11.793,0 1.285,0.004 29.824,0" /><path
         id="path68"
         style="fill:none;stroke:#aaaaaa;stroke-width:0.5;stroke-linecap:square;stroke-linejoin:miter;stroke-miterlimit:3.25;stroke-dasharray:none;stroke-opacity:1"
         d="m 574.723,106.777 11.793,0 1.285,0.004 29.824,0" /><path
         id="path70"
         style="fill:#ffffff;fill-opacity:0.66666697;fill-rule:nonzero;stroke:none"
         d="m 617.625,99.781 89,0 0,14 -89,0 0,-14 z" /><text
         id="text72"
         style="font-variant:normal;font-size:9px;font-family:CairoFont-0;-inkscape-font-specification:CairoFont-0-1;writing-mode:lr-tb;fill:#8fb032;fill-opacity:1;fill-rule:nonzero;stroke:none"
         transform="translate(619.62581,109.89723)"><tspan
           id="tspan74"
           y="0"
           x="0">■</tspan></text>
<text
         id="text76"
         style="font-variant:normal;font-size:9px;font-family:CairoFont-1;-inkscape-font-specification:CairoFont-1-0;writing-mode:lr-tb;fill:#000000;fill-opacity:1;fill-rule:nonzero;stroke:none"
         transform="translate(627.52816,109.89723)"><tspan
           id="tspan78"
           y="0"
           x="0 5.0040002 7.4970002 12.501 17.000999 22.004999 27.009001 32.013 38.511002 43.514999 48.519001 53.019001 58.022999">Ltac2LowLevel</tspan></text>
<path
         id="path80"
         style="fill:none;stroke:#ffffff;stroke-width:4;stroke-linecap:butt;stroke-linejoin:round;stroke-miterlimit:3.25;stroke-dasharray:none;stroke-opacity:1"
         d="m 411.426,164.57 206.199,0" /><path
         id="path82"
         style="fill:none;stroke:#aaaaaa;stroke-width:0.5;stroke-linecap:square;stroke-linejoin:miter;stroke-miterlimit:3.25;stroke-dasharray:none;stroke-opacity:1"
         d="m 411.426,164.57 206.199,0" /><path
         id="path84"
         style="fill:#ffffff;fill-opacity:0.66666697;fill-rule:nonzero;stroke:none"
         d="m 617.625,156.57 81,0 0,16 -81,0 0,-16 z" /><text
         id="text86"
         style="font-variant:normal;font-size:9px;font-family:CairoFont-0;-inkscape-font-specification:CairoFont-0-1;writing-mode:lr-tb;fill:#eb6235;fill-opacity:1;fill-rule:nonzero;stroke:none"
         transform="translate(619.62581,167.68676)"><tspan
           id="tspan88"
           y="0"
           x="0">■</tspan></text>
<text
         id="text90"
         style="font-variant:normal;font-size:9px;font-family:CairoFont-1;-inkscape-font-specification:CairoFont-1-0;writing-mode:lr-tb;fill:#000000;fill-opacity:1;fill-rule:nonzero;stroke:none"
         transform="translate(627.52816,167.68676)"><tspan
           id="tspan92"
           y="0"
           x="0 5.4899998 10.494 17.990999 22.995001 24.993 29.997 32.490002 37.493999 43.992001 48.995998">TemplateCoq</tspan></text>
<path
         id="path94"
         style="fill:none;stroke:#ffffff;stroke-width:4;stroke-linecap:butt;stroke-linejoin:round;stroke-miterlimit:3.25;stroke-dasharray:none;stroke-opacity:1"
         d="m 574.723,218.941 5.125,0 1.718,-0.003 6.235,0 1.035,-0.004 7.394,0 1.254,-0.004 8.004,0 1.102,-0.004 11.035,0" /><path
         id="path96"
         style="fill:none;stroke:#aaaaaa;stroke-width:0.5;stroke-linecap:square;stroke-linejoin:miter;stroke-miterlimit:3.25;stroke-dasharray:none;stroke-opacity:1"
         d="m 574.723,218.941 5.125,0 1.718,-0.003 6.235,0 1.035,-0.004 7.394,0 1.254,-0.004 8.004,0 1.102,-0.004 11.035,0" /><path
         id="path98"
         style="fill:#ffffff;fill-opacity:0.66666697;fill-rule:nonzero;stroke:none"
         d="m 617.625,210.926 168,0 0,16 -168,0 0,-16 z" /><text
         id="text100"
         style="font-variant:normal;font-size:9px;font-family:CairoFont-0;-inkscape-font-specification:CairoFont-0-1;writing-mode:lr-tb;fill:#8778b3;fill-opacity:1;fill-rule:nonzero;stroke:none"
         transform="translate(619.62581,222.04384)"><tspan
           id="tspan102"
           y="0"
           x="0">■</tspan></text>
<text
         id="text104"
         style="font-variant:normal;font-size:9px;font-family:CairoFont-1;-inkscape-font-specification:CairoFont-1-0;writing-mode:lr-tb;fill:#000000;fill-opacity:1;fill-rule:nonzero;stroke:none"
         transform="translate(627.52816,222.04384)"><tspan
           id="tspan106"
           y="0"
           x="0 5.994 10.998 13.995 18.999001 26.496 31.5 33.993 36.990002 38.987999 43.487999 45.486 47.979">Parametricity</tspan></text>
<text
         id="text108"
         style="font-variant:normal;font-size:9px;font-family:CairoFont-2;-inkscape-font-specification:CairoFont-2-0;writing-mode:lr-tb;fill:#000000;fill-opacity:1;fill-rule:nonzero;stroke:none"
         transform="translate(682.50916,222.04384)"><tspan
           id="tspan110"
           y="0"
           x="0">(</tspan></text>
<text
         id="text112"
         style="font-variant:normal;font-size:9px;font-family:CairoFont-1;-inkscape-font-specification:CairoFont-1-0;writing-mode:lr-tb;fill:#000000;fill-opacity:1;fill-rule:nonzero;stroke:none"
         transform="translate(685.50616,222.04384)"><tspan
           id="tspan114"
           y="0"
           x="0 5.0040002 10.008 13.005 18.009001 23.013 28.017 32.516998 37.521 45.035999 47.528999 52.533001 55.529999">unreducedterm</tspan></text>
<text
         id="text116"
         style="font-variant:normal;font-size:9px;font-family:CairoFont-2;-inkscape-font-specification:CairoFont-2-0;writing-mode:lr-tb;fill:#000000;fill-opacity:1;fill-rule:nonzero;stroke:none"
         transform="translate(748.53316,222.04384)"><tspan
           id="tspan118"
           y="0"
           x="0">)</tspan></text>
<path
         id="path120"
         style="fill:none;stroke:#ffffff;stroke-width:4;stroke-linecap:butt;stroke-linejoin:round;stroke-miterlimit:3.25;stroke-dasharray:none;stroke-opacity:1"
         d="m 574.723,235.859 2.113,0 1.402,0.004 8.278,0 1.285,0.004 6.293,0 0.996,0.004 7.863,0 1.313,0.004 13.359,0" /><path
         id="path122"
         style="fill:none;stroke:#aaaaaa;stroke-width:0.5;stroke-linecap:square;stroke-linejoin:miter;stroke-miterlimit:3.25;stroke-dasharray:none;stroke-opacity:1"
         d="m 574.723,235.859 2.113,0 1.402,0.004 8.278,0 1.285,0.004 6.293,0 0.996,0.004 7.863,0 1.313,0.004 13.359,0" /><path
         id="path124"
         style="fill:#ffffff;fill-opacity:0.66666697;fill-rule:nonzero;stroke:none"
         d="m 617.625,228.875 50,0 0,14 -50,0 0,-14 z" /><text
         id="text126"
         style="font-variant:normal;font-size:9px;font-family:CairoFont-0;-inkscape-font-specification:CairoFont-0-1;writing-mode:lr-tb;fill:#c56e1a;fill-opacity:1;fill-rule:nonzero;stroke:none"
         transform="translate(619.62581,238.99227)"><tspan
           id="tspan128"
           y="0"
           x="0">■</tspan></text>
<text
         id="text130"
         style="font-variant:normal;font-size:9px;font-family:CairoFont-1;-inkscape-font-specification:CairoFont-1-0;writing-mode:lr-tb;fill:#000000;fill-opacity:1;fill-rule:nonzero;stroke:none"
         transform="translate(627.52816,238.99227)"><tspan
           id="tspan132"
           y="0"
           x="0 6.993 13.491 18.495001 25.992001">OCaml</tspan></text>
<path
         id="path134"
         style="fill:none;stroke:#000000;stroke-width:0.1;stroke-linecap:butt;stroke-linejoin:miter;stroke-miterlimit:3.25;stroke-dasharray:none;stroke-opacity:1"
         d="m 103.84,374.715 0,-5.633" /><text
         id="text136"
         style="font-variant:normal;font-size:9px;font-family:CairoFont-1;-inkscape-font-specification:CairoFont-1-0;writing-mode:lr-tb;fill:#000000;fill-opacity:1;fill-rule:nonzero;stroke:none"
         transform="translate(93.828858,385.85387)"><tspan
           id="tspan138"
           y="0"
           x="0 5.0040002 10.008 15.012">2000</tspan></text>
<path
         id="path140"
         style="fill:none;stroke:#000000;stroke-width:0.1;stroke-linecap:butt;stroke-linejoin:miter;stroke-miterlimit:3.25;stroke-dasharray:none;stroke-opacity:1"
         d="m 291.223,374.715 0,-5.633" /><text
         id="text142"
         style="font-variant:normal;font-size:9px;font-family:CairoFont-1;-inkscape-font-specification:CairoFont-1-0;writing-mode:lr-tb;fill:#000000;fill-opacity:1;fill-rule:nonzero;stroke:none"
         transform="translate(281.21131,385.85387)"><tspan
           id="tspan144"
           y="0"
           x="0 5.0040002 10.008 15.012">5000</tspan></text>
<path
         id="path146"
         style="fill:none;stroke:#000000;stroke-width:0.1;stroke-linecap:butt;stroke-linejoin:miter;stroke-miterlimit:3.25;stroke-dasharray:none;stroke-opacity:1"
         d="m 432.973,374.715 0,-5.633" /><text
         id="text148"
         style="font-variant:normal;font-size:9px;font-family:CairoFont-1;-inkscape-font-specification:CairoFont-1-0;writing-mode:lr-tb;fill:#000000;fill-opacity:1;fill-rule:nonzero;stroke:none"
         transform="translate(419.8088,385.85387)"><tspan
           id="tspan150"
           y="0"
           x="0">1</tspan></text>
<text
         id="text152"
         style="font-variant:normal;font-size:9px;font-family:CairoFont-2;-inkscape-font-specification:CairoFont-2-0;writing-mode:lr-tb;fill:#000000;fill-opacity:1;fill-rule:nonzero;stroke:none"
         transform="translate(425.81181,385.85387)"><tspan
           id="tspan154"
           y="0"
           x="0">×</tspan></text>
<text
         id="text156"
         style="font-variant:normal;font-size:9px;font-family:CairoFont-1;-inkscape-font-specification:CairoFont-1-0;writing-mode:lr-tb;fill:#000000;fill-opacity:1;fill-rule:nonzero;stroke:none"
         transform="translate(432.05781,385.85387)"><tspan
           id="tspan158"
           y="0"
           x="0 5.0040002">10</tspan></text>
<text
         id="text160"
         style="font-variant:normal;font-size:6.38964796px;font-family:CairoFont-1;-inkscape-font-specification:CairoFont-1-0;writing-mode:lr-tb;fill:#000000;fill-opacity:1;fill-rule:nonzero;stroke:none"
         transform="translate(442.08224,382.48376)"><tspan
           id="tspan162"
           y="0"
           x="0">4</tspan></text>
<path
         id="path164"
         style="fill:none;stroke:#000000;stroke-width:0.1;stroke-linecap:butt;stroke-linejoin:miter;stroke-miterlimit:3.25;stroke-dasharray:none;stroke-opacity:1"
         d="m 574.723,374.715 0,-5.633" /><text
         id="text166"
         style="font-variant:normal;font-size:9px;font-family:CairoFont-1;-inkscape-font-specification:CairoFont-1-0;writing-mode:lr-tb;fill:#000000;fill-opacity:1;fill-rule:nonzero;stroke:none"
         transform="translate(561.55816,385.85387)"><tspan
           id="tspan168"
           y="0"
           x="0">2</tspan></text>
<text
         id="text170"
         style="font-variant:normal;font-size:9px;font-family:CairoFont-2;-inkscape-font-specification:CairoFont-2-0;writing-mode:lr-tb;fill:#000000;fill-opacity:1;fill-rule:nonzero;stroke:none"
         transform="translate(567.56116,385.85387)"><tspan
           id="tspan172"
           y="0"
           x="0">×</tspan></text>
<text
         id="text174"
         style="font-variant:normal;font-size:9px;font-family:CairoFont-1;-inkscape-font-specification:CairoFont-1-0;writing-mode:lr-tb;fill:#000000;fill-opacity:1;fill-rule:nonzero;stroke:none"
         transform="translate(573.80716,385.85387)"><tspan
           id="tspan176"
           y="0"
           x="0 5.0040002">10</tspan></text>
<text
         id="text178"
         style="font-variant:normal;font-size:6.38964796px;font-family:CairoFont-1;-inkscape-font-specification:CairoFont-1-0;writing-mode:lr-tb;fill:#000000;fill-opacity:1;fill-rule:nonzero;stroke:none"
         transform="translate(583.83159,382.48376)"><tspan
           id="tspan180"
           y="0"
           x="0">4</tspan></text>
<path
         id="path182"
         style="fill:none;stroke:#000000;stroke-width:0.1;stroke-linecap:butt;stroke-linejoin:miter;stroke-miterlimit:3.25;stroke-dasharray:none;stroke-opacity:1"
         d="m 45.008,374.715 0,-2.817" /><path
         id="path184"
         style="fill:none;stroke:#000000;stroke-width:0.1;stroke-linecap:butt;stroke-linejoin:miter;stroke-miterlimit:3.25;stroke-dasharray:none;stroke-opacity:1"
         d="m 186.758,374.715 0,-2.817" /><path
         id="path186"
         style="fill:none;stroke:#000000;stroke-width:0.1;stroke-linecap:butt;stroke-linejoin:miter;stroke-miterlimit:3.25;stroke-dasharray:none;stroke-opacity:1"
         d="m 245.59,374.715 0,-2.817" /><path
         id="path188"
         style="fill:none;stroke:#000000;stroke-width:0.1;stroke-linecap:butt;stroke-linejoin:miter;stroke-miterlimit:3.25;stroke-dasharray:none;stroke-opacity:1"
         d="m 328.508,374.715 0,-2.817" /><path
         id="path190"
         style="fill:none;stroke:#000000;stroke-width:0.1;stroke-linecap:butt;stroke-linejoin:miter;stroke-miterlimit:3.25;stroke-dasharray:none;stroke-opacity:1"
         d="m 360.031,374.715 0,-2.817" /><path
         id="path192"
         style="fill:none;stroke:#000000;stroke-width:0.1;stroke-linecap:butt;stroke-linejoin:miter;stroke-miterlimit:3.25;stroke-dasharray:none;stroke-opacity:1"
         d="m 387.34,374.715 0,-2.817" /><path
         id="path194"
         style="fill:none;stroke:#000000;stroke-width:0.1;stroke-linecap:butt;stroke-linejoin:miter;stroke-miterlimit:3.25;stroke-dasharray:none;stroke-opacity:1"
         d="m 411.426,374.715 0,-2.817" /><path
         id="path196"
         style="fill:none;stroke:#000000;stroke-width:0.1;stroke-linecap:butt;stroke-linejoin:miter;stroke-miterlimit:3.25;stroke-dasharray:none;stroke-opacity:1"
         d="m 515.891,374.715 0,-2.817" /><path
         id="path198"
         style="fill:none;stroke:#000000;stroke-width:0.5;stroke-linecap:butt;stroke-linejoin:miter;stroke-miterlimit:3.25;stroke-dasharray:none;stroke-opacity:1"
         d="m 22.707,374.715 563.281,0" /><text
         id="text200"
         style="font-variant:normal;font-size:9px;font-family:CairoFont-3;-inkscape-font-specification:CairoFont-3-0;writing-mode:lr-tb;fill:#000000;fill-opacity:1;fill-rule:nonzero;stroke:none"
         transform="translate(593.98732,377.83044)"><tspan
           id="tspan202"
           y="0"
           x="0">n</tspan></text>
<path
         id="path204"
         style="fill:none;stroke:#000000;stroke-width:0.1;stroke-linecap:butt;stroke-linejoin:miter;stroke-miterlimit:3.25;stroke-dasharray:none;stroke-opacity:1"
         d="m 25.523,367.785 5.633,0" /><text
         id="text206"
         style="font-variant:normal;font-size:9px;font-family:CairoFont-1;-inkscape-font-specification:CairoFont-1-0;writing-mode:lr-tb;fill:#000000;fill-opacity:1;fill-rule:nonzero;stroke:none"
         transform="translate(0,370.90042)"><tspan
           id="tspan208"
           y="0"
           x="0 5.0040002 7.4970002 12.501 17.504999">0.001</tspan></text>
<path
         id="path210"
         style="fill:none;stroke:#000000;stroke-width:0.1;stroke-linecap:butt;stroke-linejoin:miter;stroke-miterlimit:3.25;stroke-dasharray:none;stroke-opacity:1"
         d="m 25.523,283.805 5.633,0" /><text
         id="text212"
         style="font-variant:normal;font-size:9px;font-family:CairoFont-1;-inkscape-font-specification:CairoFont-1-0;writing-mode:lr-tb;fill:#000000;fill-opacity:1;fill-rule:nonzero;stroke:none"
         transform="translate(0,286.92005)"><tspan
           id="tspan214"
           y="0"
           x="0 5.0040002 7.4970002 12.501 17.504999">0.010</tspan></text>
<path
         id="path216"
         style="fill:none;stroke:#000000;stroke-width:0.1;stroke-linecap:butt;stroke-linejoin:miter;stroke-miterlimit:3.25;stroke-dasharray:none;stroke-opacity:1"
         d="m 25.523,199.824 5.633,0" /><text
         id="text218"
         style="font-variant:normal;font-size:9px;font-family:CairoFont-1;-inkscape-font-specification:CairoFont-1-0;writing-mode:lr-tb;fill:#000000;fill-opacity:1;fill-rule:nonzero;stroke:none"
         transform="translate(0,202.93969)"><tspan
           id="tspan220"
           y="0"
           x="0 5.0040002 7.4970002 12.501 17.504999">0.100</tspan></text>
<path
         id="path222"
         style="fill:none;stroke:#000000;stroke-width:0.1;stroke-linecap:butt;stroke-linejoin:miter;stroke-miterlimit:3.25;stroke-dasharray:none;stroke-opacity:1"
         d="m 25.523,115.844 5.633,0" /><text
         id="text224"
         style="font-variant:normal;font-size:9px;font-family:CairoFont-1;-inkscape-font-specification:CairoFont-1-0;writing-mode:lr-tb;fill:#000000;fill-opacity:1;fill-rule:nonzero;stroke:none"
         transform="translate(17.518555,118.95933)"><tspan
           id="tspan226"
           y="0"
           x="0">1</tspan></text>
<path
         id="path228"
         style="fill:none;stroke:#000000;stroke-width:0.1;stroke-linecap:butt;stroke-linejoin:miter;stroke-miterlimit:3.25;stroke-dasharray:none;stroke-opacity:1"
         d="m 25.523,31.863 5.633,0" /><text
         id="text230"
         style="font-variant:normal;font-size:9px;font-family:CairoFont-1;-inkscape-font-specification:CairoFont-1-0;writing-mode:lr-tb;fill:#000000;fill-opacity:1;fill-rule:nonzero;stroke:none"
         transform="translate(12.512695,34.978963)"><tspan
           id="tspan232"
           y="0"
           x="0 5.0040002">10</tspan></text>
<path
         id="path234"
         style="fill:none;stroke:#000000;stroke-width:0.1;stroke-linecap:butt;stroke-linejoin:miter;stroke-miterlimit:3.25;stroke-dasharray:none;stroke-opacity:1"
         d="m 25.523,375.922 2.817,0" /><path
         id="path236"
         style="fill:none;stroke:#000000;stroke-width:0.1;stroke-linecap:butt;stroke-linejoin:miter;stroke-miterlimit:3.25;stroke-dasharray:none;stroke-opacity:1"
         d="m 25.523,371.625 2.817,0" /><path
         id="path238"
         style="fill:none;stroke:#000000;stroke-width:0.1;stroke-linecap:butt;stroke-linejoin:miter;stroke-miterlimit:3.25;stroke-dasharray:none;stroke-opacity:1"
         d="m 25.523,342.504 2.817,0" /><path
         id="path240"
         style="fill:none;stroke:#000000;stroke-width:0.1;stroke-linecap:butt;stroke-linejoin:miter;stroke-miterlimit:3.25;stroke-dasharray:none;stroke-opacity:1"
         d="m 25.523,327.715 2.817,0" /><path
         id="path242"
         style="fill:none;stroke:#000000;stroke-width:0.1;stroke-linecap:butt;stroke-linejoin:miter;stroke-miterlimit:3.25;stroke-dasharray:none;stroke-opacity:1"
         d="m 25.523,317.223 2.817,0" /><path
         id="path244"
         style="fill:none;stroke:#000000;stroke-width:0.1;stroke-linecap:butt;stroke-linejoin:miter;stroke-miterlimit:3.25;stroke-dasharray:none;stroke-opacity:1"
         d="m 25.523,309.082 2.817,0" /><path
         id="path246"
         style="fill:none;stroke:#000000;stroke-width:0.1;stroke-linecap:butt;stroke-linejoin:miter;stroke-miterlimit:3.25;stroke-dasharray:none;stroke-opacity:1"
         d="m 25.523,302.434 2.817,0" /><path
         id="path248"
         style="fill:none;stroke:#000000;stroke-width:0.1;stroke-linecap:butt;stroke-linejoin:miter;stroke-miterlimit:3.25;stroke-dasharray:none;stroke-opacity:1"
         d="m 25.523,296.812 2.817,0" /><path
         id="path250"
         style="fill:none;stroke:#000000;stroke-width:0.1;stroke-linecap:butt;stroke-linejoin:miter;stroke-miterlimit:3.25;stroke-dasharray:none;stroke-opacity:1"
         d="m 25.523,291.941 2.817,0" /><path
         id="path252"
         style="fill:none;stroke:#000000;stroke-width:0.1;stroke-linecap:butt;stroke-linejoin:miter;stroke-miterlimit:3.25;stroke-dasharray:none;stroke-opacity:1"
         d="m 25.523,287.645 2.817,0" /><path
         id="path254"
         style="fill:none;stroke:#000000;stroke-width:0.1;stroke-linecap:butt;stroke-linejoin:miter;stroke-miterlimit:3.25;stroke-dasharray:none;stroke-opacity:1"
         d="m 25.523,258.523 2.817,0" /><path
         id="path256"
         style="fill:none;stroke:#000000;stroke-width:0.1;stroke-linecap:butt;stroke-linejoin:miter;stroke-miterlimit:3.25;stroke-dasharray:none;stroke-opacity:1"
         d="m 25.523,243.734 2.817,0" /><path
         id="path258"
         style="fill:none;stroke:#000000;stroke-width:0.1;stroke-linecap:butt;stroke-linejoin:miter;stroke-miterlimit:3.25;stroke-dasharray:none;stroke-opacity:1"
         d="m 25.523,233.242 2.817,0" /><path
         id="path260"
         style="fill:none;stroke:#000000;stroke-width:0.1;stroke-linecap:butt;stroke-linejoin:miter;stroke-miterlimit:3.25;stroke-dasharray:none;stroke-opacity:1"
         d="m 25.523,225.102 2.817,0" /><path
         id="path262"
         style="fill:none;stroke:#000000;stroke-width:0.1;stroke-linecap:butt;stroke-linejoin:miter;stroke-miterlimit:3.25;stroke-dasharray:none;stroke-opacity:1"
         d="m 25.523,218.453 2.817,0" /><path
         id="path264"
         style="fill:none;stroke:#000000;stroke-width:0.1;stroke-linecap:butt;stroke-linejoin:miter;stroke-miterlimit:3.25;stroke-dasharray:none;stroke-opacity:1"
         d="m 25.523,212.832 2.817,0" /><path
         id="path266"
         style="fill:none;stroke:#000000;stroke-width:0.1;stroke-linecap:butt;stroke-linejoin:miter;stroke-miterlimit:3.25;stroke-dasharray:none;stroke-opacity:1"
         d="m 25.523,207.961 2.817,0" /><path
         id="path268"
         style="fill:none;stroke:#000000;stroke-width:0.1;stroke-linecap:butt;stroke-linejoin:miter;stroke-miterlimit:3.25;stroke-dasharray:none;stroke-opacity:1"
         d="m 25.523,203.664 2.817,0" /><path
         id="path270"
         style="fill:none;stroke:#000000;stroke-width:0.1;stroke-linecap:butt;stroke-linejoin:miter;stroke-miterlimit:3.25;stroke-dasharray:none;stroke-opacity:1"
         d="m 25.523,174.543 2.817,0" /><path
         id="path272"
         style="fill:none;stroke:#000000;stroke-width:0.1;stroke-linecap:butt;stroke-linejoin:miter;stroke-miterlimit:3.25;stroke-dasharray:none;stroke-opacity:1"
         d="m 25.523,159.754 2.817,0" /><path
         id="path274"
         style="fill:none;stroke:#000000;stroke-width:0.1;stroke-linecap:butt;stroke-linejoin:miter;stroke-miterlimit:3.25;stroke-dasharray:none;stroke-opacity:1"
         d="m 25.523,149.262 2.817,0" /><path
         id="path276"
         style="fill:none;stroke:#000000;stroke-width:0.1;stroke-linecap:butt;stroke-linejoin:miter;stroke-miterlimit:3.25;stroke-dasharray:none;stroke-opacity:1"
         d="m 25.523,141.121 2.817,0" /><path
         id="path278"
         style="fill:none;stroke:#000000;stroke-width:0.1;stroke-linecap:butt;stroke-linejoin:miter;stroke-miterlimit:3.25;stroke-dasharray:none;stroke-opacity:1"
         d="m 25.523,134.473 2.817,0" /><path
         id="path280"
         style="fill:none;stroke:#000000;stroke-width:0.1;stroke-linecap:butt;stroke-linejoin:miter;stroke-miterlimit:3.25;stroke-dasharray:none;stroke-opacity:1"
         d="m 25.523,128.852 2.817,0" /><path
         id="path282"
         style="fill:none;stroke:#000000;stroke-width:0.1;stroke-linecap:butt;stroke-linejoin:miter;stroke-miterlimit:3.25;stroke-dasharray:none;stroke-opacity:1"
         d="m 25.523,123.98 2.817,0" /><path
         id="path284"
         style="fill:none;stroke:#000000;stroke-width:0.1;stroke-linecap:butt;stroke-linejoin:miter;stroke-miterlimit:3.25;stroke-dasharray:none;stroke-opacity:1"
         d="m 25.523,119.684 2.817,0" /><path
         id="path286"
         style="fill:none;stroke:#000000;stroke-width:0.1;stroke-linecap:butt;stroke-linejoin:miter;stroke-miterlimit:3.25;stroke-dasharray:none;stroke-opacity:1"
         d="m 25.523,90.562 2.817,0" /><path
         id="path288"
         style="fill:none;stroke:#000000;stroke-width:0.1;stroke-linecap:butt;stroke-linejoin:miter;stroke-miterlimit:3.25;stroke-dasharray:none;stroke-opacity:1"
         d="m 25.523,75.773 2.817,0" /><path
         id="path290"
         style="fill:none;stroke:#000000;stroke-width:0.1;stroke-linecap:butt;stroke-linejoin:miter;stroke-miterlimit:3.25;stroke-dasharray:none;stroke-opacity:1"
         d="m 25.523,65.281 2.817,0" /><path
         id="path292"
         style="fill:none;stroke:#000000;stroke-width:0.1;stroke-linecap:butt;stroke-linejoin:miter;stroke-miterlimit:3.25;stroke-dasharray:none;stroke-opacity:1"
         d="m 25.523,57.141 2.817,0" /><path
         id="path294"
         style="fill:none;stroke:#000000;stroke-width:0.1;stroke-linecap:butt;stroke-linejoin:miter;stroke-miterlimit:3.25;stroke-dasharray:none;stroke-opacity:1"
         d="m 25.523,50.492 2.817,0" /><path
         id="path296"
         style="fill:none;stroke:#000000;stroke-width:0.1;stroke-linecap:butt;stroke-linejoin:miter;stroke-miterlimit:3.25;stroke-dasharray:none;stroke-opacity:1"
         d="m 25.523,44.871 2.817,0" /><path
         id="path298"
         style="fill:none;stroke:#000000;stroke-width:0.1;stroke-linecap:butt;stroke-linejoin:miter;stroke-miterlimit:3.25;stroke-dasharray:none;stroke-opacity:1"
         d="m 25.523,40 2.817,0" /><path
         id="path300"
         style="fill:none;stroke:#000000;stroke-width:0.1;stroke-linecap:butt;stroke-linejoin:miter;stroke-miterlimit:3.25;stroke-dasharray:none;stroke-opacity:1"
         d="m 25.523,35.703 2.817,0" /><path
         id="path302"
         style="fill:none;stroke:#000000;stroke-width:0.5;stroke-linecap:butt;stroke-linejoin:miter;stroke-miterlimit:3.25;stroke-dasharray:none;stroke-opacity:1"
         d="m 25.523,376.453 0,-348.125" /><text
         id="text304"
         style="font-variant:normal;font-size:9px;font-family:CairoFont-1;-inkscape-font-specification:CairoFont-1-0;writing-mode:lr-tb;fill:#000000;fill-opacity:1;fill-rule:nonzero;stroke:none"
         transform="translate(9.026367,20.421875)"><tspan
           id="tspan306"
           y="0"
           x="0 5.4899998 7.4879999 14.985">Time</tspan></text>
<text
         id="text308"
         style="font-variant:normal;font-size:9px;font-family:CairoFont-2;-inkscape-font-specification:CairoFont-2-0;writing-mode:lr-tb;fill:#000000;fill-opacity:1;fill-rule:nonzero;stroke:none"
         transform="translate(31.517367,20.421875)"><tspan
           id="tspan310"
           y="0"
           x="0">(</tspan></text>
<text
         id="text312"
         style="font-variant:normal;font-size:9px;font-family:CairoFont-1;-inkscape-font-specification:CairoFont-1-0;writing-mode:lr-tb;fill:#000000;fill-opacity:1;fill-rule:nonzero;stroke:none"
         transform="translate(34.514367,20.421875)"><tspan
           id="tspan314"
           y="0"
           x="0">s</tspan></text>
<text
         id="text316"
         style="font-variant:normal;font-size:9px;font-family:CairoFont-2;-inkscape-font-specification:CairoFont-2-0;writing-mode:lr-tb;fill:#000000;fill-opacity:1;fill-rule:nonzero;stroke:none"
         transform="translate(39.014367,20.421875)"><tspan
           id="tspan318"
           y="0"
           x="0">)</tspan></text>
<text
         id="text320"
         style="font-variant:normal;font-size:10.79980469px;font-family:CairoFont-1;-inkscape-font-specification:CairoFont-1-0;writing-mode:lr-tb;fill:#000000;fill-opacity:1;fill-rule:nonzero;stroke:none"
         transform="translate(132.23829,9.953125)"><tspan
           id="tspan322"
           y="0"
           x="0 7.1926703 9.5902271 14.990129 23.997168 30.001858 35.99575 38.987297 44.991989 48.588322">Sizeofterm</tspan></text>
<text
         id="text324"
         style="font-variant:normal;font-size:10.79980469px;font-family:CairoFont-2;-inkscape-font-specification:CairoFont-2-0;writing-mode:lr-tb;fill:#000000;fill-opacity:1;fill-rule:nonzero;stroke:none"
         transform="translate(192.8252,9.953125)"><tspan
           id="tspan326"
           y="0"
           x="0">(</tspan></text>
<text
         id="text328"
         style="font-variant:normal;font-size:10.79980469px;font-family:CairoFont-1;-inkscape-font-specification:CairoFont-1-0;writing-mode:lr-tb;fill:#000000;fill-opacity:1;fill-rule:nonzero;stroke:none"
         transform="translate(196.42153,9.953125)"><tspan
           id="tspan330"
           y="0"
           x="0 7.7974591 10.195016 13.186562 22.1828 28.18749 30.585049 36.589741 42.594429 48.599121 52.195457">withbinders</tspan></text>
<text
         id="text332"
         style="font-variant:normal;font-size:10.79980469px;font-family:CairoFont-2;-inkscape-font-specification:CairoFont-2-0;writing-mode:lr-tb;fill:#000000;fill-opacity:1;fill-rule:nonzero;stroke:none"
         transform="translate(254.01689,9.953125)"><tspan
           id="tspan334"
           y="0"
           x="0">)</tspan></text>
<text
         id="text336"
         style="font-variant:normal;font-size:10.79980469px;font-family:CairoFont-1;-inkscape-font-specification:CairoFont-1-0;writing-mode:lr-tb;fill:#000000;fill-opacity:1;fill-rule:nonzero;stroke:none"
         transform="translate(260.61557,9.953125)"><tspan
           id="tspan338"
           y="0"
           x="0 5.3999023 13.802151 21.599609 27.604301 30.001858 32.993404 35.390961 40.790863 46.795555 49.787102 52.184658 58.18935 67.196388 70.187935 72.585487 81.581726">vsReificationtime</tspan></text>
<text
         id="text340"
         style="font-variant:normal;font-size:10.79980469px;font-family:CairoFont-2;-inkscape-font-specification:CairoFont-2-0;writing-mode:lr-tb;fill:#000000;fill-opacity:1;fill-rule:nonzero;stroke:none"
         transform="translate(351.20434,9.953125)"><tspan
           id="tspan342"
           y="0"
           x="0">(</tspan></text>
<text
         id="text344"
         style="font-variant:normal;font-size:10.79980469px;font-family:CairoFont-1;-inkscape-font-specification:CairoFont-1-0;writing-mode:lr-tb;fill:#000000;fill-opacity:1;fill-rule:nonzero;stroke:none"
         transform="translate(354.80067,9.953125)"><tspan
           id="tspan346"
           y="0"
           x="0 2.3975568 8.4022484">log</tspan></text>
<text
         id="text348"
         style="font-variant:normal;font-size:10.79980469px;font-family:CairoFont-2;-inkscape-font-specification:CairoFont-2-0;writing-mode:lr-tb;fill:#000000;fill-opacity:1;fill-rule:nonzero;stroke:none"
         transform="translate(369.20761,9.953125)"><tspan
           id="tspan350"
           y="0"
           x="0">-</tspan></text>
<text
         id="text352"
         style="font-variant:normal;font-size:10.79980469px;font-family:CairoFont-1;-inkscape-font-specification:CairoFont-1-0;writing-mode:lr-tb;fill:#000000;fill-opacity:1;fill-rule:nonzero;stroke:none"
         transform="translate(375.5039,9.953125)"><tspan
           id="tspan354"
           y="0"
           x="0 2.3975568 8.4022484 14.40694 20.400831 22.798388 28.80308 32.399414 38.404106 47.400345 50.391891 56.396584 59.992916 68.989151 77.391403 83.396095 89.400787 91.79834">log,largetermsonly</tspan></text>
<text
         id="text356"
         style="font-variant:normal;font-size:10.79980469px;font-family:CairoFont-2;-inkscape-font-specification:CairoFont-2-0;writing-mode:lr-tb;fill:#000000;fill-opacity:1;fill-rule:nonzero;stroke:none"
         transform="translate(472.70214,9.953125)"><tspan
           id="tspan358"
           y="0"
           x="0">)</tspan></text>
</g></g></svg>