<?xml version="1.0" encoding="UTF-8" standalone="no"?>
<svg
   xmlns:dc="http://purl.org/dc/elements/1.1/"
   xmlns:cc="http://creativecommons.org/ns#"
   xmlns:rdf="http://www.w3.org/1999/02/22-rdf-syntax-ns#"
   xmlns:svg="http://www.w3.org/2000/svg"
   xmlns="http://www.w3.org/2000/svg"
   viewBox="0 0 1000 478.75"
   height="478.75"
   width="1000"
   xml:space="preserve"
   version="1.1"
   id="svg2"><metadata
     id="metadata8"><rdf:RDF><cc:Work
         rdf:about=""><dc:format>image/svg+xml</dc:format><dc:type
           rdf:resource="http://purl.org/dc/dcmitype/StillImage" /></cc:Work></rdf:RDF></metadata><defs
     id="defs6" /><g
     transform="scale(1.25,1.25)"
     id="g10"><g
       id="g12"><path
         id="path14"
         style="fill:none;stroke:#5e81b5;stroke-width:1.60000002;stroke-linecap:square;stroke-linejoin:miter;stroke-miterlimit:3.25;stroke-dasharray:none;stroke-opacity:1"
         d="m 24.953,357.172 0.293,-3.047 0.293,-0.582 0.293,1.926 0.293,-0.242 0.293,-0.372 0.293,-0.941 0.289,2.992 0.293,-0.855 0.293,-0.676 0.293,-11.793 0.293,8.199 0.293,2.797 0.293,-0.082 0.293,-0.094 0.293,-0.195 0.289,-0.512 0.293,0.813 0.293,-3.41 0.293,1.066 0.293,0.266 0.293,0.117 0.293,-0.57 0.293,-2.122 0.293,-1.019 0.293,0.59 0.289,0 0.293,0.105 0.293,1.75 0.293,-0.312 0.292,-0.059 0.293,-0.289 0.293,-0.801 0.293,0.719 0.293,0.801 0.289,-0.625 0.293,0 0.293,-0.258 0.293,0.117 0.293,-0.16 0.293,0.066 0.293,-0.078 0.293,-0.058 0.293,-0.141 0.289,0.383 0.293,0.187 0.293,-2.902 0.293,0.918 0.293,-0.105 0.293,-0.278 0.293,-0.738 1.461,-0.156 1.465,-2.785 1.461,-50.911 1.465,48.696 1.461,0.73 1.46,-0.765 1.465,-0.395 1.461,-1.461 1.465,-1.043 1.461,-0.66 1.465,-1.277 1.461,-0.754 1.465,-1.032 1.461,-1.46 1.461,-0.211 1.464,-0.082 1.461,-1.914 1.465,-1.586 1.461,-0.489 1.465,-1.32 1.461,-1.535 1.465,0.734 1.461,-2.219 1.461,-0.902 1.464,-0.824 1.461,-2.356 1.465,-3.964 1.461,-0.27 1.465,-1.738 1.461,-1.309 1.465,-3.773 1.461,-1.68 1.461,-0.488 1.464,-3.258 1.461,-1.719 1.465,0.824 1.461,1.774 1.465,-0.496 1.461,-0.758 1.465,-2.367 1.461,-2.028 1.461,0.637 1.465,-1.762 1.461,-2.007 1.464,0.777 1.461,-3.988 1.465,0.66 1.461,-3.27 1.465,0.102 1.461,-58.508 1.465,52.512 1.461,-4.524 1.461,-4.359 1.464,2.156 1.461,-5.012 1.465,-5.648 1.461,2.402 1.465,5.102 1.461,-1.738 1.465,-2.184 1.461,-6.668 1.461,0.301 1.464,-0.672" /><path
         id="path16"
         style="fill:none;stroke:#e19c24;stroke-width:1.60000002;stroke-linecap:square;stroke-linejoin:miter;stroke-miterlimit:3.25;stroke-dasharray:none;stroke-opacity:1"
         d="m 24.953,365.883 0.293,-2.813 0.293,1.063 0.293,1.691 0.293,-1.015 0.293,0.914 0.293,-0.067 0.289,-0.09 0.293,-0.023 0.293,-1.008 0.293,0.891 0.293,-0.067 0.293,-0.074 0.293,-0.039 0.293,-0.902 0.293,0.761 0.289,-0.043 0.293,-1.519 0.293,1.391 0.293,-0.918 0.293,0.754 0.293,-0.168 0.293,-0.122 0.293,0.02 0.293,0.027 0.293,-0.293 0.289,-1.464 0.293,1.554 0.293,-0.512 0.293,0.368 0.292,-0.254 0.293,-0.227 0.293,0.184 0.293,-0.008 0.293,-1.012 0.289,0.676 0.293,0.121 0.293,-0.93 0.293,-0.906 0.293,1.586 0.293,-0.25 0.293,-0.937 0.293,0.918 0.293,-0.032 0.289,-0.671 0.293,-0.879 0.293,1.304 0.293,-0.136 0.293,-0.887 0.293,-0.598 0.293,1.156 1.461,-0.277 1.465,-1.242 1.461,-0.336 1.465,0.199 1.461,-0.508 1.46,-0.586 1.465,-2.179 1.461,-0.407 1.465,-1.343 1.461,-0.61 1.465,-0.57 1.461,-0.039 1.465,-0.543 1.461,-0.223 1.461,0.129 1.464,-0.746 1.461,-2.015 1.465,0.843 1.461,-0.906 1.465,-0.25 1.461,-0.809 1.465,-0.621 1.461,-1.16 1.461,-1.953 1.464,0.09 1.461,-0.774 1.465,0.094 1.461,-0.914 1.465,-3.879 1.461,-0.429 1.465,1.226 1.461,-4.359 1.461,1.492 1.464,0.41 1.461,-1.945 1.465,-0.344 1.461,-4.703 1.465,1.43 1.461,-3.196 1.465,1.559 1.461,-0.621 1.461,-2.52 1.465,-0.781 1.461,-1.57 1.464,-5.289 1.461,3.703 1.465,-4.559 1.461,1.625 1.465,-3.762 1.461,-1.656 1.465,1.371 1.461,-2.965 1.461,-6.593 1.464,1.054 1.461,1.301 1.465,-1.699 1.461,-5.395 1.465,0.477 1.461,-0.613 1.465,-0.953 1.461,-7.797 1.461,-2.043 1.464,-1.285 1.461,0.457 1.465,-3.668 1.461,-4.2 1.465,-2.121 1.461,-2.558 1.465,-1.282 1.461,-0.628 1.461,-2.711 1.465,-1.094 1.46,-3.063 1.465,-1.457 1.461,-4.629 1.465,-1.656 1.461,-1.629 1.465,-3.3 1.461,1.601 1.461,-6.695 1.465,-5.528 1.461,3.641 1.464,-6.316 1.461,0.093 1.465,-3.367 1.461,-0.816 1.465,-5.707 1.461,1.656 1.461,-6.004 1.465,1.418 1.461,-7.734 1.464,2.277 1.461,-4.969 1.465,-9.425 1.461,0.437 1.465,-2.578 1.461,-0.836 1.465,-1.406 1.461,-9.735 1.461,1.727 1.464,-8.59 1.461,-2.769 1.465,1.968 1.461,-1.863 1.465,-5.301 1.461,0.012 1.465,-3.348 1.461,-5.261 1.461,-0.864 1.465,-5.121 1.461,-2.73 1.464,-0.16 1.461,-3.227 1.465,-5.145 1.461,-0.113 1.465,-3.055 1.461,-6.437 1.461,-48.148 1.465,45.636 1.461,-2.988 1.464,-7.523 1.461,0.402 1.465,-27.34 1.461,19.16 1.465,1.047 1.461,-9.723 1.461,-2.949 1.465,-5.043 1.461,-2.422 1.464,1.028 1.461,-10.106 1.465,-2.738 1.461,-5.457 1.465,-0.305 1.461,0.168 1.461,-11.035 1.465,-1.004 1.461,-1.289 1.465,-2.355 2.925,-10.352 2.926,1.734 1.461,-13.242 1.465,4.746 1.461,-11.777 1.461,6.715 2.926,-5.836" /><path
         id="path18"
         style="fill:none;stroke:#8fb032;stroke-width:1.60000002;stroke-linecap:square;stroke-linejoin:miter;stroke-miterlimit:3.25;stroke-dasharray:none;stroke-opacity:1"
         d="m 24.953,366.148 0.293,0.09 0.293,-1.07 0.293,0.734 0.293,0.039 0.293,0.157 0.293,-0.352 0.289,-0.262 0.293,0.489 0.293,-0.594 0.293,0.195 0.293,0.297 0.293,-0.566 0.293,0.148 0.293,0.367 0.293,-0.172 0.289,-0.468 0.293,0.66 0.293,-0.238 0.293,0.074 0.293,-0.09 0.293,-0.457 0.293,-0.406 0.293,0.75 0.293,0.16 0.293,-0.258 0.289,0.125 0.293,-0.168 0.293,0.145 0.293,-0.262 0.292,0.047 0.293,-0.071 0.293,0.028 0.293,-0.012 0.293,0.102 0.289,-0.106 0.293,0.106 0.293,-0.153 0.293,-0.968 0.293,0.859 0.293,-0.231 0.293,-0.261 0.293,0.465 0.293,0.125 0.289,-0.086 0.293,-0.247 0.293,-0.226 0.293,0.332 0.293,-0.906 0.293,0.59 0.293,0.097 1.461,-0.781 1.465,0.445 1.461,0.16 1.465,-0.16 1.461,-0.047 1.46,-0.773 1.465,-0.969 1.461,-0.015 1.465,0.011 1.461,0.321 1.465,-0.118 1.461,0.715 1.465,-0.191 1.461,0.023 1.461,-1.179 1.464,0.211 1.461,0.5 1.465,-0.84 1.461,-0.149 1.465,-0.629 1.461,0.743 1.465,-0.52 1.461,-0.164 1.461,0.5 1.464,-1.156 1.461,0.519 1.465,0.219 1.461,-0.234 1.465,-0.149 1.461,-1.855 1.465,-0.289 1.461,0.191 1.461,-0.008 1.464,0.031 1.461,0.274 1.465,1.168 1.461,-0.359 1.465,-0.016 1.461,-1.801 1.465,0.754 1.461,0.621 1.461,-1.441 1.465,0.082 1.461,-1.129 1.464,1.097 1.461,-0.949 1.465,-0.23 1.461,1.418 1.465,-2.113 1.461,1.531 1.465,0.722 1.461,-1.148 1.461,-0.988 1.464,-0.547 1.461,-1.516 1.465,-0.285 1.461,-0.141 1.465,0.246 1.461,0.36 1.465,1.41 1.461,0.48 1.461,0.532 1.464,-0.242 1.461,-2.567 1.465,2.238 1.461,-0.211 1.465,-1.546 1.461,1.539 1.465,-1.961 1.461,1.851 1.461,-1.476 1.465,-2.199 1.46,3.527 1.465,-1.738 1.461,-1.368 1.465,-1.171 1.461,3.886 1.465,-0.953 1.461,-0.133 1.461,-0.008 1.465,-0.226 1.461,-0.035 1.464,-0.301 1.461,0.07 1.465,-3.824 1.461,1.16 1.465,1.063 1.461,1.093 1.461,-3.593 1.465,2.156 1.461,1.305 1.464,-1.809 1.461,1.402 1.465,-1.179 1.461,-3.969 1.465,3.824 1.461,-2.551 1.465,2.926 1.461,-0.234 1.461,-1.473 1.464,-1.855 1.461,-0.282 1.465,-0.644 1.461,-0.402 1.465,-0.352 1.461,0.133 1.465,0.273 1.461,0.477 1.461,0.844 1.465,0.375 1.461,1.621 1.464,-4.133 1.461,1.562 1.465,1.274 1.461,-2.715 1.465,2.258 1.461,-2.406 1.461,2.121 1.465,-1.973 1.461,2.793 1.464,-2.293 1.461,-2.594 1.465,5.035 1.461,-1.582 1.465,-0.871 1.461,-1.422 1.461,-1.039 1.465,-1.011 1.461,-0.637 1.464,0.207 1.461,0.605 1.465,0.34 1.461,0.836 1.465,2.391 1.461,-5.469 1.461,1.004 1.465,1.5 1.461,3.121 1.465,-4.687 1.46,2.41" /><path
         id="path20"
         style="fill:none;stroke:#eb6235;stroke-width:1.60000002;stroke-linecap:square;stroke-linejoin:miter;stroke-miterlimit:3.25;stroke-dasharray:none;stroke-opacity:1"
         d="m 24.953,369.496 0.293,0.008 0.586,-0.016 0.293,-0.019 0.293,0.011 0.293,-0.007 0.289,-0.196 0.293,0.207 0.293,-0.011 0.293,0.007 0.293,-0.003 0.293,0 0.293,-0.008 0.293,0 0.293,-0.004 0.289,0.008 0.293,-0.008 0.293,-0.07 0.293,0.066 0.293,0.004 0.293,-0.004 0.293,-0.012 0.293,-0.469 0.293,0.469 0.293,-0.004 0.289,-0.05 0.293,0.05 0.293,0.004 0.293,-0.008 0.292,-0.003 0.293,0 0.293,-0.004 0.293,-0.153 0.293,0.098 0.289,0.055 0.586,-0.016 0.293,0.012 0.293,-0.086 0.293,0.066 0.293,0.012 0.293,-0.016 0.293,0 0.289,-0.07 0.293,0.066 0.293,0 0.293,-0.144 0.293,0.137 0.293,-0.071 0.293,0.067 1.461,-0.012 1.465,0 1.461,-0.008 1.465,-0.016 1.461,-0.007 1.46,-0.02 1.465,-0.023 1.461,-0.012 1.465,0.004 1.461,-0.008 1.465,-0.375 1.461,0.344 1.465,-0.008 1.461,-0.02 1.461,-0.003 1.464,-0.227 1.461,0.078 1.465,0.121 1.461,-0.008 1.465,-0.007 1.461,-0.02 1.465,-0.09 1.461,0.071 1.461,0 1.464,-0.293 1.461,0.265 1.465,-0.008 1.461,-0.132 1.465,-0.157 1.461,0.27 1.465,-0.02 1.461,-0.355 1.461,0.363 1.464,-0.426 1.461,0.391 1.465,-0.258 1.461,0.238 1.465,-0.011 1.461,-0.016 1.465,-0.141 1.461,-0.398 1.461,0.52 1.465,-0.02 1.461,-0.008 1.464,-0.008 1.461,-0.007 1.465,-0.024 1.461,-0.133 1.465,-0.152 1.461,-0.465 1.465,0.727 1.461,-0.016 1.461,-0.008 1.464,-0.019 1.461,-0.004 1.465,-0.008 1.461,-0.02 1.465,-0.015 1.461,-0.723 1.465,0.473 1.461,-0.125 1.461,0.332 1.464,-0.012 1.461,-0.012 1.465,-0.003 1.461,-0.707 1.465,-0.012 1.461,0.344 1.465,0.312 1.461,0 1.461,-0.019 1.465,-0.344 1.46,0.312 1.465,-0.765 1.461,0.507 1.465,-0.132 1.461,0.355 1.465,-0.004 1.461,-0.437 1.461,0.117 1.465,0.305 1.461,-0.336 1.464,0.293 1.461,-0.239 1.465,-0.074 1.461,0.289 1.465,-1.812 1.461,1.609 1.461,0.184 1.465,-0.223 1.461,-0.102 1.464,0.059 1.461,0.215 1.465,-0.863 1.461,0.836 1.465,-1.27 1.461,1.258 1.465,-0.535 1.461,0.242 1.461,0.031 1.464,-0.211 1.461,0.223 1.465,-0.617 1.461,0.769 1.465,-0.918 1.461,0.906 1.465,-0.214 1.461,0.199 1.461,-0.02 1.465,-0.32 1.461,-0.606 1.464,0.883 1.461,-0.777 1.465,0.777 1.461,-0.238 1.465,0.016 1.461,-0.95 1.461,0.141 1.465,0.953 1.461,-0.547 1.464,-0.187 1.461,0.715 1.465,-0.371 1.461,0.207 1.465,-0.172 1.461,-0.973 1.461,1.262 1.465,-0.031 1.461,-0.227 1.464,-0.863 1.461,0.773 1.465,-0.004 1.461,-0.73 1.465,-1.024 1.461,2.02 1.461,-0.027 1.465,-0.223 1.461,-0.156 1.465,-0.719 1.46,1.058 1.465,-0.015 1.461,0 1.465,-0.321 1.461,-0.046 1.465,-0.34 1.461,-0.43 1.461,1.066 1.465,0 1.461,-1.195 1.464,0.301 1.461,0.414 1.465,0.156 1.461,-0.297 1.465,0.282 1.461,-0.035 1.461,-0.047 1.465,-1.508 1.461,0.945 1.464,0.223 1.461,0.336 2.926,-0.012 2.926,-1.07 2.926,0.918 2.925,0.054 2.926,0.289 2.926,-2.023 2.922,1.019 2.926,0.606 2.926,-0.32 2.925,0.601 2.926,-2.57 2.926,1.769 2.926,-1.097 2.925,1.469 2.926,-1.536 2.926,1.258 2.922,-2.074 2.926,2.187 2.925,-0.117 2.926,-1.871 2.926,1.727 2.926,-0.606 2.926,-0.508 2.925,0.618 2.926,0.285 2.922,-0.832 2.926,0.051 2.926,0.898 2.925,0.121 2.926,-0.422 2.926,-0.672 2.926,0.758 2.925,-0.785 2.926,-0.426 2.922,-1.195 2.926,1.637 2.926,-0.578 2.925,-0.032 2.926,-0.476 2.926,-0.325 2.926,2.141 2.926,-0.344 2.925,0.008 2.926,-0.293 2.922,0.781 2.926,-1.894 2.926,0.937 2.925,0.086 2.926,0.297 2.926,-1.176 2.926,1.032 2.925,-0.059 2.926,-2.137 2.922,2.118 2.926,0.007 2.926,-2.105 2.925,1.269 2.926,-0.335 2.926,0.816 2.926,-0.652 2.926,-0.645 2.925,0.527 2.922,0.707 2.926,-1.664 2.926,-0.367 2.926,2.012 2.925,-1.649 2.926,2.086 2.926,-0.093 2.926,-0.864 2.925,-0.933 2.926,0.961 2.922,0.472 2.926,-0.554 2.926,-0.16 2.926,-0.895 2.925,0.344 2.926,1.484 2.926,-1.699 2.926,1.176 2.925,0.062 2.922,-1.222 2.926,1.093 2.926,0.063 2.926,-1.047 2.925,-0.875 2.926,-0.223 2.926,0.86 2.926,0.175 2.926,-0.015 2.925,0.281 2.922,-1.836 2.926,0.426 2.926,0.976 2.926,1.274 2.925,-0.047 2.926,-1.121 2.926,1.109 2.926,0.074 2.925,-1.089" /><path
         id="path22"
         style="fill:none;stroke:#8778b3;stroke-width:1.60000002;stroke-linecap:square;stroke-linejoin:miter;stroke-miterlimit:3.25;stroke-dasharray:none;stroke-opacity:1"
         d="m 24.953,369.605 0.293,0.008 0.293,-0.015 0.293,0.004 0.293,0.015 0.293,-0.019 0.293,-0.004 0.289,0 0.586,-0.008 0.293,0.008 0.586,0 0.879,-0.012 0.289,0.004 0.293,-0.004 0.293,0 0.293,0.004 0.879,-0.012 0.293,-0.008 0.293,0 0.293,0.008 0.289,-0.012 0.293,0.004 0.293,-0.004 0.585,0.008 0.293,0 0.586,-0.015 0.293,0.007 0.289,-0.015 0.293,0.015 0.293,0.032 0.293,-0.035 0.293,0.003 0.293,-0.003 0.293,0.003 0.293,-0.003 0.293,-0.016 0.289,0.012 0.293,-0.246 0.293,0.238 0.293,0.008 0.293,0 0.293,-0.008 0.293,-0.004 1.461,-0.012 1.465,-0.004 1.461,-0.007 1.465,0.003 1.461,-0.335 1.46,0.308 1.465,0 1.461,-0.012 1.465,0.004 1.461,-0.019 1.465,-0.008 1.461,-0.016 1.465,0 1.461,-0.019 1.461,-0.004 1.464,-0.016 1.461,-0.004 1.465,-0.027 1.461,0.074 1.465,-0.074 1.461,-0.004 1.465,-0.004 1.461,-0.015 1.461,-0.329 1.464,0.289 1.461,0.008 1.465,-0.023 1.461,0 1.465,-0.004 1.461,-0.012 1.465,-0.023 1.461,0.008 1.461,-0.934 1.464,0.918 1.461,-0.016 1.465,0.024 1.461,-0.039 1.465,-0.008 1.461,-0.016 1.465,0.028 1.461,-0.043 1.461,0.004 1.465,-0.032 1.461,0.024 1.464,0.039 1.461,-0.063 1.465,0 1.461,0.004 1.465,-0.031 1.461,0.004 1.465,0.004 1.461,0.082 1.461,-1.274 1.464,1.157 1.461,-0.016 1.465,0.004 1.461,0 1.465,-0.008 1.461,-0.031 1.465,-0.012 1.461,-0.015 1.461,0.019 1.464,0.004 1.461,-0.012 1.465,-0.011 1.461,-0.008 1.465,-0.028 1.461,-0.011 1.465,-0.004 1.461,0.023 1.461,-0.004 1.465,-0.023 1.46,0 1.465,0.004 1.461,-1.649 1.465,1.184 1.461,0.492 1.465,-0.055 1.461,-0.043 1.461,0.028 1.465,-0.016 1.461,-0.004 1.464,0.137 1.461,-0.148 1.465,-0.02 1.461,0.004 1.465,-0.016 1.461,0.082 1.461,-0.09 1.465,-0.003 1.461,-0.004 1.464,0.078 1.461,-0.11 1.465,0.004 1.461,-1.898 1.465,1.906 1.461,-0.023 1.465,-0.02 1.461,0.086 1.461,-0.113 1.464,0.012 1.461,0.042 1.465,-0.078 1.461,-1.285 1.465,1.281 1.461,-0.011 1.465,0.136 1.461,-0.152 1.461,-0.953 1.465,0.91 1.461,0.012 1.464,0 1.461,-0.012 1.465,0.047 1.461,-0.051 1.465,0.071 1.461,-0.09 1.461,0.066 1.465,-0.082 1.461,0.02 1.464,-0.028 1.461,-0.058 1.465,-1.801 1.461,1.82 1.465,-0.722 1.461,0.722 1.461,0.059 1.465,-0.086 1.461,-0.012 1.464,0.332 1.461,-0.324 1.465,-0.055 1.461,-1.156 1.465,1.191 1.461,-0.05 1.461,-1.254 1.465,1.293 1.461,-0.035 1.465,0.191 1.46,-0.184 1.465,0.008 1.461,0.016 1.465,-0.86 1.461,0.809 1.465,-0.012 1.461,-0.047 1.461,0.211 1.465,-2.144 1.461,1.957 1.464,-0.004 1.461,-0.055 1.465,0.176 1.461,-1.125 1.465,-1.293 1.461,2.258 1.461,-0.004 1.465,-0.031 1.461,-0.016 1.464,0.074 1.461,0.086 2.926,0.067 2.926,-0.891 2.926,-0.336 2.925,-0.492 2.926,-0.043 2.926,0.285 2.922,0.496 2.926,0.903 2.926,-0.086 2.925,-0.149 2.926,-0.109 2.926,0.008 2.926,0.015 2.925,-2.836 2.926,1.629 2.926,1.301 2.922,-0.188 2.926,0.016 2.925,-1.937 2.926,1.961 2.926,-0.067 2.926,-2.144 2.926,2.218 2.925,-0.117 2.926,-1.769 2.922,1.738 2.926,-3.152 2.926,3.211 2.925,-0.082 2.926,0.156 2.926,-0.207 2.926,0.211 2.925,-0.211 2.926,0.082 2.922,-3.004 2.926,2.855 2.926,-1.148 2.925,1.117 2.926,0.094 2.926,-2.535 2.926,2.398 2.926,0.07 2.925,0.422 2.926,-3.347 2.922,2.824 2.926,0.043 2.926,0.215 2.925,-2.426 2.926,-0.504 2.926,2.586 2.926,-0.02 2.925,0.004 2.926,0.086 2.922,0.039 2.926,0.004 2.926,0.008 2.925,0.02 2.926,-0.028 2.926,-0.054 2.926,-0.043 2.926,-0.063 2.925,-0.078 2.922,-0.039 2.926,-0.043 2.926,-2.801 2.926,0.555 2.925,2.41 2.926,-0.063 2.926,-0.144 2.926,-2.66 2.925,3.222 2.926,-0.464 2.922,-0.188 2.926,-1.844 2.926,2.024 2.926,-0.215 2.925,-1.289 2.926,1.406 2.926,-2.898 2.926,2.988 2.925,-4.535 2.922,4.527 2.926,-3.238 2.926,3.246 2.926,-5.578 2.925,5.515 2.926,-3.863 2.926,3.695 2.926,-2.433 2.926,2.285 2.925,0.18 2.922,-2.274 2.926,2.078 2.926,0.223 2.926,-2.32 2.925,-2.211 2.926,4.347 2.926,0.145 2.926,-1.586 2.925,-1.48" /><path
         id="path24"
         style="fill:none;stroke:#ffffff;stroke-width:4;stroke-linecap:butt;stroke-linejoin:round;stroke-miterlimit:3.25;stroke-dasharray:none;stroke-opacity:1"
         d="m 131.73,264.75 0.239,-0.109 0.707,-0.329 1.156,-0.531 1.586,-0.73 1.992,-0.922 2.387,-1.098 2.758,-1.269 3.109,-1.434 3.441,-1.59 3.758,-1.73 4.055,-1.871 4.328,-1.996 4.59,-2.114 4.824,-2.222 5.043,-2.325 5.242,-2.418 5.426,-2.5 5.586,-2.578 5.731,-2.64 5.851,-2.696 5.957,-2.746 6.039,-2.785 6.11,-2.816 6.156,-2.84 6.183,-2.848 6.192,-2.855 6.179,-2.852 6.157,-2.836 6.101,-2.812 6.039,-2.785 5.95,-2.743 5.843,-2.695 5.719,-2.637 5.578,-2.57 5.414,-2.496 5.231,-2.41 5.027,-2.32 4.813,-2.215 4.57,-2.11 4.34,-2 4.113,-1.894 3.898,-1.801 3.7,-1.703 3.504,-1.617 3.324,-1.532 3.152,-1.453 2.992,-1.379 2.844,-1.312 2.703,-1.246 2.574,-1.184 2.457,-1.133 2.348,-1.085 2.254,-1.036 2.168,-1 2.09,-0.964 2.023,-0.934 1.973,-0.91 1.93,-0.887 1.894,-0.875 1.871,-0.863 1.86,-0.856 1.859,-0.859 1.871,-0.859 1.887,-0.872 1.918,-0.886 1.961,-0.903 2.011,-0.925 2.075,-0.957 2.148,-0.989 2.231,-1.031 2.324,-1.07 2.429,-1.121 2.547,-1.172 2.672,-1.235 2.805,-1.293 2.957,-1.363 3.113,-1.433 3.27,-1.508 3.418,-1.575 3.558,-1.64 3.688,-1.703 3.816,-1.758 3.93,-1.809 4.035,-1.859 4.133,-1.902 4.223,-1.95 4.304,-1.98 4.379,-2.016 4.445,-2.047 4.496,-2.07 4.547,-2.09 4.59,-2.109 4.617,-2.125 4.641,-2.133 4.652,-2.141 4.664,-2.14 4.657,-2.137 4.648,-2.137 4.629,-2.121 4.598,-2.109 4.566,-2.094 4.52,-2.07 4.464,-2.047 4.407,-2.016 4.336,-1.98 4.257,-1.945 4.172,-1.907 4.078,-1.859 3.973,-1.809 3.863,-1.757 3.739,-1.7 3.613,-1.64 3.477,-1.578 3.332,-1.508 3.179,-1.434 3.02,-1.359 2.867,-1.289 2.719,-1.219 2.578,-1.152 2.433,-1.086 2.297,-1.02 2.168,-0.957 2.039,-0.898 1.918,-0.84 1.797,-0.785 1.68,-0.731 1.574,-0.676 1.461,-0.625 1.363,-0.578 1.266,-0.531 1.168,-0.488 1.078,-0.442 0.996,-0.402 0.914,-0.367 0.836,-0.328 0.762,-0.293 0.691,-0.258 0.629,-0.23 0.57,-0.2 0.512,-0.172 0.461,-0.148 0.414,-0.125 0.367,-0.105 0.329,-0.086 0.296,-0.067 0.262,-0.051 0.238,-0.039 0.211,-0.027 0.196,-0.02 0.183,-0.011 0.168,-0.004 4.879,0" /><path
         id="path26"
         style="fill:none;stroke:#aaaaaa;stroke-width:0.5;stroke-linecap:square;stroke-linejoin:miter;stroke-miterlimit:3.25;stroke-dasharray:none;stroke-opacity:1"
         d="m 131.73,264.75 0.239,-0.109 0.707,-0.329 1.156,-0.531 1.586,-0.73 1.992,-0.922 2.387,-1.098 2.758,-1.269 3.109,-1.434 3.441,-1.59 3.758,-1.73 4.055,-1.871 4.328,-1.996 4.59,-2.114 4.824,-2.222 5.043,-2.325 5.242,-2.418 5.426,-2.5 5.586,-2.578 5.731,-2.64 5.851,-2.696 5.957,-2.746 6.039,-2.785 6.11,-2.816 6.156,-2.84 6.183,-2.848 6.192,-2.855 6.179,-2.852 6.157,-2.836 6.101,-2.812 6.039,-2.785 5.95,-2.743 5.843,-2.695 5.719,-2.637 5.578,-2.57 5.414,-2.496 5.231,-2.41 5.027,-2.32 4.813,-2.215 4.57,-2.11 4.34,-2 4.113,-1.894 3.898,-1.801 3.7,-1.703 3.504,-1.617 3.324,-1.532 3.152,-1.453 2.992,-1.379 2.844,-1.312 2.703,-1.246 2.574,-1.184 2.457,-1.133 2.348,-1.085 2.254,-1.036 2.168,-1 2.09,-0.964 2.023,-0.934 1.973,-0.91 1.93,-0.887 1.894,-0.875 1.871,-0.863 1.86,-0.856 1.859,-0.859 1.871,-0.859 1.887,-0.872 1.918,-0.886 1.961,-0.903 2.011,-0.925 2.075,-0.957 2.148,-0.989 2.231,-1.031 2.324,-1.07 2.429,-1.121 2.547,-1.172 2.672,-1.235 2.805,-1.293 2.957,-1.363 3.113,-1.433 3.27,-1.508 3.418,-1.575 3.558,-1.64 3.688,-1.703 3.816,-1.758 3.93,-1.809 4.035,-1.859 4.133,-1.902 4.223,-1.95 4.304,-1.98 4.379,-2.016 4.445,-2.047 4.496,-2.07 4.547,-2.09 4.59,-2.109 4.617,-2.125 4.641,-2.133 4.652,-2.141 4.664,-2.14 4.657,-2.137 4.648,-2.137 4.629,-2.121 4.598,-2.109 4.566,-2.094 4.52,-2.07 4.464,-2.047 4.407,-2.016 4.336,-1.98 4.257,-1.945 4.172,-1.907 4.078,-1.859 3.973,-1.809 3.863,-1.757 3.739,-1.7 3.613,-1.64 3.477,-1.578 3.332,-1.508 3.179,-1.434 3.02,-1.359 2.867,-1.289 2.719,-1.219 2.578,-1.152 2.433,-1.086 2.297,-1.02 2.168,-0.957 2.039,-0.898 1.918,-0.84 1.797,-0.785 1.68,-0.731 1.574,-0.676 1.461,-0.625 1.363,-0.578 1.266,-0.531 1.168,-0.488 1.078,-0.442 0.996,-0.402 0.914,-0.367 0.836,-0.328 0.762,-0.293 0.691,-0.258 0.629,-0.23 0.57,-0.2 0.512,-0.172 0.461,-0.148 0.414,-0.125 0.367,-0.105 0.329,-0.086 0.296,-0.067 0.262,-0.051 0.238,-0.039 0.211,-0.027 0.196,-0.02 0.183,-0.011 0.168,-0.004 4.879,0" /><path
         id="path28"
         style="fill:#ffffff;fill-opacity:0.66666697;fill-rule:nonzero;stroke:none"
         d="m 614.871,38.633 106,0 0,16 -106,0 0,-16 z" /><text
         id="text30"
         style="font-variant:normal;font-size:9px;font-family:CairoFont-0;-inkscape-font-specification:CairoFont-0-1;writing-mode:lr-tb;fill:#5e81b5;fill-opacity:1;fill-rule:nonzero;stroke:none"
         transform="translate(616.87249,49.748276)"><tspan
           id="tspan32"
           y="0"
           x="0">■</tspan></text>
<text
         id="text34"
         style="font-variant:normal;font-size:9px;font-family:CairoFont-1;-inkscape-font-specification:CairoFont-1-0;writing-mode:lr-tb;fill:#000000;fill-opacity:1;fill-rule:nonzero;stroke:none"
         transform="translate(624.77483,49.748276)"><tspan
           id="tspan36"
           y="0"
           x="0 5.994 10.998 13.995 18.495001 20.493 25.497 30.500999 36.494999 38.493 43.497002 48.500999 53.505001 56.501999 61.506001 63.999001 69.002998">ParsingElaborated</tspan></text>
<path
         id="path38"
         style="fill:none;stroke:#ffffff;stroke-width:4;stroke-linecap:butt;stroke-linejoin:round;stroke-miterlimit:3.25;stroke-dasharray:none;stroke-opacity:1"
         d="m 257.52,46.629 0.23,0.144 0.676,0.426 1.101,0.692 1.508,0.945 1.887,1.187 2.25,1.411 2.594,1.628 2.91,1.829 3.211,2.015 3.492,2.192 3.746,2.355 3.984,2.5 4.196,2.637 4.394,2.758 4.567,2.867 4.718,2.965 4.852,3.047 4.961,3.113 5.047,3.172 5.121,3.215 5.164,3.242 5.195,3.261 5.199,3.266 5.18,3.254 5.149,3.23 5.089,3.196 5.012,3.148 4.91,3.086 4.793,3.008 4.649,2.918 4.488,2.82 4.305,2.703 4.101,2.575 3.875,2.433 3.653,2.293 3.437,2.156 3.231,2.032 3.039,1.91 2.863,1.797 2.691,1.691 2.535,1.59 2.395,1.504 2.258,1.418 2.133,1.34 2.027,1.273 1.93,1.211 1.839,1.156 1.766,1.11 1.703,1.066 1.653,1.039 1.609,1.012 1.582,0.992 1.566,0.984 1.559,0.981 1.566,0.98 1.586,0.996 1.617,1.016 1.657,1.039 1.707,1.074 1.777,1.114 1.848,1.164 1.941,1.215 2.039,1.281 2.149,1.351 2.273,1.426 2.41,1.512 2.551,1.605 2.707,1.7 2.852,1.789 2.988,1.875 3.109,1.957 3.231,2.023 3.34,2.098 3.433,2.156 3.528,2.211 3.605,2.262 3.68,2.304 3.738,2.344 3.793,2.375 3.836,2.402 3.871,2.422 3.895,2.438 3.91,2.445 3.918,2.449 3.918,2.446 3.902,2.437 3.883,2.422 3.855,2.402 3.813,2.375 3.769,2.344 3.707,2.305 3.641,2.262 3.566,2.21 3.485,2.157 3.386,2.093 3.282,2.028 3.172,1.953 3.05,1.875 2.918,1.793 2.778,1.699 2.629,1.602 2.48,1.507 2.34,1.418 2.203,1.325 2.066,1.238 1.938,1.156 1.812,1.074 1.696,1 1.578,0.922 1.469,0.848 1.359,0.781 1.262,0.715 1.16,0.652 1.07,0.594 0.985,0.531 0.898,0.481 0.82,0.43 0.746,0.378 0.68,0.332 0.613,0.293 0.551,0.25 0.496,0.215 0.446,0.18 0.398,0.148 0.359,0.125 0.317,0.094 0.289,0.074 0.258,0.055 0.238,0.039 0.215,0.024 0.203,0.015 0.191,0.004 0.188,0.004 4.695,0" /><path
         id="path40"
         style="fill:none;stroke:#aaaaaa;stroke-width:0.5;stroke-linecap:square;stroke-linejoin:miter;stroke-miterlimit:3.25;stroke-dasharray:none;stroke-opacity:1"
         d="m 257.52,46.629 0.23,0.144 0.676,0.426 1.101,0.692 1.508,0.945 1.887,1.187 2.25,1.411 2.594,1.628 2.91,1.829 3.211,2.015 3.492,2.192 3.746,2.355 3.984,2.5 4.196,2.637 4.394,2.758 4.567,2.867 4.718,2.965 4.852,3.047 4.961,3.113 5.047,3.172 5.121,3.215 5.164,3.242 5.195,3.261 5.199,3.266 5.18,3.254 5.149,3.23 5.089,3.196 5.012,3.148 4.91,3.086 4.793,3.008 4.649,2.918 4.488,2.82 4.305,2.703 4.101,2.575 3.875,2.433 3.653,2.293 3.437,2.156 3.231,2.032 3.039,1.91 2.863,1.797 2.691,1.691 2.535,1.59 2.395,1.504 2.258,1.418 2.133,1.34 2.027,1.273 1.93,1.211 1.839,1.156 1.766,1.11 1.703,1.066 1.653,1.039 1.609,1.012 1.582,0.992 1.566,0.984 1.559,0.981 1.566,0.98 1.586,0.996 1.617,1.016 1.657,1.039 1.707,1.074 1.777,1.114 1.848,1.164 1.941,1.215 2.039,1.281 2.149,1.351 2.273,1.426 2.41,1.512 2.551,1.605 2.707,1.7 2.852,1.789 2.988,1.875 3.109,1.957 3.231,2.023 3.34,2.098 3.433,2.156 3.528,2.211 3.605,2.262 3.68,2.304 3.738,2.344 3.793,2.375 3.836,2.402 3.871,2.422 3.895,2.438 3.91,2.445 3.918,2.449 3.918,2.446 3.902,2.437 3.883,2.422 3.855,2.402 3.813,2.375 3.769,2.344 3.707,2.305 3.641,2.262 3.566,2.21 3.485,2.157 3.386,2.093 3.282,2.028 3.172,1.953 3.05,1.875 2.918,1.793 2.778,1.699 2.629,1.602 2.48,1.507 2.34,1.418 2.203,1.325 2.066,1.238 1.938,1.156 1.812,1.074 1.696,1 1.578,0.922 1.469,0.848 1.359,0.781 1.262,0.715 1.16,0.652 1.07,0.594 0.985,0.531 0.898,0.481 0.82,0.43 0.746,0.378 0.68,0.332 0.613,0.293 0.551,0.25 0.496,0.215 0.446,0.18 0.398,0.148 0.359,0.125 0.317,0.094 0.289,0.074 0.258,0.055 0.238,0.039 0.215,0.024 0.203,0.015 0.191,0.004 0.188,0.004 4.695,0" /><path
         id="path42"
         style="fill:#ffffff;fill-opacity:0.66666697;fill-rule:nonzero;stroke:none"
         d="m 614.871,256.75 156,0 0,16 -156,0 0,-16 z" /><text
         id="text44"
         style="font-variant:normal;font-size:9px;font-family:CairoFont-0;-inkscape-font-specification:CairoFont-0-1;writing-mode:lr-tb;fill:#e19c24;fill-opacity:1;fill-rule:nonzero;stroke:none"
         transform="translate(616.87249,267.86705)"><tspan
           id="tspan46"
           y="0"
           x="0">■</tspan></text>
<text
         id="text48"
         style="font-variant:normal;font-size:9px;font-family:CairoFont-1;-inkscape-font-specification:CairoFont-1-0;writing-mode:lr-tb;fill:#000000;fill-opacity:1;fill-rule:nonzero;stroke:none"
         transform="translate(624.77483,267.86705)"><tspan
           id="tspan50"
           y="0"
           x="0 5.994 10.998 13.995 18.999001 26.496 31.5 33.993 36.990002 38.987999 43.487999 45.486 47.979">Parametricity</tspan></text>
<text
         id="text52"
         style="font-variant:normal;font-size:9px;font-family:CairoFont-2;-inkscape-font-specification:CairoFont-2-0;writing-mode:lr-tb;fill:#000000;fill-opacity:1;fill-rule:nonzero;stroke:none"
         transform="translate(679.75583,267.86705)"><tspan
           id="tspan54"
           y="0"
           x="0">(</tspan></text>
<text
         id="text56"
         style="font-variant:normal;font-size:9px;font-family:CairoFont-1;-inkscape-font-specification:CairoFont-1-0;writing-mode:lr-tb;fill:#000000;fill-opacity:1;fill-rule:nonzero;stroke:none"
         transform="translate(682.75283,267.86705)"><tspan
           id="tspan58"
           y="0"
           x="0 2.997 8.0010004 13.005 18.009001 22.509001 27.513 35.019001 37.512001 42.515999 45.513">reducedterm</tspan></text>
<text
         id="text60"
         style="font-variant:normal;font-size:9px;font-family:CairoFont-2;-inkscape-font-specification:CairoFont-2-0;writing-mode:lr-tb;fill:#000000;fill-opacity:1;fill-rule:nonzero;stroke:none"
         transform="translate(735.76283,267.86705)"><tspan
           id="tspan62"
           y="0"
           x="0">)</tspan></text>
<path
         id="path64"
         style="fill:none;stroke:#ffffff;stroke-width:4;stroke-linecap:butt;stroke-linejoin:round;stroke-miterlimit:3.25;stroke-dasharray:none;stroke-opacity:1"
         d="m 244.355,345.18 0.266,-0.004 0.77,-0.02 1.257,-0.027 1.719,-0.039 2.149,-0.047 2.558,-0.059 2.942,-0.066 3.3,-0.07 3.633,-0.082 3.942,-0.09 4.222,-0.094 4.481,-0.098 4.715,-0.105 4.918,-0.109 5.101,-0.118 5.258,-0.117 5.391,-0.117 5.492,-0.125 5.578,-0.125 5.629,-0.125 5.66,-0.125 5.668,-0.129 5.644,-0.125 5.602,-0.125 5.531,-0.121 5.434,-0.121 5.312,-0.121 5.168,-0.114 4.996,-0.113 4.797,-0.105 4.578,-0.102 4.329,-0.097 4.07,-0.09 3.816,-0.086 3.582,-0.082 3.356,-0.075 3.152,-0.07 2.953,-0.066 2.778,-0.063 2.609,-0.058 2.453,-0.055 2.32,-0.051 2.192,-0.047 2.082,-0.047 1.988,-0.046 1.902,-0.039 1.836,-0.043 1.782,-0.039 1.742,-0.04 1.715,-0.039 1.699,-0.039 1.707,-0.035 1.719,-0.039 1.75,-0.039 1.793,-0.039 1.847,-0.043 1.926,-0.043 2.008,-0.043 2.105,-0.047 2.223,-0.051 2.352,-0.054 2.488,-0.055 2.648,-0.059 2.817,-0.062 2.992,-0.066 3.152,-0.071 3.301,-0.074 3.445,-0.078 3.575,-0.078 3.695,-0.082 3.801,-0.086 3.894,-0.086 3.985,-0.09 4.054,-0.09 4.121,-0.09 4.172,-0.093 4.215,-0.094 4.242,-0.094 4.262,-0.098 4.273,-0.093 4.266,-0.094 4.254,-0.094 4.226,-0.094 4.196,-0.093 4.144,-0.094 4.086,-0.09 4.016,-0.086 3.937,-0.09 3.844,-0.082 3.742,-0.086 3.629,-0.078 3.504,-0.078 3.371,-0.07 3.223,-0.071 3.062,-0.07 2.895,-0.062 2.726,-0.059 2.563,-0.055 2.402,-0.05 2.246,-0.047 2.102,-0.047 1.961,-0.039 1.82,-0.039 1.692,-0.035 1.566,-0.032 1.441,-0.031 1.332,-0.027 1.219,-0.024 1.117,-0.023 1.02,-0.02 0.926,-0.015 0.84,-0.016 0.757,-0.012 0.684,-0.011 0.609,-0.012 0.547,-0.008 0.485,-0.008 0.433,-0.008 0.387,-0.003 0.34,-0.004 0.304,0 0.274,-0.004 0.246,0 0.227,-0.004 5.226,0" /><path
         id="path66"
         style="fill:none;stroke:#aaaaaa;stroke-width:0.5;stroke-linecap:square;stroke-linejoin:miter;stroke-miterlimit:3.25;stroke-dasharray:none;stroke-opacity:1"
         d="m 244.355,345.18 0.266,-0.004 0.77,-0.02 1.257,-0.027 1.719,-0.039 2.149,-0.047 2.558,-0.059 2.942,-0.066 3.3,-0.07 3.633,-0.082 3.942,-0.09 4.222,-0.094 4.481,-0.098 4.715,-0.105 4.918,-0.109 5.101,-0.118 5.258,-0.117 5.391,-0.117 5.492,-0.125 5.578,-0.125 5.629,-0.125 5.66,-0.125 5.668,-0.129 5.644,-0.125 5.602,-0.125 5.531,-0.121 5.434,-0.121 5.312,-0.121 5.168,-0.114 4.996,-0.113 4.797,-0.105 4.578,-0.102 4.329,-0.097 4.07,-0.09 3.816,-0.086 3.582,-0.082 3.356,-0.075 3.152,-0.07 2.953,-0.066 2.778,-0.063 2.609,-0.058 2.453,-0.055 2.32,-0.051 2.192,-0.047 2.082,-0.047 1.988,-0.046 1.902,-0.039 1.836,-0.043 1.782,-0.039 1.742,-0.04 1.715,-0.039 1.699,-0.039 1.707,-0.035 1.719,-0.039 1.75,-0.039 1.793,-0.039 1.847,-0.043 1.926,-0.043 2.008,-0.043 2.105,-0.047 2.223,-0.051 2.352,-0.054 2.488,-0.055 2.648,-0.059 2.817,-0.062 2.992,-0.066 3.152,-0.071 3.301,-0.074 3.445,-0.078 3.575,-0.078 3.695,-0.082 3.801,-0.086 3.894,-0.086 3.985,-0.09 4.054,-0.09 4.121,-0.09 4.172,-0.093 4.215,-0.094 4.242,-0.094 4.262,-0.098 4.273,-0.093 4.266,-0.094 4.254,-0.094 4.226,-0.094 4.196,-0.093 4.144,-0.094 4.086,-0.09 4.016,-0.086 3.937,-0.09 3.844,-0.082 3.742,-0.086 3.629,-0.078 3.504,-0.078 3.371,-0.07 3.223,-0.071 3.062,-0.07 2.895,-0.062 2.726,-0.059 2.563,-0.055 2.402,-0.05 2.246,-0.047 2.102,-0.047 1.961,-0.039 1.82,-0.039 1.692,-0.035 1.566,-0.032 1.441,-0.031 1.332,-0.027 1.219,-0.024 1.117,-0.023 1.02,-0.02 0.926,-0.015 0.84,-0.016 0.757,-0.012 0.684,-0.011 0.609,-0.012 0.547,-0.008 0.485,-0.008 0.433,-0.008 0.387,-0.003 0.34,-0.004 0.304,0 0.274,-0.004 0.246,0 0.227,-0.004 5.226,0" /><path
         id="path68"
         style="fill:#ffffff;fill-opacity:0.66666697;fill-rule:nonzero;stroke:none"
         d="m 614.871,329.133 81,0 0,16 -81,0 0,-16 z" /><text
         id="text70"
         style="font-variant:normal;font-size:9px;font-family:CairoFont-0;-inkscape-font-specification:CairoFont-0-1;writing-mode:lr-tb;fill:#8fb032;fill-opacity:1;fill-rule:nonzero;stroke:none"
         transform="translate(616.87249,340.2509)"><tspan
           id="tspan72"
           y="0"
           x="0">■</tspan></text>
<text
         id="text74"
         style="font-variant:normal;font-size:9px;font-family:CairoFont-1;-inkscape-font-specification:CairoFont-1-0;writing-mode:lr-tb;fill:#000000;fill-opacity:1;fill-rule:nonzero;stroke:none"
         transform="translate(624.77483,340.2509)"><tspan
           id="tspan76"
           y="0"
           x="0 5.4899998 10.494 17.990999 22.995001 24.993 29.997 32.490002 37.493999 43.992001 48.995998">TemplateCoq</tspan></text>
<path
         id="path78"
         style="fill:none;stroke:#ffffff;stroke-width:4;stroke-linecap:butt;stroke-linejoin:round;stroke-miterlimit:3.25;stroke-dasharray:none;stroke-opacity:1"
         d="m 566.148,363.766 0.266,-0.071 0.738,-0.199 1.137,-0.305 1.449,-0.39 1.676,-0.453 1.828,-0.493 1.891,-0.507 1.875,-0.504 1.773,-0.477 1.598,-0.429 1.344,-0.364 1.101,-0.297 0.903,-0.242 0.753,-0.203 0.649,-0.176 0.586,-0.156 0.57,-0.156 0.606,-0.16 0.679,-0.184 0.801,-0.215 0.969,-0.262 1.133,-0.304 1.269,-0.336 1.371,-0.363 1.442,-0.379 1.484,-0.383 1.492,-0.379 1.469,-0.363 1.414,-0.336 1.324,-0.305 1.207,-0.262 1.078,-0.211 0.961,-0.172 0.86,-0.128 0.777,-0.098 0.711,-0.07 0.656,-0.047 0.621,-0.028 0.602,-0.011 0.594,-0.004 5.066,0" /><path
         id="path80"
         style="fill:none;stroke:#aaaaaa;stroke-width:0.5;stroke-linecap:square;stroke-linejoin:miter;stroke-miterlimit:3.25;stroke-dasharray:none;stroke-opacity:1"
         d="m 566.148,363.766 0.266,-0.071 0.738,-0.199 1.137,-0.305 1.449,-0.39 1.676,-0.453 1.828,-0.493 1.891,-0.507 1.875,-0.504 1.773,-0.477 1.598,-0.429 1.344,-0.364 1.101,-0.297 0.903,-0.242 0.753,-0.203 0.649,-0.176 0.586,-0.156 0.57,-0.156 0.606,-0.16 0.679,-0.184 0.801,-0.215 0.969,-0.262 1.133,-0.304 1.269,-0.336 1.371,-0.363 1.442,-0.379 1.484,-0.383 1.492,-0.379 1.469,-0.363 1.414,-0.336 1.324,-0.305 1.207,-0.262 1.078,-0.211 0.961,-0.172 0.86,-0.128 0.777,-0.098 0.711,-0.07 0.656,-0.047 0.621,-0.028 0.602,-0.011 0.594,-0.004 5.066,0" /><path
         id="path82"
         style="fill:#ffffff;fill-opacity:0.66666697;fill-rule:nonzero;stroke:none"
         d="m 614.871,345.344 168,0 0,16 -168,0 0,-16 z" /><text
         id="text84"
         style="font-variant:normal;font-size:9px;font-family:CairoFont-0;-inkscape-font-specification:CairoFont-0-1;writing-mode:lr-tb;fill:#eb6235;fill-opacity:1;fill-rule:nonzero;stroke:none"
         transform="translate(616.87249,356.46016)"><tspan
           id="tspan86"
           y="0"
           x="0">■</tspan></text>
<text
         id="text88"
         style="font-variant:normal;font-size:9px;font-family:CairoFont-1;-inkscape-font-specification:CairoFont-1-0;writing-mode:lr-tb;fill:#000000;fill-opacity:1;fill-rule:nonzero;stroke:none"
         transform="translate(624.77483,356.46016)"><tspan
           id="tspan90"
           y="0"
           x="0 5.994 10.998 13.995 18.999001 26.496 31.5 33.993 36.990002 38.987999 43.487999 45.486 47.979">Parametricity</tspan></text>
<text
         id="text92"
         style="font-variant:normal;font-size:9px;font-family:CairoFont-2;-inkscape-font-specification:CairoFont-2-0;writing-mode:lr-tb;fill:#000000;fill-opacity:1;fill-rule:nonzero;stroke:none"
         transform="translate(679.75583,356.46016)"><tspan
           id="tspan94"
           y="0"
           x="0">(</tspan></text>
<text
         id="text96"
         style="font-variant:normal;font-size:9px;font-family:CairoFont-1;-inkscape-font-specification:CairoFont-1-0;writing-mode:lr-tb;fill:#000000;fill-opacity:1;fill-rule:nonzero;stroke:none"
         transform="translate(682.75283,356.46016)"><tspan
           id="tspan98"
           y="0"
           x="0 5.0040002 10.008 13.005 18.009001 23.013 28.017 32.516998 37.521 45.035999 47.528999 52.533001 55.529999">unreducedterm</tspan></text>
<text
         id="text100"
         style="font-variant:normal;font-size:9px;font-family:CairoFont-2;-inkscape-font-specification:CairoFont-2-0;writing-mode:lr-tb;fill:#000000;fill-opacity:1;fill-rule:nonzero;stroke:none"
         transform="translate(745.77983,356.46016)"><tspan
           id="tspan102"
           y="0"
           x="0">)</tspan></text>
<path
         id="path104"
         style="fill:none;stroke:#ffffff;stroke-width:4;stroke-linecap:butt;stroke-linejoin:round;stroke-miterlimit:3.25;stroke-dasharray:none;stroke-opacity:1"
         d="m 566.148,364.184 0.266,0.031 0.738,0.082 1.137,0.133 1.449,0.164 1.676,0.195 1.828,0.211 1.891,0.215 1.875,0.215 1.773,0.207 1.598,0.183 1.344,0.153 1.101,0.129 0.903,0.101 0.753,0.086 0.649,0.074 0.586,0.071 0.57,0.066 0.606,0.066 0.679,0.079 0.801,0.093 0.969,0.11 1.133,0.132 1.269,0.145 1.371,0.152 1.442,0.164 1.484,0.164 1.492,0.161 1.469,0.156 1.414,0.144 1.324,0.129 1.207,0.11 1.078,0.093 0.961,0.071 0.86,0.054 0.777,0.043 0.711,0.032 0.656,0.019 0.621,0.012 0.602,0.004 0.594,0.004 5.066,0" /><path
         id="path106"
         style="fill:none;stroke:#aaaaaa;stroke-width:0.5;stroke-linecap:square;stroke-linejoin:miter;stroke-miterlimit:3.25;stroke-dasharray:none;stroke-opacity:1"
         d="m 566.148,364.184 0.266,0.031 0.738,0.082 1.137,0.133 1.449,0.164 1.676,0.195 1.828,0.211 1.891,0.215 1.875,0.215 1.773,0.207 1.598,0.183 1.344,0.153 1.101,0.129 0.903,0.101 0.753,0.086 0.649,0.074 0.586,0.071 0.57,0.066 0.606,0.066 0.679,0.079 0.801,0.093 0.969,0.11 1.133,0.132 1.269,0.145 1.371,0.152 1.442,0.164 1.484,0.164 1.492,0.161 1.469,0.156 1.414,0.144 1.324,0.129 1.207,0.11 1.078,0.093 0.961,0.071 0.86,0.054 0.777,0.043 0.711,0.032 0.656,0.019 0.621,0.012 0.602,0.004 0.594,0.004 5.066,0" /><path
         id="path108"
         style="fill:#ffffff;fill-opacity:0.66666697;fill-rule:nonzero;stroke:none"
         d="m 614.871,361.637 50,0 0,14 -50,0 0,-14 z" /><text
         id="text110"
         style="font-variant:normal;font-size:9px;font-family:CairoFont-0;-inkscape-font-specification:CairoFont-0-1;writing-mode:lr-tb;fill:#8778b3;fill-opacity:1;fill-rule:nonzero;stroke:none"
         transform="translate(616.87249,371.75228)"><tspan
           id="tspan112"
           y="0"
           x="0">■</tspan></text>
<text
         id="text114"
         style="font-variant:normal;font-size:9px;font-family:CairoFont-1;-inkscape-font-specification:CairoFont-1-0;writing-mode:lr-tb;fill:#000000;fill-opacity:1;fill-rule:nonzero;stroke:none"
         transform="translate(624.77483,371.75228)"><tspan
           id="tspan116"
           y="0"
           x="0 6.993 13.491 18.495001 25.992001">OCaml</tspan></text>
<path
         id="path118"
         style="fill:none;stroke:#000000;stroke-width:0.5;stroke-linecap:butt;stroke-linejoin:miter;stroke-miterlimit:3.25;stroke-dasharray:none;stroke-opacity:1"
         d="m 39.582,369.773 0,-2.41" /><path
         id="path120"
         style="fill:none;stroke:#000000;stroke-width:0.5;stroke-linecap:butt;stroke-linejoin:miter;stroke-miterlimit:3.25;stroke-dasharray:none;stroke-opacity:1"
         d="m 68.836,369.773 0,-2.41" /><path
         id="path122"
         style="fill:none;stroke:#000000;stroke-width:0.5;stroke-linecap:butt;stroke-linejoin:miter;stroke-miterlimit:3.25;stroke-dasharray:none;stroke-opacity:1"
         d="m 98.09,369.773 0,-2.41" /><path
         id="path124"
         style="fill:none;stroke:#000000;stroke-width:0.5;stroke-linecap:butt;stroke-linejoin:miter;stroke-miterlimit:3.25;stroke-dasharray:none;stroke-opacity:1"
         d="m 127.344,369.773 0,-4.015" /><text
         id="text126"
         style="font-variant:normal;font-size:9px;font-family:CairoFont-1;-inkscape-font-specification:CairoFont-1-0;writing-mode:lr-tb;fill:#000000;fill-opacity:1;fill-rule:nonzero;stroke:none"
         transform="translate(117.33023,380.91235)"><tspan
           id="tspan128"
           y="0"
           x="0 5.0040002 10.008 15.012">5000</tspan></text>
<path
         id="path130"
         style="fill:none;stroke:#000000;stroke-width:0.5;stroke-linecap:butt;stroke-linejoin:miter;stroke-miterlimit:3.25;stroke-dasharray:none;stroke-opacity:1"
         d="m 156.594,369.773 0,-2.41" /><path
         id="path132"
         style="fill:none;stroke:#000000;stroke-width:0.5;stroke-linecap:butt;stroke-linejoin:miter;stroke-miterlimit:3.25;stroke-dasharray:none;stroke-opacity:1"
         d="m 185.848,369.773 0,-2.41" /><path
         id="path134"
         style="fill:none;stroke:#000000;stroke-width:0.5;stroke-linecap:butt;stroke-linejoin:miter;stroke-miterlimit:3.25;stroke-dasharray:none;stroke-opacity:1"
         d="m 215.102,369.773 0,-2.41" /><path
         id="path136"
         style="fill:none;stroke:#000000;stroke-width:0.5;stroke-linecap:butt;stroke-linejoin:miter;stroke-miterlimit:3.25;stroke-dasharray:none;stroke-opacity:1"
         d="m 244.355,369.773 0,-2.41" /><path
         id="path138"
         style="fill:none;stroke:#000000;stroke-width:0.5;stroke-linecap:butt;stroke-linejoin:miter;stroke-miterlimit:3.25;stroke-dasharray:none;stroke-opacity:1"
         d="m 273.609,369.773 0,-4.015" /><text
         id="text140"
         style="font-variant:normal;font-size:9px;font-family:CairoFont-1;-inkscape-font-specification:CairoFont-1-0;writing-mode:lr-tb;fill:#000000;fill-opacity:1;fill-rule:nonzero;stroke:none"
         transform="translate(260.47079,380.91235)"><tspan
           id="tspan142"
           y="0"
           x="0 5.0040002 11.259 16.263 21.267">10000</tspan></text>
<path
         id="path144"
         style="fill:none;stroke:#000000;stroke-width:0.5;stroke-linecap:butt;stroke-linejoin:miter;stroke-miterlimit:3.25;stroke-dasharray:none;stroke-opacity:1"
         d="m 302.863,369.773 0,-2.41" /><path
         id="path146"
         style="fill:none;stroke:#000000;stroke-width:0.5;stroke-linecap:butt;stroke-linejoin:miter;stroke-miterlimit:3.25;stroke-dasharray:none;stroke-opacity:1"
         d="m 332.117,369.773 0,-2.41" /><path
         id="path148"
         style="fill:none;stroke:#000000;stroke-width:0.5;stroke-linecap:butt;stroke-linejoin:miter;stroke-miterlimit:3.25;stroke-dasharray:none;stroke-opacity:1"
         d="m 361.371,369.773 0,-2.41" /><path
         id="path150"
         style="fill:none;stroke:#000000;stroke-width:0.5;stroke-linecap:butt;stroke-linejoin:miter;stroke-miterlimit:3.25;stroke-dasharray:none;stroke-opacity:1"
         d="m 390.625,369.773 0,-2.41" /><path
         id="path152"
         style="fill:none;stroke:#000000;stroke-width:0.5;stroke-linecap:butt;stroke-linejoin:miter;stroke-miterlimit:3.25;stroke-dasharray:none;stroke-opacity:1"
         d="m 419.879,369.773 0,-4.015" /><text
         id="text154"
         style="font-variant:normal;font-size:9px;font-family:CairoFont-1;-inkscape-font-specification:CairoFont-1-0;writing-mode:lr-tb;fill:#000000;fill-opacity:1;fill-rule:nonzero;stroke:none"
         transform="translate(406.73904,380.91235)"><tspan
           id="tspan156"
           y="0"
           x="0 5.0040002 11.259 16.263 21.267">15000</tspan></text>
<path
         id="path158"
         style="fill:none;stroke:#000000;stroke-width:0.5;stroke-linecap:butt;stroke-linejoin:miter;stroke-miterlimit:3.25;stroke-dasharray:none;stroke-opacity:1"
         d="m 449.133,369.773 0,-2.41" /><path
         id="path160"
         style="fill:none;stroke:#000000;stroke-width:0.5;stroke-linecap:butt;stroke-linejoin:miter;stroke-miterlimit:3.25;stroke-dasharray:none;stroke-opacity:1"
         d="m 478.387,369.773 0,-2.41" /><path
         id="path162"
         style="fill:none;stroke:#000000;stroke-width:0.5;stroke-linecap:butt;stroke-linejoin:miter;stroke-miterlimit:3.25;stroke-dasharray:none;stroke-opacity:1"
         d="m 507.641,369.773 0,-2.41" /><path
         id="path164"
         style="fill:none;stroke:#000000;stroke-width:0.5;stroke-linecap:butt;stroke-linejoin:miter;stroke-miterlimit:3.25;stroke-dasharray:none;stroke-opacity:1"
         d="m 536.895,369.773 0,-2.41" /><path
         id="path166"
         style="fill:none;stroke:#000000;stroke-width:0.5;stroke-linecap:butt;stroke-linejoin:miter;stroke-miterlimit:3.25;stroke-dasharray:none;stroke-opacity:1"
         d="m 566.148,369.773 0,-4.015" /><text
         id="text168"
         style="font-variant:normal;font-size:9px;font-family:CairoFont-1;-inkscape-font-specification:CairoFont-1-0;writing-mode:lr-tb;fill:#000000;fill-opacity:1;fill-rule:nonzero;stroke:none"
         transform="translate(553.00729,380.91235)"><tspan
           id="tspan170"
           y="0"
           x="0 5.0040002 11.259 16.263 21.267">20000</tspan></text>
<path
         id="path172"
         style="fill:none;stroke:#000000;stroke-width:0.5;stroke-linecap:butt;stroke-linejoin:miter;stroke-miterlimit:3.25;stroke-dasharray:none;stroke-opacity:1"
         d="m 13.68,369.773 563.742,0" /><text
         id="text174"
         style="font-variant:normal;font-size:9px;font-family:CairoFont-3;-inkscape-font-specification:CairoFont-3-0;writing-mode:lr-tb;fill:#000000;fill-opacity:1;fill-rule:nonzero;stroke:none"
         transform="translate(585.42153,372.88892)"><tspan
           id="tspan176"
           y="0"
           x="0">n</tspan></text>
<path
         id="path178"
         style="fill:none;stroke:#000000;stroke-width:0.5;stroke-linecap:butt;stroke-linejoin:miter;stroke-miterlimit:3.25;stroke-dasharray:none;stroke-opacity:1"
         d="m 16.5,369.773 4.012,0" /><path
         id="path180"
         style="fill:none;stroke:#000000;stroke-width:0.5;stroke-linecap:butt;stroke-linejoin:miter;stroke-miterlimit:3.25;stroke-dasharray:none;stroke-opacity:1"
         d="m 16.5,360.492 2.406,0" /><path
         id="path182"
         style="fill:none;stroke:#000000;stroke-width:0.5;stroke-linecap:butt;stroke-linejoin:miter;stroke-miterlimit:3.25;stroke-dasharray:none;stroke-opacity:1"
         d="m 16.5,351.211 2.406,0" /><path
         id="path184"
         style="fill:none;stroke:#000000;stroke-width:0.5;stroke-linecap:butt;stroke-linejoin:miter;stroke-miterlimit:3.25;stroke-dasharray:none;stroke-opacity:1"
         d="m 16.5,341.934 2.406,0" /><path
         id="path186"
         style="fill:none;stroke:#000000;stroke-width:0.5;stroke-linecap:butt;stroke-linejoin:miter;stroke-miterlimit:3.25;stroke-dasharray:none;stroke-opacity:1"
         d="m 16.5,332.652 2.406,0" /><path
         id="path188"
         style="fill:none;stroke:#000000;stroke-width:0.5;stroke-linecap:butt;stroke-linejoin:miter;stroke-miterlimit:3.25;stroke-dasharray:none;stroke-opacity:1"
         d="m 16.5,323.375 4.012,0" /><text
         id="text190"
         style="font-variant:normal;font-size:9px;font-family:CairoFont-1;-inkscape-font-specification:CairoFont-1-0;writing-mode:lr-tb;fill:#000000;fill-opacity:1;fill-rule:nonzero;stroke:none"
         transform="translate(8.492188,326.49101)"><tspan
           id="tspan192"
           y="0"
           x="0">1</tspan></text>
<path
         id="path194"
         style="fill:none;stroke:#000000;stroke-width:0.5;stroke-linecap:butt;stroke-linejoin:miter;stroke-miterlimit:3.25;stroke-dasharray:none;stroke-opacity:1"
         d="m 16.5,314.094 2.406,0" /><path
         id="path196"
         style="fill:none;stroke:#000000;stroke-width:0.5;stroke-linecap:butt;stroke-linejoin:miter;stroke-miterlimit:3.25;stroke-dasharray:none;stroke-opacity:1"
         d="m 16.5,304.816 2.406,0" /><path
         id="path198"
         style="fill:none;stroke:#000000;stroke-width:0.5;stroke-linecap:butt;stroke-linejoin:miter;stroke-miterlimit:3.25;stroke-dasharray:none;stroke-opacity:1"
         d="m 16.5,295.535 2.406,0" /><path
         id="path200"
         style="fill:none;stroke:#000000;stroke-width:0.5;stroke-linecap:butt;stroke-linejoin:miter;stroke-miterlimit:3.25;stroke-dasharray:none;stroke-opacity:1"
         d="m 16.5,286.254 2.406,0" /><path
         id="path202"
         style="fill:none;stroke:#000000;stroke-width:0.5;stroke-linecap:butt;stroke-linejoin:miter;stroke-miterlimit:3.25;stroke-dasharray:none;stroke-opacity:1"
         d="m 16.5,276.977 4.012,0" /><text
         id="text204"
         style="font-variant:normal;font-size:9px;font-family:CairoFont-1;-inkscape-font-specification:CairoFont-1-0;writing-mode:lr-tb;fill:#000000;fill-opacity:1;fill-rule:nonzero;stroke:none"
         transform="translate(8.492188,280.09311)"><tspan
           id="tspan206"
           y="0"
           x="0">2</tspan></text>
<path
         id="path208"
         style="fill:none;stroke:#000000;stroke-width:0.5;stroke-linecap:butt;stroke-linejoin:miter;stroke-miterlimit:3.25;stroke-dasharray:none;stroke-opacity:1"
         d="m 16.5,267.695 2.406,0" /><path
         id="path210"
         style="fill:none;stroke:#000000;stroke-width:0.5;stroke-linecap:butt;stroke-linejoin:miter;stroke-miterlimit:3.25;stroke-dasharray:none;stroke-opacity:1"
         d="m 16.5,258.418 2.406,0" /><path
         id="path212"
         style="fill:none;stroke:#000000;stroke-width:0.5;stroke-linecap:butt;stroke-linejoin:miter;stroke-miterlimit:3.25;stroke-dasharray:none;stroke-opacity:1"
         d="m 16.5,249.137 2.406,0" /><path
         id="path214"
         style="fill:none;stroke:#000000;stroke-width:0.5;stroke-linecap:butt;stroke-linejoin:miter;stroke-miterlimit:3.25;stroke-dasharray:none;stroke-opacity:1"
         d="m 16.5,239.859 2.406,0" /><path
         id="path216"
         style="fill:none;stroke:#000000;stroke-width:0.5;stroke-linecap:butt;stroke-linejoin:miter;stroke-miterlimit:3.25;stroke-dasharray:none;stroke-opacity:1"
         d="m 16.5,230.578 4.012,0" /><text
         id="text218"
         style="font-variant:normal;font-size:9px;font-family:CairoFont-1;-inkscape-font-specification:CairoFont-1-0;writing-mode:lr-tb;fill:#000000;fill-opacity:1;fill-rule:nonzero;stroke:none"
         transform="translate(8.492188,233.6952)"><tspan
           id="tspan220"
           y="0"
           x="0">3</tspan></text>
<path
         id="path222"
         style="fill:none;stroke:#000000;stroke-width:0.5;stroke-linecap:butt;stroke-linejoin:miter;stroke-miterlimit:3.25;stroke-dasharray:none;stroke-opacity:1"
         d="m 16.5,221.297 2.406,0" /><path
         id="path224"
         style="fill:none;stroke:#000000;stroke-width:0.5;stroke-linecap:butt;stroke-linejoin:miter;stroke-miterlimit:3.25;stroke-dasharray:none;stroke-opacity:1"
         d="m 16.5,212.02 2.406,0" /><path
         id="path226"
         style="fill:none;stroke:#000000;stroke-width:0.5;stroke-linecap:butt;stroke-linejoin:miter;stroke-miterlimit:3.25;stroke-dasharray:none;stroke-opacity:1"
         d="m 16.5,202.738 2.406,0" /><path
         id="path228"
         style="fill:none;stroke:#000000;stroke-width:0.5;stroke-linecap:butt;stroke-linejoin:miter;stroke-miterlimit:3.25;stroke-dasharray:none;stroke-opacity:1"
         d="m 16.5,193.461 2.406,0" /><path
         id="path230"
         style="fill:none;stroke:#000000;stroke-width:0.5;stroke-linecap:butt;stroke-linejoin:miter;stroke-miterlimit:3.25;stroke-dasharray:none;stroke-opacity:1"
         d="m 16.5,184.18 4.012,0" /><text
         id="text232"
         style="font-variant:normal;font-size:9px;font-family:CairoFont-1;-inkscape-font-specification:CairoFont-1-0;writing-mode:lr-tb;fill:#000000;fill-opacity:1;fill-rule:nonzero;stroke:none"
         transform="translate(8.492188,187.2973)"><tspan
           id="tspan234"
           y="0"
           x="0">4</tspan></text>
<path
         id="path236"
         style="fill:none;stroke:#000000;stroke-width:0.5;stroke-linecap:butt;stroke-linejoin:miter;stroke-miterlimit:3.25;stroke-dasharray:none;stroke-opacity:1"
         d="m 16.5,174.902 2.406,0" /><path
         id="path238"
         style="fill:none;stroke:#000000;stroke-width:0.5;stroke-linecap:butt;stroke-linejoin:miter;stroke-miterlimit:3.25;stroke-dasharray:none;stroke-opacity:1"
         d="m 16.5,165.621 2.406,0" /><path
         id="path240"
         style="fill:none;stroke:#000000;stroke-width:0.5;stroke-linecap:butt;stroke-linejoin:miter;stroke-miterlimit:3.25;stroke-dasharray:none;stroke-opacity:1"
         d="m 16.5,156.34 2.406,0" /><path
         id="path242"
         style="fill:none;stroke:#000000;stroke-width:0.5;stroke-linecap:butt;stroke-linejoin:miter;stroke-miterlimit:3.25;stroke-dasharray:none;stroke-opacity:1"
         d="m 16.5,147.062 2.406,0" /><path
         id="path244"
         style="fill:none;stroke:#000000;stroke-width:0.5;stroke-linecap:butt;stroke-linejoin:miter;stroke-miterlimit:3.25;stroke-dasharray:none;stroke-opacity:1"
         d="m 16.5,137.781 4.012,0" /><text
         id="text246"
         style="font-variant:normal;font-size:9px;font-family:CairoFont-1;-inkscape-font-specification:CairoFont-1-0;writing-mode:lr-tb;fill:#000000;fill-opacity:1;fill-rule:nonzero;stroke:none"
         transform="translate(8.492188,140.89939)"><tspan
           id="tspan248"
           y="0"
           x="0">5</tspan></text>
<path
         id="path250"
         style="fill:none;stroke:#000000;stroke-width:0.5;stroke-linecap:butt;stroke-linejoin:miter;stroke-miterlimit:3.25;stroke-dasharray:none;stroke-opacity:1"
         d="m 16.5,128.504 2.406,0" /><path
         id="path252"
         style="fill:none;stroke:#000000;stroke-width:0.5;stroke-linecap:butt;stroke-linejoin:miter;stroke-miterlimit:3.25;stroke-dasharray:none;stroke-opacity:1"
         d="m 16.5,119.223 2.406,0" /><path
         id="path254"
         style="fill:none;stroke:#000000;stroke-width:0.5;stroke-linecap:butt;stroke-linejoin:miter;stroke-miterlimit:3.25;stroke-dasharray:none;stroke-opacity:1"
         d="m 16.5,109.945 2.406,0" /><path
         id="path256"
         style="fill:none;stroke:#000000;stroke-width:0.5;stroke-linecap:butt;stroke-linejoin:miter;stroke-miterlimit:3.25;stroke-dasharray:none;stroke-opacity:1"
         d="m 16.5,100.664 2.406,0" /><path
         id="path258"
         style="fill:none;stroke:#000000;stroke-width:0.5;stroke-linecap:butt;stroke-linejoin:miter;stroke-miterlimit:3.25;stroke-dasharray:none;stroke-opacity:1"
         d="m 16.5,91.383 4.012,0" /><text
         id="text260"
         style="font-variant:normal;font-size:9px;font-family:CairoFont-1;-inkscape-font-specification:CairoFont-1-0;writing-mode:lr-tb;fill:#000000;fill-opacity:1;fill-rule:nonzero;stroke:none"
         transform="translate(8.492188,94.501491)"><tspan
           id="tspan262"
           y="0"
           x="0">6</tspan></text>
<path
         id="path264"
         style="fill:none;stroke:#000000;stroke-width:0.5;stroke-linecap:butt;stroke-linejoin:miter;stroke-miterlimit:3.25;stroke-dasharray:none;stroke-opacity:1"
         d="m 16.5,82.105 2.406,0" /><path
         id="path266"
         style="fill:none;stroke:#000000;stroke-width:0.5;stroke-linecap:butt;stroke-linejoin:miter;stroke-miterlimit:3.25;stroke-dasharray:none;stroke-opacity:1"
         d="m 16.5,72.824 2.406,0" /><path
         id="path268"
         style="fill:none;stroke:#000000;stroke-width:0.5;stroke-linecap:butt;stroke-linejoin:miter;stroke-miterlimit:3.25;stroke-dasharray:none;stroke-opacity:1"
         d="m 16.5,63.547 2.406,0" /><path
         id="path270"
         style="fill:none;stroke:#000000;stroke-width:0.5;stroke-linecap:butt;stroke-linejoin:miter;stroke-miterlimit:3.25;stroke-dasharray:none;stroke-opacity:1"
         d="m 16.5,54.266 2.406,0" /><path
         id="path272"
         style="fill:none;stroke:#000000;stroke-width:0.5;stroke-linecap:butt;stroke-linejoin:miter;stroke-miterlimit:3.25;stroke-dasharray:none;stroke-opacity:1"
         d="m 16.5,44.988 4.012,0" /><text
         id="text274"
         style="font-variant:normal;font-size:9px;font-family:CairoFont-1;-inkscape-font-specification:CairoFont-1-0;writing-mode:lr-tb;fill:#000000;fill-opacity:1;fill-rule:nonzero;stroke:none"
         transform="translate(8.492188,48.103587)"><tspan
           id="tspan276"
           y="0"
           x="0">7</tspan></text>
<path
         id="path278"
         style="fill:none;stroke:#000000;stroke-width:0.5;stroke-linecap:butt;stroke-linejoin:miter;stroke-miterlimit:3.25;stroke-dasharray:none;stroke-opacity:1"
         d="m 16.5,35.707 2.406,0" /><path
         id="path280"
         style="fill:none;stroke:#000000;stroke-width:0.5;stroke-linecap:butt;stroke-linejoin:miter;stroke-miterlimit:3.25;stroke-dasharray:none;stroke-opacity:1"
         d="m 16.5,376.738 0,-348.41" /><text
         id="text282"
         style="font-variant:normal;font-size:9px;font-family:CairoFont-1;-inkscape-font-specification:CairoFont-1-0;writing-mode:lr-tb;fill:#000000;fill-opacity:1;fill-rule:nonzero;stroke:none"
         transform="translate(0,20.421875)"><tspan
           id="tspan284"
           y="0"
           x="0 5.4899998 7.4879999 14.985">Time</tspan></text>
<text
         id="text286"
         style="font-variant:normal;font-size:9px;font-family:CairoFont-2;-inkscape-font-specification:CairoFont-2-0;writing-mode:lr-tb;fill:#000000;fill-opacity:1;fill-rule:nonzero;stroke:none"
         transform="translate(22.491,20.421875)"><tspan
           id="tspan288"
           y="0"
           x="0">(</tspan></text>
<text
         id="text290"
         style="font-variant:normal;font-size:9px;font-family:CairoFont-1;-inkscape-font-specification:CairoFont-1-0;writing-mode:lr-tb;fill:#000000;fill-opacity:1;fill-rule:nonzero;stroke:none"
         transform="translate(25.488,20.421875)"><tspan
           id="tspan292"
           y="0"
           x="0">s</tspan></text>
<text
         id="text294"
         style="font-variant:normal;font-size:9px;font-family:CairoFont-2;-inkscape-font-specification:CairoFont-2-0;writing-mode:lr-tb;fill:#000000;fill-opacity:1;fill-rule:nonzero;stroke:none"
         transform="translate(29.988,20.421875)"><tspan
           id="tspan296"
           y="0"
           x="0">)</tspan></text>
<text
         id="text298"
         style="font-variant:normal;font-size:10.79980469px;font-family:CairoFont-1;-inkscape-font-specification:CairoFont-1-0;writing-mode:lr-tb;fill:#000000;fill-opacity:1;fill-rule:nonzero;stroke:none"
         transform="translate(152.25014,9.953125)"><tspan
           id="tspan300"
           y="0"
           x="0 7.1926703 9.5902271 14.990129 23.997168 30.001858 35.99575 38.987297 44.991989 48.588322">Sizeofterm</tspan></text>
<text
         id="text302"
         style="font-variant:normal;font-size:10.79980469px;font-family:CairoFont-2;-inkscape-font-specification:CairoFont-2-0;writing-mode:lr-tb;fill:#000000;fill-opacity:1;fill-rule:nonzero;stroke:none"
         transform="translate(212.83705,9.953125)"><tspan
           id="tspan304"
           y="0"
           x="0">(</tspan></text>
<text
         id="text306"
         style="font-variant:normal;font-size:10.79980469px;font-family:CairoFont-1;-inkscape-font-specification:CairoFont-1-0;writing-mode:lr-tb;fill:#000000;fill-opacity:1;fill-rule:nonzero;stroke:none"
         transform="translate(216.43338,9.953125)"><tspan
           id="tspan308"
           y="0"
           x="0 7.7974591 10.195016 13.186562 22.1828 28.18749 30.585049 36.589741 42.594429 48.599121 52.195457">withbinders</tspan></text>
<text
         id="text310"
         style="font-variant:normal;font-size:10.79980469px;font-family:CairoFont-2;-inkscape-font-specification:CairoFont-2-0;writing-mode:lr-tb;fill:#000000;fill-opacity:1;fill-rule:nonzero;stroke:none"
         transform="translate(274.02874,9.953125)"><tspan
           id="tspan312"
           y="0"
           x="0">)</tspan></text>
<text
         id="text314"
         style="font-variant:normal;font-size:10.79980469px;font-family:CairoFont-1;-inkscape-font-specification:CairoFont-1-0;writing-mode:lr-tb;fill:#000000;fill-opacity:1;fill-rule:nonzero;stroke:none"
         transform="translate(280.62743,9.953125)"><tspan
           id="tspan316"
           y="0"
           x="0 5.3999023 13.802151 21.599609 27.604301 30.001858 32.993404 35.390961 40.790863 46.795555 49.787102 52.184658 58.18935">vsReification</tspan></text>
<text
         id="text318"
         style="font-variant:normal;font-size:10.79980469px;font-family:CairoFont-2;-inkscape-font-specification:CairoFont-2-0;writing-mode:lr-tb;fill:#000000;fill-opacity:1;fill-rule:nonzero;stroke:none"
         transform="translate(344.82147,9.953125)"><tspan
           id="tspan320"
           y="0"
           x="0">+</tspan></text>
<text
         id="text322"
         style="font-variant:normal;font-size:10.79980469px;font-family:CairoFont-1;-inkscape-font-specification:CairoFont-1-0;writing-mode:lr-tb;fill:#000000;fill-opacity:1;fill-rule:nonzero;stroke:none"
         transform="translate(351.11775,9.953125)"><tspan
           id="tspan324"
           y="0"
           x="0 6.0046916 12.009383 15.605719 24.601955 30.606647 33.004204 35.40176 40.801662 46.806355 49.797901 52.195457 58.20015 67.207184 70.19873 72.596291 81.592529">normalizationtime</tspan></text>
</g></g></svg>