<?xml version="1.0" encoding="UTF-8" standalone="no"?>
<svg
   xmlns:dc="http://purl.org/dc/elements/1.1/"
   xmlns:cc="http://creativecommons.org/ns#"
   xmlns:rdf="http://www.w3.org/1999/02/22-rdf-syntax-ns#"
   xmlns:svg="http://www.w3.org/2000/svg"
   xmlns="http://www.w3.org/2000/svg"
   viewBox="0 0 1000 485"
   height="485"
   width="1000"
   xml:space="preserve"
   version="1.1"
   id="svg2"><metadata
     id="metadata8"><rdf:RDF><cc:Work
         rdf:about=""><dc:format>image/svg+xml</dc:format><dc:type
           rdf:resource="http://purl.org/dc/dcmitype/StillImage" /></cc:Work></rdf:RDF></metadata><defs
     id="defs6" /><g
     transform="scale(1.25,1.25)"
     id="g10"><g
       id="g12"><path
         id="path14"
         style="fill:none;stroke:#5e81b5;stroke-width:1.60000002;stroke-linecap:square;stroke-linejoin:miter;stroke-miterlimit:3.25;stroke-dasharray:none;stroke-opacity:1"
         d="m 40,176.031 1.359,-8.687 1.348,-1.461 1.344,5.07 1.332,-0.68 1.32,-1.007 1.317,-2.454 1.308,8.395 1.297,-2.594 1.289,-1.922 1.281,-24.019 1.274,15.074 1.269,6.777 1.258,-0.214 1.25,-0.243 1.242,-0.511 1.235,-1.297 1.23,2.082 1.219,-8.094 1.215,2.363 1.207,0.61 1.199,0.269 1.191,-1.3 1.184,-4.524 1.18,-2.004 1.172,1.149 1.164,0 1.16,0.207 1.152,3.632 1.145,-0.675 1.14,-0.121 1.133,-0.614 1.125,-1.644 1.121,1.472 1.113,1.707 1.11,-1.339 1.101,0 1.098,-0.536 1.09,0.243 1.082,-0.34 1.082,0.144 1.07,-0.168 1.071,-0.117 1.062,-0.289 1.055,0.793 1.051,0.391 1.046,-5.7 1.039,1.715 1.036,-0.199 1.031,-0.527 1.027,-1.364 5.047,-0.281 4.926,-4.726 4.812,-44.524 4.7,41.121 4.597,1.09 4.492,-1.14 4.399,-0.575 4.305,-2.066 4.214,-1.41 4.133,-0.871 4.047,-1.625 3.973,-0.934 3.894,-1.238 3.821,-1.692 3.754,-0.238 3.683,-0.09 3.617,-2.097 3.559,-1.664 3.496,-0.497 3.434,-1.312 3.378,-1.477 3.329,0.7 3.269,-2.075 3.219,-0.816 3.172,-0.731 3.121,-2.015 3.074,-3.18 3.031,-0.207 2.985,-1.312 2.941,-0.961 2.902,-2.645 2.86,-1.125 2.82,-0.32 2.781,-2.078 2.746,-1.055 2.707,0.504 2.672,1.102 2.641,-0.313 2.602,-0.469 2.574,-1.437 2.539,-1.192 2.508,0.371 2.48,-1.015 2.449,-1.129 2.418,0.434 2.391,-2.176 2.363,0.351 2.34,-1.711 2.309,0.055 2.285,-22.422 2.258,19.453 2.234,-2.097 2.211,-1.926 2.187,0.941 2.165,-2.156 2.14,-2.297 2.121,0.961 2.098,2.121 2.074,-0.734 2.055,-0.906 2.035,-2.641 2.016,0.117 1.992,-0.258" /><path
         id="path16"
         style="fill:none;stroke:#e19c24;stroke-width:1.60000002;stroke-linecap:square;stroke-linejoin:miter;stroke-miterlimit:3.25;stroke-dasharray:none;stroke-opacity:1"
         d="m 40,223.219 1.359,-21.852 1.348,6.938 1.344,14.312 1.332,-9.176 1.32,8.164 1.317,-0.66 1.308,-0.879 1.297,-0.222 1.289,-8.563 1.281,7.465 1.274,-0.582 1.269,-0.691 1.258,-0.328 1.25,-7.301 1.242,6.051 1.235,-0.375 1.23,-11.208 1.219,10.133 1.215,-6.961 1.207,5.614 1.199,-1.317 1.191,-0.937 1.184,0.168 1.18,0.211 1.172,-2.196 1.164,-9.425 1.16,10.086 1.152,-3.602 1.145,2.547 1.14,-1.778 1.133,-1.531 1.125,1.238 1.121,-0.046 1.113,-6.371 1.11,4.148 1.101,0.777 1.098,-5.675 1.09,-4.872 1.082,8.95 1.082,-1.555 1.07,-5.328 1.071,5.199 1.062,-0.172 1.055,-3.875 1.051,-4.535 1.046,6.938 1.039,-0.766 1.036,-4.77 1.031,-2.918 1.027,5.848 5.047,-1.473 4.926,-6.039 4.812,-1.5 4.7,0.879 4.597,-2.187 4.492,-2.403 4.399,-7.82 4.305,-1.308 4.214,-4.032 4.133,-1.699 4.047,-1.535 3.973,-0.098 3.894,-1.406 3.821,-0.559 3.754,0.325 3.683,-1.844 3.617,-4.578 3.559,1.851 3.496,-1.992 3.434,-0.531 3.378,-1.668 3.329,-1.246 3.269,-2.219 3.219,-3.473 3.172,0.149 3.121,-1.301 3.074,0.152 3.031,-1.492 2.985,-5.781 2.941,-0.594 2.902,1.715 2.86,-5.785 2.82,1.891 2.781,0.535 2.746,-2.477 2.707,-0.426 2.672,-5.363 2.641,1.555 2.602,-3.403 2.574,1.629 2.539,-0.656 2.508,-2.555 2.48,-0.757 2.449,-1.485 2.418,-4.629 2.391,3.188 2.363,-3.887 2.34,1.34 2.309,-3.039 2.285,-1.27 2.258,1.047 2.234,-2.23 2.211,-4.559 2.187,0.692 2.165,0.878 2.14,-1.14 2.121,-3.418 2.098,0.293 2.074,-0.375 2.055,-0.574 2.035,-4.403 2.016,-1.078 1.992,-0.664 1.976,0.234 1.957,-1.843 1.938,-2.02 1.922,-0.98 1.898,-1.153 1.887,-0.562 1.867,-0.274 1.852,-1.16 1.832,-0.461 1.816,-1.258 1.805,-0.585 1.785,-1.805 1.769,-0.625 1.754,-0.606 1.743,-1.203 1.722,0.578 1.711,-2.363 1.699,-1.855 1.684,1.211 1.668,-2.079 1.656,0.032 1.641,-1.067 1.629,-0.254 1.617,-1.734 1.605,0.496 1.59,-1.769 1.578,0.41 1.567,-2.188 1.554,0.633 1.543,-1.367 1.536,-2.473 1.519,0.11 1.508,-0.653 1.496,-0.207 1.488,-0.351 1.477,-2.34 1.465,0.406 1.457,-1.977 1.445,-0.617 1.434,0.438 1.425,-0.414 1.414,-1.157 1.407,0.004 1.394,-0.714 1.387,-1.094 1.379,-0.18 1.367,-1.031 1.359,-0.543 1.348,-0.031 1.34,-0.629 1.332,-0.985 1.324,-0.019 1.317,-0.574 1.304,-1.18 1.297,-7.871 1.293,7.422 1.281,-0.532 1.274,-1.304 1.265,0.07 1.258,-4.422 1.25,3.047 1.246,0.172 1.235,-1.582 1.226,-0.465 1.223,-0.789 1.211,-0.371 1.207,0.156 1.199,-1.523 1.191,-0.407 1.188,-0.789 1.18,-0.043 1.172,0.024 1.164,-1.555 1.156,-0.14 1.152,-0.176 1.149,-0.321 2.269,-1.382 2.246,0.226 1.117,-1.711 1.106,0.606 1.105,-1.489 1.094,0.84 2.176,-0.73" /><path
         id="path18"
         style="fill:none;stroke:#8fb032;stroke-width:1.60000002;stroke-linecap:square;stroke-linejoin:miter;stroke-miterlimit:3.25;stroke-dasharray:none;stroke-opacity:1"
         d="m 40,226.066 1.359,0.973 1.348,-10.605 1.344,6.984 1.332,0.391 1.32,1.699 1.317,-3.696 1.308,-2.515 1.297,4.867 1.289,-5.832 1.281,1.828 1.274,2.949 1.269,-5.461 1.258,1.375 1.25,3.567 1.242,-1.727 1.235,-4.316 1.23,6.215 1.219,-2.367 1.215,0.726 1.207,-0.871 1.199,-4.141 1.191,-3.386 1.184,6.476 1.18,1.516 1.172,-2.418 1.164,1.144 1.16,-1.554 1.152,1.355 1.145,-2.379 1.14,0.391 1.133,-0.609 1.125,0.25 1.121,-0.122 1.113,0.899 1.11,-0.918 1.101,0.93 1.098,-1.36 1.09,-7.633 1.082,6.723 1.082,-1.922 1.07,-2.066 1.071,3.758 1.062,1.039 1.055,-0.727 1.051,-2.035 1.046,-1.809 1.039,2.668 1.036,-6.859 1.031,4.316 1.027,0.77 5.047,-5.758 4.926,3.188 4.812,1.203 4.7,-1.207 4.597,-0.328 4.492,-5.34 4.399,-5.805 4.305,-0.086 4.214,0.082 4.133,1.813 4.047,-0.684 3.973,4.34 3.894,-1.203 3.821,0.144 3.754,-6.754 3.683,1.129 3.617,2.797 3.559,-4.598 3.496,-0.75 3.434,-3.078 3.378,3.653 3.329,-2.59 3.269,-0.777 3.219,2.425 3.172,-5.425 3.121,2.363 3.074,1.015 3.031,-1.105 2.985,-0.68 2.941,-7.687 2.902,-1.078 2.86,0.703 2.82,-0.028 2.781,0.118 2.746,1.043 2.707,4.753 2.672,-1.515 2.641,-0.063 2.602,-6.879 2.574,2.735 2.539,2.402 2.508,-5.367 2.48,0.289 2.449,-3.777 2.418,3.672 2.391,-3.2 2.363,-0.734 2.34,4.766 2.309,-6.926 2.285,4.906 2.258,2.527 2.234,-3.957 2.211,-3.117 2.187,-1.621 2.165,-4.191 2.14,-0.743 2.121,-0.359 2.098,0.629 2.074,0.945 2.055,3.934 2.035,1.43 2.016,1.648 1.992,-0.762 1.976,-7.269 1.957,6.265 1.938,-0.632 1.922,-4.371 1.898,4.343 1.887,-5.457 1.867,5.137 1.852,-4.141 1.832,-5.476 1.816,9.179 1.805,-4.789 1.785,-3.394 1.769,-2.703 1.754,9.758 1.743,-2.618 1.722,-0.359 1.711,-0.02 1.699,-0.593 1.684,-0.09 1.668,-0.774 1.656,0.184 1.641,-8.75 1.629,2.457 1.617,2.391 1.605,2.621 1.59,-8.031 1.578,4.625 1.567,3.082 1.554,-4.211 1.543,3.222 1.536,-2.726 1.519,-8.028 1.508,7.703 1.496,-5.292 1.488,6.136 1.477,-0.531 1.465,-3.168 1.457,-3.664 1.445,-0.523 1.434,-1.184 1.425,-0.723 1.414,-0.621 1.407,0.235 1.394,0.484 1.387,0.855 1.379,1.567 1.367,0.715 1.359,3.25 1.348,-7.817 1.34,2.781 1.332,2.418 1.324,-4.988 1.317,4.102 1.304,-4.36 1.297,3.813 1.293,-3.559 1.281,5.145 1.274,-4.274 1.265,-4.336 1.258,8.903 1.25,-3.016 1.246,-1.566 1.235,-2.434 1.226,-1.691 1.223,-1.574 1.211,-0.969 1.207,0.308 1.199,0.926 1.191,0.531 1.188,1.321 1.18,4.062 1.172,-8.742 1.164,1.465 1.156,2.301 1.152,5.254 1.149,-7.649 1.136,3.75" /><path
         id="path20"
         style="fill:none;stroke:#eb6235;stroke-width:1.60000002;stroke-linecap:square;stroke-linejoin:miter;stroke-miterlimit:3.25;stroke-dasharray:none;stroke-opacity:1"
         d="m 40,329.605 1.359,0.688 1.348,-0.781 1.344,-1.395 1.332,-2.301 1.32,1.375 1.317,-1.109 1.308,-19.945 1.297,21.886 1.289,-2.058 1.281,1.199 1.274,-0.633 1.269,0.239 1.258,-0.954 1.25,-0.027 1.242,-0.586 1.235,1.027 1.23,-1.312 1.219,-7.93 1.215,7.586 1.207,0.43 1.199,-0.602 1.191,-1.121 1.184,-36.09 1.18,36.008 1.172,-0.355 1.164,-6.024 1.16,5.723 1.152,0.383 1.145,-0.707 1.14,-0.399 1.133,0.028 1.125,-0.743 1.121,-14.714 1.113,8.863 1.11,5.773 1.101,-0.925 1.098,-0.61 1.09,1.485 1.082,-9.079 1.082,6.75 1.07,1.25 1.071,-1.664 1.062,-0.074 1.055,-7.066 1.051,6.437 1.046,0.098 1.039,-13.305 1.036,12.614 1.031,-7.028 1.027,6.445 5.047,-1.031 4.926,-0.136 4.812,-0.626 4.7,-1.781 4.597,-0.781 4.492,-1.75 4.399,-2.062 4.305,-0.918 4.214,0.449 4.133,-0.891 4.047,-23.016 3.973,20.739 3.894,-0.723 3.821,-1.351 3.754,-0.493 3.683,-13.839 3.617,4.191 3.559,7.887 3.496,-0.618 3.434,-0.71 3.378,-1.29 3.329,-5.449 3.269,4.403 3.219,-0.2 3.172,-15.339 3.121,13.777 3.074,-0.66 3.031,-7.305 2.985,-7.082 2.941,13.254 2.902,-1.149 2.86,-16.316 2.82,16.758 2.781,-19.051 2.746,17.074 2.707,-12.015 2.672,11.031 2.641,-0.668 2.602,-0.738 2.574,-6.668 2.539,-14.559 2.508,20.141 2.48,-0.824 2.449,-0.5 2.418,-0.332 2.391,-0.458 2.363,-0.98 2.34,-5.758 2.309,-5.719 2.285,-13.683 2.258,23.953 2.234,-0.605 2.211,-0.403 2.187,-0.859 2.165,-0.141 2.14,-0.351 2.121,-0.778 2.098,-0.715 2.074,-22.175 2.055,13.019 2.035,-3.816 2.016,11.258 1.992,-0.442 1.976,-0.394 1.957,-0.188 1.938,-20.703 1.922,-0.293 1.898,8.668 1.887,10.012 1.867,-0.032 1.852,-0.636 1.832,-10.781 1.816,9.585 1.805,-20.324 1.785,12.281 1.769,-3.605 1.754,10.461 1.743,-0.113 1.722,-12.489 1.711,2.965 1.699,9.008 1.684,-9.801 1.668,8.395 1.656,-6.942 1.641,-1.996 1.629,8.266 1.617,-35.473 1.605,29.489 1.59,5.359 1.578,-6.391 1.567,-2.562 1.554,1.414 1.543,6.012 1.536,-19.899 1.519,19.078 1.508,-26.246 1.496,25.82 1.488,-13.062 1.477,5.449 1.465,0.703 1.457,-4.816 1.445,5.16 1.434,-12.836 1.425,16.738 1.414,-19.289 1.407,18.993 1.394,-5.434 1.387,4.98 1.379,-0.5 1.367,-7.656 1.359,-11.324 1.348,17.84 1.34,-16.043 1.332,16.055 1.324,-5.657 1.317,0.403 1.304,-17.016 1.297,2.066 1.293,18.25 1.281,-11.433 1.274,-3.281 1.265,14.234 1.258,-7.981 1.25,4.286 1.246,-3.59 1.235,-15.867 1.226,22.113 1.223,-0.754 1.211,-4.906 1.207,-14.496 1.199,12.738 1.191,-0.051 1.188,-12.144 1.18,-12.481 1.172,30.074 1.164,-0.55 1.156,-4.598 1.152,-2.93 1.149,-11.301 1.136,17.946 1.133,-0.332 1.129,0.008 1.117,-6.309 1.117,-0.809 1.106,-5.668 1.105,-6.121 1.094,17.442 1.09,-0.024 1.086,-19.086 1.078,4.004 1.074,6.321 1.067,2.636 1.062,-4.871 1.059,4.609 1.051,-0.593 1.046,-0.821 1.039,-19.679 1.036,11.156 1.031,3.148 1.023,5.317 2.036,-0.215 2.015,-14.824 1.992,12.375 1.977,0.832 1.957,4.953 1.937,-26.125 1.922,11.07 1.903,8.422 1.882,-4.687 1.868,9.234 1.851,-29.867 1.832,17.996 1.821,-12.09 1.8,17.199 1.785,-17.797 1.77,13.911 1.754,-20.915 1.742,22.446 1.727,-1.574 1.711,-19.274 1.695,17.418 1.683,-7.016 1.668,-5.042 1.657,6.23 1.64,3.23 1.633,-8.789 1.613,0.465 1.606,9.739 1.59,1.515 1.578,-5.051 1.57,-6.898 1.555,7.894 1.543,-8.152 1.531,-3.828 1.52,-9.094 1.507,13.047 1.5,-5.086 1.485,-0.277 1.476,-3.75 1.469,-2.367 1.453,19.058 1.446,-3.754 1.433,0.09 1.426,-2.926 1.414,8.356 1.406,-17.891 1.395,7.879 1.386,0.809 1.379,2.894 1.368,-10.476 1.359,9.027 1.348,-0.566 1.339,-16.653 1.333,16.461 1.324,0.067 1.316,-16.411 1.305,9.075 1.301,-2.617 1.289,6.683 1.281,-5.406 1.273,-4.719 1.266,3.82 1.258,5.743 1.254,-12.442 1.242,-2.293 1.234,14.578 1.227,-12.3 1.222,16.32 1.215,-0.895 1.203,-7.441 1.2,-6.711 1.195,6.949 1.184,3.887 1.179,-4.531 1.172,-1.227 1.164,-6.234 1.16,2.289 1.149,11.644 1.148,-13.082 1.137,8.575 1.133,0.519 1.129,-8.988 1.121,7.953 1.113,0.516 1.109,-7.758 1.102,-5.473 1.094,-1.293 1.093,5.219 1.082,1.148 1.079,-0.109 1.074,1.898 1.07,-11.074 1.059,2.313 1.058,5.851 1.051,9.242 1.047,-0.394 1.039,-8.152 1.035,8.062 1.031,0.582 1.024,-8.012" /><path
         id="path22"
         style="fill:none;stroke:#8778b3;stroke-width:1.60000002;stroke-linecap:square;stroke-linejoin:miter;stroke-miterlimit:3.25;stroke-dasharray:none;stroke-opacity:1"
         d="m 40,349.488 1.359,1.953 1.348,-3.718 1.344,0.773 1.332,3.906 1.32,-4.679 1.317,-1.043 1.308,0.472 1.297,-1.304 1.289,-0.457 1.281,1.949 1.274,-0.094 1.269,-0.191 1.258,-1.301 1.25,-0.543 1.242,-0.449 1.235,0.359 1.23,-0.625 1.219,-0.266 1.215,0.801 1.207,-0.535 1.199,-0.617 1.191,-0.777 1.184,-1.676 1.18,-0.164 1.172,1.754 1.164,-2.723 1.16,1.297 1.152,-1.215 1.145,0.805 1.14,0.66 1.133,0.082 1.125,-1.707 1.121,-1.102 1.113,1.02 1.11,-2.688 1.101,3.25 1.098,6.172 1.09,-7.285 1.082,1.113 1.082,-1.269 1.07,1.429 1.071,-1.429 1.062,-2.496 1.055,2.418 1.051,-30.891 1.046,28.84 1.039,1.586 1.036,-0.153 1.031,-0.91 1.027,-0.672 5.047,-2.293 4.926,-0.828 4.812,-1.211 4.7,1.075 4.597,-34.703 4.492,30.144 4.399,-0.184 4.305,-1.363 4.214,0.707 4.133,-2.812 4.047,-0.825 3.973,-2.062 3.894,-0.051 3.821,-2.304 3.754,-0.626 3.683,-1.828 3.617,-0.316 3.559,-2.68 3.496,7.907 3.434,-8.204 3.378,-0.293 3.329,-0.25 3.269,-1.671 3.219,-23.122 3.172,19.723 3.121,0.402 3.074,-1.773 3.031,0 2.985,-0.316 2.941,-1.11 2.902,-1.804 2.86,0.558 2.82,-41.976 2.781,40.671 2.746,-1.136 2.707,1.851 2.672,-3.05 2.641,-0.422 2.602,-1.239 2.574,2.118 2.539,-3.204 2.508,0.426 2.48,-2.035 2.449,1.465 2.418,2.832 2.391,-4.484 2.363,0.027 2.34,0.297 2.309,-1.864 2.285,0.157 2.258,0.211 2.234,5.656 2.211,-47.891 2.187,40.211 2.165,-0.937 2.14,0.246 2.121,-0.172 2.098,-0.461 2.074,-1.609 2.055,-0.668 2.035,-0.903 2.016,1.016 1.992,0.301 1.976,-0.688 1.957,-0.582 1.938,-0.402 1.922,-1.559 1.898,-0.468 1.887,-0.208 1.867,1.102 1.852,-0.105 1.832,-1.164 1.816,0 1.805,0.144 1.785,-44.781 1.769,26.406 1.754,19.801 1.743,-2.82 1.722,-1.989 1.711,1.348 1.699,-0.809 1.684,-0.191 1.668,7.012 1.656,-7.629 1.641,-0.754 1.629,0.055 1.617,-0.579 1.605,3.797 1.59,-4.238 1.578,-0.09 1.567,-0.254 1.554,3.621 1.543,-4.855 1.536,0.125 1.519,-44.035 1.508,44.3 1.496,-0.859 1.488,-0.894 1.477,3.625 1.465,-4.68 1.457,0.398 1.445,1.778 1.434,-3.078 1.425,-32.383 1.414,32.254 1.407,-0.543 1.394,5.554 1.387,-6.047 1.379,-25.644 1.367,23.996 1.359,0.379 1.348,0.031 1.34,-0.332 1.332,1.727 1.324,-1.953 1.317,2.671 1.304,-3.285 1.297,2.364 1.293,-2.965 1.281,0.707 1.274,-1.028 1.265,-1.933 1.258,-36.434 1.25,37.074 1.246,-18.914 1.235,18.883 1.226,2.055 1.223,-2.91 1.211,-0.383 1.207,12.586 1.199,-12.285 1.191,-1.754 1.188,-25.832 1.18,26.945 1.172,-1.672 1.164,-27.066 1.156,28.34 1.152,-1.118 1.149,6.391 1.136,-6.144 1.133,0.25 1.129,0.5 1.117,-20.879 1.117,19.25 1.106,-0.379 1.105,-1.328 1.094,6.644 1.09,-41.922 1.086,35.93 1.078,-0.148 1.074,-1.59 1.067,5.418 1.062,-26.028 1.059,-17.554 1.051,38.652 1.046,-0.133 1.039,-0.863 1.036,-0.41 1.031,2.086 1.023,2.621 2.036,2.051 2.015,-21.981 1.992,-5.922 1.977,-7.375 1.957,-0.578 1.937,4.02 1.922,8.156 1.903,21.187 1.882,-2.554 1.868,-4.028 1.851,-2.828 1.832,0.258 1.821,0.309 1.8,-40.637 1.785,18.293 1.77,24.793 1.754,-4.641 1.742,0.305 1.727,-30.586 1.711,31.207 1.695,-1.645 1.683,-32.226 1.668,34.019 1.657,-2.699 1.64,-27.719 1.633,26.981 1.613,-40.449 1.606,41.785 1.59,-1.879 1.578,3.582 1.57,-4.629 1.555,4.766 1.543,-4.758 1.531,1.765 1.52,-39.367 1.507,36.203 1.5,-18.586 1.485,17.961 1.476,1.934 1.469,-34.152 1.453,31.367 1.446,1.348 1.433,9.738 1.426,-46.414 1.414,34.676 1.406,0.816 1.395,4.59 1.386,-34.297 1.379,-4.5 1.368,31.715 1.359,-0.321 1.348,0.071 1.339,1.594 1.333,0.777 1.324,0.074 1.316,0.18 1.305,0.418 1.301,-0.614 1.289,-0.996 1.281,-0.843 1.273,-1.168 1.266,-1.395 1.258,-0.68 1.254,-0.757 1.242,-31.508 1.234,4.594 1.227,29.808 1.222,-1.113 1.215,-2.543 1.203,-29.973 1.2,40.727 1.195,-9.024 1.184,-3.148 1.179,-22.32 1.172,25.336 1.164,-3.586 1.16,-16.614 1.149,18.508 1.148,-31.773 1.137,33.293 1.133,-43.571 1.129,43.469 1.121,-35.113 1.113,35.234 1.109,-49.289 1.102,48.18 1.094,-38.746 1.093,36.008 1.082,-26.942 1.079,24.68 1.074,2.762 1.07,-25.86 1.059,22.86 1.058,3.449 1.051,-26.485 1.047,-15.195 1.039,38.793 1.035,2.238 1.031,-19.57 1.024,-12.34" /><path
         id="path24"
         style="fill:none;stroke:#ffffff;stroke-width:4;stroke-linecap:butt;stroke-linejoin:round;stroke-miterlimit:3.25;stroke-dasharray:none;stroke-opacity:1"
         d="m 292.219,90.945 0.277,-0.043 0.805,-0.113 1.308,-0.187 1.778,-0.258 2.226,-0.321 2.637,-0.378 3.023,-0.434 3.383,-0.484 3.711,-0.536 4.008,-0.578 4.281,-0.613 4.52,-0.648 4.73,-0.684 4.918,-0.703 5.071,-0.731 5.195,-0.746 5.293,-0.761 5.359,-0.77 5.399,-0.777 5.406,-0.778 5.391,-0.773 5.339,-0.77 5.262,-0.754 5.156,-0.742 5.024,-0.722 4.859,-0.7 4.664,-0.668 4.442,-0.64 4.191,-0.602 3.922,-0.562 3.656,-0.528 3.406,-0.488 3.18,-0.457 2.961,-0.426 2.762,-0.398 2.578,-0.371 2.414,-0.348 2.258,-0.324 2.125,-0.305 2.008,-0.289 1.902,-0.273 1.816,-0.262 1.746,-0.25 1.692,-0.242 1.652,-0.238 1.629,-0.235 1.625,-0.234 1.633,-0.235 1.66,-0.238 1.699,-0.246 1.762,-0.25 1.832,-0.266 1.922,-0.273 2.027,-0.293 2.153,-0.309 2.289,-0.332 2.445,-0.347 2.613,-0.379 2.797,-0.403 2.969,-0.425 3.129,-0.45 3.281,-0.472 3.414,-0.488 3.539,-0.508 3.649,-0.528 3.75,-0.535 3.832,-0.551 3.906,-0.558 3.965,-0.57 4.011,-0.575 4.047,-0.578 4.067,-0.582 4.078,-0.586 4.074,-0.582 4.062,-0.578 4.028,-0.574 3.988,-0.57 3.938,-0.559 3.867,-0.551 3.789,-0.539 3.695,-0.523 3.594,-0.508 3.473,-0.488 3.347,-0.473 3.203,-0.449 3.047,-0.426 2.879,-0.402 2.699,-0.379 2.528,-0.348 2.359,-0.324 2.199,-0.301 2.043,-0.277 1.895,-0.258 1.75,-0.231 1.613,-0.214 1.488,-0.196 1.36,-0.176 1.242,-0.156 1.137,-0.144 1.027,-0.125 0.93,-0.11 0.836,-0.097 0.754,-0.086 0.671,-0.071 0.602,-0.062 0.535,-0.051 0.473,-0.043 0.418,-0.031 0.371,-0.027 0.332,-0.02 0.293,-0.016 0.265,-0.007 0.247,-0.004 0.226,-0.004 0.219,-0.004 4.801,0" /><path
         id="path26"
         style="fill:none;stroke:#aaaaaa;stroke-width:0.5;stroke-linecap:square;stroke-linejoin:miter;stroke-miterlimit:3.25;stroke-dasharray:none;stroke-opacity:1"
         d="m 292.219,90.945 0.277,-0.043 0.805,-0.113 1.308,-0.187 1.778,-0.258 2.226,-0.321 2.637,-0.378 3.023,-0.434 3.383,-0.484 3.711,-0.536 4.008,-0.578 4.281,-0.613 4.52,-0.648 4.73,-0.684 4.918,-0.703 5.071,-0.731 5.195,-0.746 5.293,-0.761 5.359,-0.77 5.399,-0.777 5.406,-0.778 5.391,-0.773 5.339,-0.77 5.262,-0.754 5.156,-0.742 5.024,-0.722 4.859,-0.7 4.664,-0.668 4.442,-0.64 4.191,-0.602 3.922,-0.562 3.656,-0.528 3.406,-0.488 3.18,-0.457 2.961,-0.426 2.762,-0.398 2.578,-0.371 2.414,-0.348 2.258,-0.324 2.125,-0.305 2.008,-0.289 1.902,-0.273 1.816,-0.262 1.746,-0.25 1.692,-0.242 1.652,-0.238 1.629,-0.235 1.625,-0.234 1.633,-0.235 1.66,-0.238 1.699,-0.246 1.762,-0.25 1.832,-0.266 1.922,-0.273 2.027,-0.293 2.153,-0.309 2.289,-0.332 2.445,-0.347 2.613,-0.379 2.797,-0.403 2.969,-0.425 3.129,-0.45 3.281,-0.472 3.414,-0.488 3.539,-0.508 3.649,-0.528 3.75,-0.535 3.832,-0.551 3.906,-0.558 3.965,-0.57 4.011,-0.575 4.047,-0.578 4.067,-0.582 4.078,-0.586 4.074,-0.582 4.062,-0.578 4.028,-0.574 3.988,-0.57 3.938,-0.559 3.867,-0.551 3.789,-0.539 3.695,-0.523 3.594,-0.508 3.473,-0.488 3.347,-0.473 3.203,-0.449 3.047,-0.426 2.879,-0.402 2.699,-0.379 2.528,-0.348 2.359,-0.324 2.199,-0.301 2.043,-0.277 1.895,-0.258 1.75,-0.231 1.613,-0.214 1.488,-0.196 1.36,-0.176 1.242,-0.156 1.137,-0.144 1.027,-0.125 0.93,-0.11 0.836,-0.097 0.754,-0.086 0.671,-0.071 0.602,-0.062 0.535,-0.051 0.473,-0.043 0.418,-0.031 0.371,-0.027 0.332,-0.02 0.293,-0.016 0.265,-0.007 0.247,-0.004 0.226,-0.004 0.219,-0.004 4.801,0" /><path
         id="path28"
         style="fill:#ffffff;fill-opacity:0.66666697;fill-rule:nonzero;stroke:none"
         d="m 615.973,37.84 106,0 0,16 -106,0 0,-16 z" /><text
         id="text30"
         style="font-variant:normal;font-size:9px;font-family:CairoFont-0;-inkscape-font-specification:CairoFont-0-1;writing-mode:lr-tb;fill:#5e81b5;fill-opacity:1;fill-rule:nonzero;stroke:none"
         transform="translate(617.97137,48.958781)"><tspan
           id="tspan32"
           y="0"
           x="0">■</tspan></text>
<text
         id="text34"
         style="font-variant:normal;font-size:9px;font-family:CairoFont-1;-inkscape-font-specification:CairoFont-1-0;writing-mode:lr-tb;fill:#000000;fill-opacity:1;fill-rule:nonzero;stroke:none"
         transform="translate(625.87372,48.958781)"><tspan
           id="tspan36"
           y="0"
           x="0 5.994 10.998 13.995 18.495001 20.493 25.497 30.500999 36.494999 38.493 43.497002 48.500999 53.505001 56.501999 61.506001 63.999001 69.002998">ParsingElaborated</tspan></text>
<path
         id="path38"
         style="fill:none;stroke:#ffffff;stroke-width:4;stroke-linecap:butt;stroke-linejoin:round;stroke-miterlimit:3.25;stroke-dasharray:none;stroke-opacity:1"
         d="m 416.336,45.84 0.262,0.062 0.765,0.184 1.235,0.293 1.668,0.394 2.062,0.493 2.426,0.578 2.75,0.652 3.047,0.727 3.301,0.785 3.527,0.836 3.711,0.883 3.863,0.921 3.981,0.946 4.062,0.965 4.106,0.976 4.121,0.981 4.097,0.976 4.039,0.961 3.946,0.938 3.816,0.906 3.652,0.871 3.457,0.82 3.219,0.766 2.961,0.703 2.711,0.648 2.481,0.59 2.273,0.539 2.078,0.496 1.91,0.454 1.758,0.418 1.621,0.386 1.512,0.36 1.418,0.336 1.344,0.32 1.289,0.305 1.254,0.3 1.238,0.293 1.242,0.297 1.266,0.301 1.308,0.309 1.371,0.328 1.454,0.343 1.554,0.372 1.676,0.398 1.812,0.43 1.977,0.472 2.148,0.508 2.313,0.551 2.461,0.586 2.594,0.617 2.715,0.645 2.816,0.668 2.906,0.687 2.977,0.707 3.035,0.719 3.082,0.726 3.105,0.735 6.235,1.469 3.097,0.726 3.063,0.719 3.016,0.707 2.953,0.687 2.875,0.668 2.777,0.645 2.672,0.617 2.547,0.586 2.406,0.551 2.25,0.508 2.09,0.472 1.922,0.426 1.769,0.391 1.621,0.351 1.485,0.317 1.351,0.285 1.227,0.254 1.109,0.222 1.004,0.196 0.899,0.168 0.804,0.144 0.719,0.121 0.641,0.106 0.57,0.082 0.508,0.066 0.449,0.055 0.402,0.039 0.36,0.027 0.328,0.02 0.301,0.008 0.285,0.007 0.273,0.004 4.856,0" /><path
         id="path40"
         style="fill:none;stroke:#aaaaaa;stroke-width:0.5;stroke-linecap:square;stroke-linejoin:miter;stroke-miterlimit:3.25;stroke-dasharray:none;stroke-opacity:1"
         d="m 416.336,45.84 0.262,0.062 0.765,0.184 1.235,0.293 1.668,0.394 2.062,0.493 2.426,0.578 2.75,0.652 3.047,0.727 3.301,0.785 3.527,0.836 3.711,0.883 3.863,0.921 3.981,0.946 4.062,0.965 4.106,0.976 4.121,0.981 4.097,0.976 4.039,0.961 3.946,0.938 3.816,0.906 3.652,0.871 3.457,0.82 3.219,0.766 2.961,0.703 2.711,0.648 2.481,0.59 2.273,0.539 2.078,0.496 1.91,0.454 1.758,0.418 1.621,0.386 1.512,0.36 1.418,0.336 1.344,0.32 1.289,0.305 1.254,0.3 1.238,0.293 1.242,0.297 1.266,0.301 1.308,0.309 1.371,0.328 1.454,0.343 1.554,0.372 1.676,0.398 1.812,0.43 1.977,0.472 2.148,0.508 2.313,0.551 2.461,0.586 2.594,0.617 2.715,0.645 2.816,0.668 2.906,0.687 2.977,0.707 3.035,0.719 3.082,0.726 3.105,0.735 6.235,1.469 3.097,0.726 3.063,0.719 3.016,0.707 2.953,0.687 2.875,0.668 2.777,0.645 2.672,0.617 2.547,0.586 2.406,0.551 2.25,0.508 2.09,0.472 1.922,0.426 1.769,0.391 1.621,0.351 1.485,0.317 1.351,0.285 1.227,0.254 1.109,0.222 1.004,0.196 0.899,0.168 0.804,0.144 0.719,0.121 0.641,0.106 0.57,0.082 0.508,0.066 0.449,0.055 0.402,0.039 0.36,0.027 0.328,0.02 0.301,0.008 0.285,0.007 0.273,0.004 4.856,0" /><path
         id="path42"
         style="fill:#ffffff;fill-opacity:0.66666697;fill-rule:nonzero;stroke:none"
         d="m 615.973,82.945 156,0 0,16 -156,0 0,-16 z" /><text
         id="text44"
         style="font-variant:normal;font-size:9px;font-family:CairoFont-0;-inkscape-font-specification:CairoFont-0-1;writing-mode:lr-tb;fill:#e19c24;fill-opacity:1;fill-rule:nonzero;stroke:none"
         transform="translate(617.97137,94.06105)"><tspan
           id="tspan46"
           y="0"
           x="0">■</tspan></text>
<text
         id="text48"
         style="font-variant:normal;font-size:9px;font-family:CairoFont-1;-inkscape-font-specification:CairoFont-1-0;writing-mode:lr-tb;fill:#000000;fill-opacity:1;fill-rule:nonzero;stroke:none"
         transform="translate(625.87372,94.06105)"><tspan
           id="tspan50"
           y="0"
           x="0 5.994 10.998 13.995 18.999001 26.496 31.5 33.993 36.990002 38.987999 43.487999 45.486 47.979">Parametricity</tspan></text>
<text
         id="text52"
         style="font-variant:normal;font-size:9px;font-family:CairoFont-2;-inkscape-font-specification:CairoFont-2-0;writing-mode:lr-tb;fill:#000000;fill-opacity:1;fill-rule:nonzero;stroke:none"
         transform="translate(680.85472,94.06105)"><tspan
           id="tspan54"
           y="0"
           x="0">(</tspan></text>
<text
         id="text56"
         style="font-variant:normal;font-size:9px;font-family:CairoFont-1;-inkscape-font-specification:CairoFont-1-0;writing-mode:lr-tb;fill:#000000;fill-opacity:1;fill-rule:nonzero;stroke:none"
         transform="translate(683.85172,94.06105)"><tspan
           id="tspan58"
           y="0"
           x="0 2.997 8.0010004 13.005 18.009001 22.509001 27.513 35.019001 37.512001 42.515999 45.513">reducedterm</tspan></text>
<text
         id="text60"
         style="font-variant:normal;font-size:9px;font-family:CairoFont-2;-inkscape-font-specification:CairoFont-2-0;writing-mode:lr-tb;fill:#000000;fill-opacity:1;fill-rule:nonzero;stroke:none"
         transform="translate(736.86172,94.06105)"><tspan
           id="tspan62"
           y="0"
           x="0">)</tspan></text>
<path
         id="path64"
         style="fill:none;stroke:#ffffff;stroke-width:4;stroke-linecap:butt;stroke-linejoin:round;stroke-miterlimit:3.25;stroke-dasharray:none;stroke-opacity:1"
         d="m 406.359,149.203 209.614,0" /><path
         id="path66"
         style="fill:none;stroke:#aaaaaa;stroke-width:0.5;stroke-linecap:square;stroke-linejoin:miter;stroke-miterlimit:3.25;stroke-dasharray:none;stroke-opacity:1"
         d="m 406.359,149.203 209.614,0" /><path
         id="path68"
         style="fill:#ffffff;fill-opacity:0.66666697;fill-rule:nonzero;stroke:none"
         d="m 615.973,141.203 81,0 0,16 -81,0 0,-16 z" /><text
         id="text70"
         style="font-variant:normal;font-size:9px;font-family:CairoFont-0;-inkscape-font-specification:CairoFont-0-1;writing-mode:lr-tb;fill:#8fb032;fill-opacity:1;fill-rule:nonzero;stroke:none"
         transform="translate(617.97137,152.31943)"><tspan
           id="tspan72"
           y="0"
           x="0">■</tspan></text>
<text
         id="text74"
         style="font-variant:normal;font-size:9px;font-family:CairoFont-1;-inkscape-font-specification:CairoFont-1-0;writing-mode:lr-tb;fill:#000000;fill-opacity:1;fill-rule:nonzero;stroke:none"
         transform="translate(625.87372,152.31943)"><tspan
           id="tspan76"
           y="0"
           x="0 5.4899998 10.494 17.990999 22.995001 24.993 29.997 32.490002 37.493999 43.992001 48.995998">TemplateCoq</tspan></text>
<path
         id="path78"
         style="fill:none;stroke:#ffffff;stroke-width:4;stroke-linecap:butt;stroke-linejoin:round;stroke-miterlimit:3.25;stroke-dasharray:none;stroke-opacity:1"
         d="m 569.629,205.777 0.293,-0.05 0.812,-0.137 1.231,-0.211 1.551,-0.266 1.773,-0.301 1.902,-0.324 1.926,-0.328 1.856,-0.316 1.683,-0.289 1.418,-0.243 1.145,-0.195 0.926,-0.156 0.757,-0.129 0.649,-0.113 0.59,-0.098 0.589,-0.101 0.641,-0.11 0.746,-0.129 0.91,-0.152 1.098,-0.188 1.262,-0.214 1.383,-0.231 1.468,-0.246 1.512,-0.246 1.523,-0.242 1.497,-0.231 1.429,-0.215 1.328,-0.187 1.188,-0.156 1.058,-0.121 0.938,-0.094 0.844,-0.07 0.769,-0.047 0.707,-0.032 0.668,-0.019 0.649,-0.008 0.644,-0.004 4.981,0" /><path
         id="path80"
         style="fill:none;stroke:#aaaaaa;stroke-width:0.5;stroke-linecap:square;stroke-linejoin:miter;stroke-miterlimit:3.25;stroke-dasharray:none;stroke-opacity:1"
         d="m 569.629,205.777 0.293,-0.05 0.812,-0.137 1.231,-0.211 1.551,-0.266 1.773,-0.301 1.902,-0.324 1.926,-0.328 1.856,-0.316 1.683,-0.289 1.418,-0.243 1.145,-0.195 0.926,-0.156 0.757,-0.129 0.649,-0.113 0.59,-0.098 0.589,-0.101 0.641,-0.11 0.746,-0.129 0.91,-0.152 1.098,-0.188 1.262,-0.214 1.383,-0.231 1.468,-0.246 1.512,-0.246 1.523,-0.242 1.497,-0.231 1.429,-0.215 1.328,-0.187 1.188,-0.156 1.058,-0.121 0.938,-0.094 0.844,-0.07 0.769,-0.047 0.707,-0.032 0.668,-0.019 0.649,-0.008 0.644,-0.004 4.981,0" /><path
         id="path82"
         style="fill:#ffffff;fill-opacity:0.66666697;fill-rule:nonzero;stroke:none"
         d="m 615.973,191.578 168,0 0,16 -168,0 0,-16 z" /><text
         id="text84"
         style="font-variant:normal;font-size:9px;font-family:CairoFont-0;-inkscape-font-specification:CairoFont-0-1;writing-mode:lr-tb;fill:#eb6235;fill-opacity:1;fill-rule:nonzero;stroke:none"
         transform="translate(617.97137,202.69612)"><tspan
           id="tspan86"
           y="0"
           x="0">■</tspan></text>
<text
         id="text88"
         style="font-variant:normal;font-size:9px;font-family:CairoFont-1;-inkscape-font-specification:CairoFont-1-0;writing-mode:lr-tb;fill:#000000;fill-opacity:1;fill-rule:nonzero;stroke:none"
         transform="translate(625.87372,202.69612)"><tspan
           id="tspan90"
           y="0"
           x="0 5.994 10.998 13.995 18.999001 26.496 31.5 33.993 36.990002 38.987999 43.487999 45.486 47.979">Parametricity</tspan></text>
<text
         id="text92"
         style="font-variant:normal;font-size:9px;font-family:CairoFont-2;-inkscape-font-specification:CairoFont-2-0;writing-mode:lr-tb;fill:#000000;fill-opacity:1;fill-rule:nonzero;stroke:none"
         transform="translate(680.85472,202.69612)"><tspan
           id="tspan94"
           y="0"
           x="0">(</tspan></text>
<text
         id="text96"
         style="font-variant:normal;font-size:9px;font-family:CairoFont-1;-inkscape-font-specification:CairoFont-1-0;writing-mode:lr-tb;fill:#000000;fill-opacity:1;fill-rule:nonzero;stroke:none"
         transform="translate(683.85172,202.69612)"><tspan
           id="tspan98"
           y="0"
           x="0 5.0040002 10.008 13.005 18.009001 23.013 28.017 32.516998 37.521 45.035999 47.528999 52.533001 55.529999">unreducedterm</tspan></text>
<text
         id="text100"
         style="font-variant:normal;font-size:9px;font-family:CairoFont-2;-inkscape-font-specification:CairoFont-2-0;writing-mode:lr-tb;fill:#000000;fill-opacity:1;fill-rule:nonzero;stroke:none"
         transform="translate(746.87872,202.69612)"><tspan
           id="tspan102"
           y="0"
           x="0">)</tspan></text>
<path
         id="path104"
         style="fill:none;stroke:#ffffff;stroke-width:4;stroke-linecap:butt;stroke-linejoin:round;stroke-miterlimit:3.25;stroke-dasharray:none;stroke-opacity:1"
         d="m 569.629,208.66 0.293,0.047 0.812,0.141 1.231,0.207 1.551,0.265 1.773,0.305 1.902,0.324 1.926,0.328 1.856,0.317 1.683,0.285 1.418,0.242 1.145,0.195 0.926,0.161 0.757,0.128 0.649,0.11 0.59,0.101 0.589,0.098 0.641,0.109 0.746,0.129 0.91,0.157 1.098,0.187 1.262,0.211 1.383,0.234 1.468,0.243 1.512,0.246 1.523,0.246 1.497,0.23 1.429,0.215 1.328,0.184 1.188,0.156 1.058,0.121 0.938,0.098 0.844,0.066 0.769,0.051 0.707,0.031 0.668,0.02 0.649,0.007 5.625,0" /><path
         id="path106"
         style="fill:none;stroke:#aaaaaa;stroke-width:0.5;stroke-linecap:square;stroke-linejoin:miter;stroke-miterlimit:3.25;stroke-dasharray:none;stroke-opacity:1"
         d="m 569.629,208.66 0.293,0.047 0.812,0.141 1.231,0.207 1.551,0.265 1.773,0.305 1.902,0.324 1.926,0.328 1.856,0.317 1.683,0.285 1.418,0.242 1.145,0.195 0.926,0.161 0.757,0.128 0.649,0.11 0.59,0.101 0.589,0.098 0.641,0.109 0.746,0.129 0.91,0.157 1.098,0.187 1.262,0.211 1.383,0.234 1.468,0.243 1.512,0.246 1.523,0.246 1.497,0.23 1.429,0.215 1.328,0.184 1.188,0.156 1.058,0.121 0.938,0.098 0.844,0.066 0.769,0.051 0.707,0.031 0.668,0.02 0.649,0.007 5.625,0" /><path
         id="path108"
         style="fill:#ffffff;fill-opacity:0.66666697;fill-rule:nonzero;stroke:none"
         d="m 615.973,207.855 50,0 0,14 -50,0 0,-14 z" /><text
         id="text110"
         style="font-variant:normal;font-size:9px;font-family:CairoFont-0;-inkscape-font-specification:CairoFont-0-1;writing-mode:lr-tb;fill:#8778b3;fill-opacity:1;fill-rule:nonzero;stroke:none"
         transform="translate(617.97137,217.97388)"><tspan
           id="tspan112"
           y="0"
           x="0">■</tspan></text>
<text
         id="text114"
         style="font-variant:normal;font-size:9px;font-family:CairoFont-1;-inkscape-font-specification:CairoFont-1-0;writing-mode:lr-tb;fill:#000000;fill-opacity:1;fill-rule:nonzero;stroke:none"
         transform="translate(625.87372,217.97388)"><tspan
           id="tspan116"
           y="0"
           x="0 6.993 13.491 18.495001 25.992001">OCaml</tspan></text>
<path
         id="path118"
         style="fill:none;stroke:#000000;stroke-width:0.1;stroke-linecap:butt;stroke-linejoin:miter;stroke-miterlimit:3.25;stroke-dasharray:none;stroke-opacity:1"
         d="m 98.824,374.66 0,-5.633" /><text
         id="text120"
         style="font-variant:normal;font-size:9px;font-family:CairoFont-1;-inkscape-font-specification:CairoFont-1-0;writing-mode:lr-tb;fill:#000000;fill-opacity:1;fill-rule:nonzero;stroke:none"
         transform="translate(88.810792,385.79989)"><tspan
           id="tspan122"
           y="0"
           x="0 5.0040002 10.008 15.012">2000</tspan></text>
<path
         id="path124"
         style="fill:none;stroke:#000000;stroke-width:0.1;stroke-linecap:butt;stroke-linejoin:miter;stroke-miterlimit:3.25;stroke-dasharray:none;stroke-opacity:1"
         d="m 286.176,374.66 0,-5.633" /><text
         id="text126"
         style="font-variant:normal;font-size:9px;font-family:CairoFont-1;-inkscape-font-specification:CairoFont-1-0;writing-mode:lr-tb;fill:#000000;fill-opacity:1;fill-rule:nonzero;stroke:none"
         transform="translate(276.16404,385.79989)"><tspan
           id="tspan128"
           y="0"
           x="0 5.0040002 10.008 15.012">5000</tspan></text>
<path
         id="path130"
         style="fill:none;stroke:#000000;stroke-width:0.1;stroke-linecap:butt;stroke-linejoin:miter;stroke-miterlimit:3.25;stroke-dasharray:none;stroke-opacity:1"
         d="m 427.902,374.66 0,-5.633" /><text
         id="text132"
         style="font-variant:normal;font-size:9px;font-family:CairoFont-1;-inkscape-font-specification:CairoFont-1-0;writing-mode:lr-tb;fill:#000000;fill-opacity:1;fill-rule:nonzero;stroke:none"
         transform="translate(414.73944,385.79989)"><tspan
           id="tspan134"
           y="0"
           x="0">1</tspan></text>
<text
         id="text136"
         style="font-variant:normal;font-size:9px;font-family:CairoFont-2;-inkscape-font-specification:CairoFont-2-0;writing-mode:lr-tb;fill:#000000;fill-opacity:1;fill-rule:nonzero;stroke:none"
         transform="translate(420.74244,385.79989)"><tspan
           id="tspan138"
           y="0"
           x="0">×</tspan></text>
<text
         id="text140"
         style="font-variant:normal;font-size:9px;font-family:CairoFont-1;-inkscape-font-specification:CairoFont-1-0;writing-mode:lr-tb;fill:#000000;fill-opacity:1;fill-rule:nonzero;stroke:none"
         transform="translate(426.98844,385.79989)"><tspan
           id="tspan142"
           y="0"
           x="0 5.0040002">10</tspan></text>
<text
         id="text144"
         style="font-variant:normal;font-size:6.38964796px;font-family:CairoFont-1;-inkscape-font-specification:CairoFont-1-0;writing-mode:lr-tb;fill:#000000;fill-opacity:1;fill-rule:nonzero;stroke:none"
         transform="translate(437.01288,382.42977)"><tspan
           id="tspan146"
           y="0"
           x="0">4</tspan></text>
<path
         id="path148"
         style="fill:none;stroke:#000000;stroke-width:0.1;stroke-linecap:butt;stroke-linejoin:miter;stroke-miterlimit:3.25;stroke-dasharray:none;stroke-opacity:1"
         d="m 569.629,374.66 0,-5.633" /><text
         id="text150"
         style="font-variant:normal;font-size:9px;font-family:CairoFont-1;-inkscape-font-specification:CairoFont-1-0;writing-mode:lr-tb;fill:#000000;fill-opacity:1;fill-rule:nonzero;stroke:none"
         transform="translate(556.4667,385.79989)"><tspan
           id="tspan152"
           y="0"
           x="0">2</tspan></text>
<text
         id="text154"
         style="font-variant:normal;font-size:9px;font-family:CairoFont-2;-inkscape-font-specification:CairoFont-2-0;writing-mode:lr-tb;fill:#000000;fill-opacity:1;fill-rule:nonzero;stroke:none"
         transform="translate(562.4697,385.79989)"><tspan
           id="tspan156"
           y="0"
           x="0">×</tspan></text>
<text
         id="text158"
         style="font-variant:normal;font-size:9px;font-family:CairoFont-1;-inkscape-font-specification:CairoFont-1-0;writing-mode:lr-tb;fill:#000000;fill-opacity:1;fill-rule:nonzero;stroke:none"
         transform="translate(568.7157,385.79989)"><tspan
           id="tspan160"
           y="0"
           x="0 5.0040002">10</tspan></text>
<text
         id="text162"
         style="font-variant:normal;font-size:6.38964796px;font-family:CairoFont-1;-inkscape-font-specification:CairoFont-1-0;writing-mode:lr-tb;fill:#000000;fill-opacity:1;fill-rule:nonzero;stroke:none"
         transform="translate(578.74014,382.42977)"><tspan
           id="tspan164"
           y="0"
           x="0">4</tspan></text>
<path
         id="path166"
         style="fill:none;stroke:#000000;stroke-width:0.1;stroke-linecap:butt;stroke-linejoin:miter;stroke-miterlimit:3.25;stroke-dasharray:none;stroke-opacity:1"
         d="m 40,374.66 0,-2.816" /><path
         id="path168"
         style="fill:none;stroke:#000000;stroke-width:0.1;stroke-linecap:butt;stroke-linejoin:miter;stroke-miterlimit:3.25;stroke-dasharray:none;stroke-opacity:1"
         d="m 181.727,374.66 0,-2.816" /><path
         id="path170"
         style="fill:none;stroke:#000000;stroke-width:0.1;stroke-linecap:butt;stroke-linejoin:miter;stroke-miterlimit:3.25;stroke-dasharray:none;stroke-opacity:1"
         d="m 240.551,374.66 0,-2.816" /><path
         id="path172"
         style="fill:none;stroke:#000000;stroke-width:0.1;stroke-linecap:butt;stroke-linejoin:miter;stroke-miterlimit:3.25;stroke-dasharray:none;stroke-opacity:1"
         d="m 323.453,374.66 0,-2.816" /><path
         id="path174"
         style="fill:none;stroke:#000000;stroke-width:0.1;stroke-linecap:butt;stroke-linejoin:miter;stroke-miterlimit:3.25;stroke-dasharray:none;stroke-opacity:1"
         d="m 354.973,374.66 0,-2.816" /><path
         id="path176"
         style="fill:none;stroke:#000000;stroke-width:0.1;stroke-linecap:butt;stroke-linejoin:miter;stroke-miterlimit:3.25;stroke-dasharray:none;stroke-opacity:1"
         d="m 382.277,374.66 0,-2.816" /><path
         id="path178"
         style="fill:none;stroke:#000000;stroke-width:0.1;stroke-linecap:butt;stroke-linejoin:miter;stroke-miterlimit:3.25;stroke-dasharray:none;stroke-opacity:1"
         d="m 406.359,374.66 0,-2.816" /><path
         id="path180"
         style="fill:none;stroke:#000000;stroke-width:0.1;stroke-linecap:butt;stroke-linejoin:miter;stroke-miterlimit:3.25;stroke-dasharray:none;stroke-opacity:1"
         d="m 510.809,374.66 0,-2.816" /><path
         id="path182"
         style="fill:none;stroke:#000000;stroke-width:0.5;stroke-linecap:butt;stroke-linejoin:miter;stroke-miterlimit:3.25;stroke-dasharray:none;stroke-opacity:1"
         d="m 17.703,374.66 563.192,0" /><text
         id="text184"
         style="font-variant:normal;font-size:9px;font-family:CairoFont-3;-inkscape-font-specification:CairoFont-3-0;writing-mode:lr-tb;fill:#000000;fill-opacity:1;fill-rule:nonzero;stroke:none"
         transform="translate(588.8941,377.77645)"><tspan
           id="tspan186"
           y="0"
           x="0">n</tspan></text>
<path
         id="path188"
         style="fill:none;stroke:#000000;stroke-width:0.1;stroke-linecap:butt;stroke-linejoin:miter;stroke-miterlimit:3.25;stroke-dasharray:none;stroke-opacity:1"
         d="m 20.52,308.531 5.632,0" /><text
         id="text190"
         style="font-variant:normal;font-size:9px;font-family:CairoFont-1;-inkscape-font-specification:CairoFont-1-0;writing-mode:lr-tb;fill:#000000;fill-opacity:1;fill-rule:nonzero;stroke:none"
         transform="translate(0,311.64752)"><tspan
           id="tspan192"
           y="0"
           x="0 5.0040002 7.4970002 12.501">0.01</tspan></text>
<path
         id="path194"
         style="fill:none;stroke:#000000;stroke-width:0.1;stroke-linecap:butt;stroke-linejoin:miter;stroke-miterlimit:3.25;stroke-dasharray:none;stroke-opacity:1"
         d="m 20.52,216.129 5.632,0" /><text
         id="text196"
         style="font-variant:normal;font-size:9px;font-family:CairoFont-1;-inkscape-font-specification:CairoFont-1-0;writing-mode:lr-tb;fill:#000000;fill-opacity:1;fill-rule:nonzero;stroke:none"
         transform="translate(0,219.24545)"><tspan
           id="tspan198"
           y="0"
           x="0 5.0040002 7.4970002 12.501">0.10</tspan></text>
<path
         id="path200"
         style="fill:none;stroke:#000000;stroke-width:0.1;stroke-linecap:butt;stroke-linejoin:miter;stroke-miterlimit:3.25;stroke-dasharray:none;stroke-opacity:1"
         d="m 20.52,123.727 5.632,0" /><text
         id="text202"
         style="font-variant:normal;font-size:9px;font-family:CairoFont-1;-inkscape-font-specification:CairoFont-1-0;writing-mode:lr-tb;fill:#000000;fill-opacity:1;fill-rule:nonzero;stroke:none"
         transform="translate(12.512695,126.84339)"><tspan
           id="tspan204"
           y="0"
           x="0">1</tspan></text>
<path
         id="path206"
         style="fill:none;stroke:#000000;stroke-width:0.1;stroke-linecap:butt;stroke-linejoin:miter;stroke-miterlimit:3.25;stroke-dasharray:none;stroke-opacity:1"
         d="m 20.52,31.324 5.632,0" /><text
         id="text208"
         style="font-variant:normal;font-size:9px;font-family:CairoFont-1;-inkscape-font-specification:CairoFont-1-0;writing-mode:lr-tb;fill:#000000;fill-opacity:1;fill-rule:nonzero;stroke:none"
         transform="translate(7.506836,34.441325)"><tspan
           id="tspan210"
           y="0"
           x="0 5.0040002">10</tspan></text>
<path
         id="path212"
         style="fill:none;stroke:#000000;stroke-width:0.1;stroke-linecap:butt;stroke-linejoin:miter;stroke-miterlimit:3.25;stroke-dasharray:none;stroke-opacity:1"
         d="m 20.52,373.117 2.816,0" /><path
         id="path214"
         style="fill:none;stroke:#000000;stroke-width:0.1;stroke-linecap:butt;stroke-linejoin:miter;stroke-miterlimit:3.25;stroke-dasharray:none;stroke-opacity:1"
         d="m 20.52,356.844 2.816,0" /><path
         id="path216"
         style="fill:none;stroke:#000000;stroke-width:0.1;stroke-linecap:butt;stroke-linejoin:miter;stroke-miterlimit:3.25;stroke-dasharray:none;stroke-opacity:1"
         d="m 20.52,345.301 2.816,0" /><path
         id="path218"
         style="fill:none;stroke:#000000;stroke-width:0.1;stroke-linecap:butt;stroke-linejoin:miter;stroke-miterlimit:3.25;stroke-dasharray:none;stroke-opacity:1"
         d="m 20.52,336.348 2.816,0" /><path
         id="path220"
         style="fill:none;stroke:#000000;stroke-width:0.1;stroke-linecap:butt;stroke-linejoin:miter;stroke-miterlimit:3.25;stroke-dasharray:none;stroke-opacity:1"
         d="m 20.52,329.031 2.816,0" /><path
         id="path222"
         style="fill:none;stroke:#000000;stroke-width:0.1;stroke-linecap:butt;stroke-linejoin:miter;stroke-miterlimit:3.25;stroke-dasharray:none;stroke-opacity:1"
         d="m 20.52,322.844 2.816,0" /><path
         id="path224"
         style="fill:none;stroke:#000000;stroke-width:0.1;stroke-linecap:butt;stroke-linejoin:miter;stroke-miterlimit:3.25;stroke-dasharray:none;stroke-opacity:1"
         d="m 20.52,317.484 2.816,0" /><path
         id="path226"
         style="fill:none;stroke:#000000;stroke-width:0.1;stroke-linecap:butt;stroke-linejoin:miter;stroke-miterlimit:3.25;stroke-dasharray:none;stroke-opacity:1"
         d="m 20.52,312.758 2.816,0" /><path
         id="path228"
         style="fill:none;stroke:#000000;stroke-width:0.1;stroke-linecap:butt;stroke-linejoin:miter;stroke-miterlimit:3.25;stroke-dasharray:none;stroke-opacity:1"
         d="m 20.52,280.715 2.816,0" /><path
         id="path230"
         style="fill:none;stroke:#000000;stroke-width:0.1;stroke-linecap:butt;stroke-linejoin:miter;stroke-miterlimit:3.25;stroke-dasharray:none;stroke-opacity:1"
         d="m 20.52,264.441 2.816,0" /><path
         id="path232"
         style="fill:none;stroke:#000000;stroke-width:0.1;stroke-linecap:butt;stroke-linejoin:miter;stroke-miterlimit:3.25;stroke-dasharray:none;stroke-opacity:1"
         d="m 20.52,252.898 2.816,0" /><path
         id="path234"
         style="fill:none;stroke:#000000;stroke-width:0.1;stroke-linecap:butt;stroke-linejoin:miter;stroke-miterlimit:3.25;stroke-dasharray:none;stroke-opacity:1"
         d="m 20.52,243.945 2.816,0" /><path
         id="path236"
         style="fill:none;stroke:#000000;stroke-width:0.1;stroke-linecap:butt;stroke-linejoin:miter;stroke-miterlimit:3.25;stroke-dasharray:none;stroke-opacity:1"
         d="m 20.52,236.629 2.816,0" /><path
         id="path238"
         style="fill:none;stroke:#000000;stroke-width:0.1;stroke-linecap:butt;stroke-linejoin:miter;stroke-miterlimit:3.25;stroke-dasharray:none;stroke-opacity:1"
         d="m 20.52,230.441 2.816,0" /><path
         id="path240"
         style="fill:none;stroke:#000000;stroke-width:0.1;stroke-linecap:butt;stroke-linejoin:miter;stroke-miterlimit:3.25;stroke-dasharray:none;stroke-opacity:1"
         d="m 20.52,225.082 2.816,0" /><path
         id="path242"
         style="fill:none;stroke:#000000;stroke-width:0.1;stroke-linecap:butt;stroke-linejoin:miter;stroke-miterlimit:3.25;stroke-dasharray:none;stroke-opacity:1"
         d="m 20.52,220.355 2.816,0" /><path
         id="path244"
         style="fill:none;stroke:#000000;stroke-width:0.1;stroke-linecap:butt;stroke-linejoin:miter;stroke-miterlimit:3.25;stroke-dasharray:none;stroke-opacity:1"
         d="m 20.52,188.312 2.816,0" /><path
         id="path246"
         style="fill:none;stroke:#000000;stroke-width:0.1;stroke-linecap:butt;stroke-linejoin:miter;stroke-miterlimit:3.25;stroke-dasharray:none;stroke-opacity:1"
         d="m 20.52,172.043 2.816,0" /><path
         id="path248"
         style="fill:none;stroke:#000000;stroke-width:0.1;stroke-linecap:butt;stroke-linejoin:miter;stroke-miterlimit:3.25;stroke-dasharray:none;stroke-opacity:1"
         d="m 20.52,160.496 2.816,0" /><path
         id="path250"
         style="fill:none;stroke:#000000;stroke-width:0.1;stroke-linecap:butt;stroke-linejoin:miter;stroke-miterlimit:3.25;stroke-dasharray:none;stroke-opacity:1"
         d="m 20.52,151.543 2.816,0" /><path
         id="path252"
         style="fill:none;stroke:#000000;stroke-width:0.1;stroke-linecap:butt;stroke-linejoin:miter;stroke-miterlimit:3.25;stroke-dasharray:none;stroke-opacity:1"
         d="m 20.52,144.227 2.816,0" /><path
         id="path254"
         style="fill:none;stroke:#000000;stroke-width:0.1;stroke-linecap:butt;stroke-linejoin:miter;stroke-miterlimit:3.25;stroke-dasharray:none;stroke-opacity:1"
         d="m 20.52,138.039 2.816,0" /><path
         id="path256"
         style="fill:none;stroke:#000000;stroke-width:0.1;stroke-linecap:butt;stroke-linejoin:miter;stroke-miterlimit:3.25;stroke-dasharray:none;stroke-opacity:1"
         d="m 20.52,132.68 2.816,0" /><path
         id="path258"
         style="fill:none;stroke:#000000;stroke-width:0.1;stroke-linecap:butt;stroke-linejoin:miter;stroke-miterlimit:3.25;stroke-dasharray:none;stroke-opacity:1"
         d="m 20.52,127.953 2.816,0" /><path
         id="path260"
         style="fill:none;stroke:#000000;stroke-width:0.1;stroke-linecap:butt;stroke-linejoin:miter;stroke-miterlimit:3.25;stroke-dasharray:none;stroke-opacity:1"
         d="m 20.52,95.91 2.816,0" /><path
         id="path262"
         style="fill:none;stroke:#000000;stroke-width:0.1;stroke-linecap:butt;stroke-linejoin:miter;stroke-miterlimit:3.25;stroke-dasharray:none;stroke-opacity:1"
         d="m 20.52,79.641 2.816,0" /><path
         id="path264"
         style="fill:none;stroke:#000000;stroke-width:0.1;stroke-linecap:butt;stroke-linejoin:miter;stroke-miterlimit:3.25;stroke-dasharray:none;stroke-opacity:1"
         d="m 20.52,68.094 2.816,0" /><path
         id="path266"
         style="fill:none;stroke:#000000;stroke-width:0.1;stroke-linecap:butt;stroke-linejoin:miter;stroke-miterlimit:3.25;stroke-dasharray:none;stroke-opacity:1"
         d="m 20.52,59.141 2.816,0" /><path
         id="path268"
         style="fill:none;stroke:#000000;stroke-width:0.1;stroke-linecap:butt;stroke-linejoin:miter;stroke-miterlimit:3.25;stroke-dasharray:none;stroke-opacity:1"
         d="m 20.52,51.824 2.816,0" /><path
         id="path270"
         style="fill:none;stroke:#000000;stroke-width:0.1;stroke-linecap:butt;stroke-linejoin:miter;stroke-miterlimit:3.25;stroke-dasharray:none;stroke-opacity:1"
         d="m 20.52,45.637 2.816,0" /><path
         id="path272"
         style="fill:none;stroke:#000000;stroke-width:0.1;stroke-linecap:butt;stroke-linejoin:miter;stroke-miterlimit:3.25;stroke-dasharray:none;stroke-opacity:1"
         d="m 20.52,40.277 2.816,0" /><path
         id="path274"
         style="fill:none;stroke:#000000;stroke-width:0.1;stroke-linecap:butt;stroke-linejoin:miter;stroke-miterlimit:3.25;stroke-dasharray:none;stroke-opacity:1"
         d="m 20.52,35.551 2.816,0" /><path
         id="path276"
         style="fill:none;stroke:#000000;stroke-width:0.5;stroke-linecap:butt;stroke-linejoin:miter;stroke-miterlimit:3.25;stroke-dasharray:none;stroke-opacity:1"
         d="m 20.52,376.398 0,-348.07" /><text
         id="text278"
         style="font-variant:normal;font-size:9px;font-family:CairoFont-1;-inkscape-font-specification:CairoFont-1-0;writing-mode:lr-tb;fill:#000000;fill-opacity:1;fill-rule:nonzero;stroke:none"
         transform="translate(4.020508,20.421875)"><tspan
           id="tspan280"
           y="0"
           x="0 5.4899998 7.4879999 14.985">Time</tspan></text>
<text
         id="text282"
         style="font-variant:normal;font-size:9px;font-family:CairoFont-2;-inkscape-font-specification:CairoFont-2-0;writing-mode:lr-tb;fill:#000000;fill-opacity:1;fill-rule:nonzero;stroke:none"
         transform="translate(26.511508,20.421875)"><tspan
           id="tspan284"
           y="0"
           x="0">(</tspan></text>
<text
         id="text286"
         style="font-variant:normal;font-size:9px;font-family:CairoFont-1;-inkscape-font-specification:CairoFont-1-0;writing-mode:lr-tb;fill:#000000;fill-opacity:1;fill-rule:nonzero;stroke:none"
         transform="translate(29.508508,20.421875)"><tspan
           id="tspan288"
           y="0"
           x="0">s</tspan></text>
<text
         id="text290"
         style="font-variant:normal;font-size:9px;font-family:CairoFont-2;-inkscape-font-specification:CairoFont-2-0;writing-mode:lr-tb;fill:#000000;fill-opacity:1;fill-rule:nonzero;stroke:none"
         transform="translate(34.008508,20.421875)"><tspan
           id="tspan292"
           y="0"
           x="0">)</tspan></text>
<text
         id="text294"
         style="font-variant:normal;font-size:10.79980469px;font-family:CairoFont-1;-inkscape-font-specification:CairoFont-1-0;writing-mode:lr-tb;fill:#000000;fill-opacity:1;fill-rule:nonzero;stroke:none"
         transform="translate(133.33644,9.953125)"><tspan
           id="tspan296"
           y="0"
           x="0 7.1926703 9.5902271 14.990129 23.997168 30.001858 35.99575 38.987297 44.991989 48.588322">Sizeofterm</tspan></text>
<text
         id="text298"
         style="font-variant:normal;font-size:10.79980469px;font-family:CairoFont-2;-inkscape-font-specification:CairoFont-2-0;writing-mode:lr-tb;fill:#000000;fill-opacity:1;fill-rule:nonzero;stroke:none"
         transform="translate(193.92334,9.953125)"><tspan
           id="tspan300"
           y="0"
           x="0">(</tspan></text>
<text
         id="text302"
         style="font-variant:normal;font-size:10.79980469px;font-family:CairoFont-1;-inkscape-font-specification:CairoFont-1-0;writing-mode:lr-tb;fill:#000000;fill-opacity:1;fill-rule:nonzero;stroke:none"
         transform="translate(197.51968,9.953125)"><tspan
           id="tspan304"
           y="0"
           x="0 7.7974591 10.195016 13.186562 22.1828 28.18749 30.585049 36.589741 42.594429 48.599121 52.195457">withbinders</tspan></text>
<text
         id="text306"
         style="font-variant:normal;font-size:10.79980469px;font-family:CairoFont-2;-inkscape-font-specification:CairoFont-2-0;writing-mode:lr-tb;fill:#000000;fill-opacity:1;fill-rule:nonzero;stroke:none"
         transform="translate(255.11504,9.953125)"><tspan
           id="tspan308"
           y="0"
           x="0">)</tspan></text>
<text
         id="text310"
         style="font-variant:normal;font-size:10.79980469px;font-family:CairoFont-1;-inkscape-font-specification:CairoFont-1-0;writing-mode:lr-tb;fill:#000000;fill-opacity:1;fill-rule:nonzero;stroke:none"
         transform="translate(261.71372,9.953125)"><tspan
           id="tspan312"
           y="0"
           x="0 5.3999023 13.802151 21.599609 27.604301 30.001858 32.993404 35.390961 40.790863 46.795555 49.787102 52.184658 58.18935">vsReification</tspan></text>
<text
         id="text314"
         style="font-variant:normal;font-size:10.79980469px;font-family:CairoFont-2;-inkscape-font-specification:CairoFont-2-0;writing-mode:lr-tb;fill:#000000;fill-opacity:1;fill-rule:nonzero;stroke:none"
         transform="translate(325.90776,9.953125)"><tspan
           id="tspan316"
           y="0"
           x="0">+</tspan></text>
<text
         id="text318"
         style="font-variant:normal;font-size:10.79980469px;font-family:CairoFont-1;-inkscape-font-specification:CairoFont-1-0;writing-mode:lr-tb;fill:#000000;fill-opacity:1;fill-rule:nonzero;stroke:none"
         transform="translate(332.20405,9.953125)"><tspan
           id="tspan320"
           y="0"
           x="0 6.0046916 12.009383 15.605719 24.601955 30.606647 33.004204 35.40176 40.801662 46.806355 49.797901 52.195457 58.20015 67.207184 70.19873 72.596291 81.592529">normalizationtime</tspan></text>
<text
         id="text322"
         style="font-variant:normal;font-size:10.79980469px;font-family:CairoFont-2;-inkscape-font-specification:CairoFont-2-0;writing-mode:lr-tb;fill:#000000;fill-opacity:1;fill-rule:nonzero;stroke:none"
         transform="translate(422.80361,9.953125)"><tspan
           id="tspan324"
           y="0"
           x="0">(</tspan></text>
<text
         id="text326"
         style="font-variant:normal;font-size:10.79980469px;font-family:CairoFont-1;-inkscape-font-specification:CairoFont-1-0;writing-mode:lr-tb;fill:#000000;fill-opacity:1;fill-rule:nonzero;stroke:none"
         transform="translate(426.39994,9.953125)"><tspan
           id="tspan328"
           y="0"
           x="0 2.3975568 8.4022484">log</tspan></text>
<text
         id="text330"
         style="font-variant:normal;font-size:10.79980469px;font-family:CairoFont-2;-inkscape-font-specification:CairoFont-2-0;writing-mode:lr-tb;fill:#000000;fill-opacity:1;fill-rule:nonzero;stroke:none"
         transform="translate(440.80688,9.953125)"><tspan
           id="tspan332"
           y="0"
           x="0">-</tspan></text>
<text
         id="text334"
         style="font-variant:normal;font-size:10.79980469px;font-family:CairoFont-1;-inkscape-font-specification:CairoFont-1-0;writing-mode:lr-tb;fill:#000000;fill-opacity:1;fill-rule:nonzero;stroke:none"
         transform="translate(447.10317,9.953125)"><tspan
           id="tspan336"
           y="0"
           x="0 2.3975568 8.4022484">log</tspan></text>
<text
         id="text338"
         style="font-variant:normal;font-size:10.79980469px;font-family:CairoFont-2;-inkscape-font-specification:CairoFont-2-0;writing-mode:lr-tb;fill:#000000;fill-opacity:1;fill-rule:nonzero;stroke:none"
         transform="translate(461.51011,9.953125)"><tspan
           id="tspan340"
           y="0"
           x="0">)</tspan></text>
</g></g></svg>