<?xml version="1.0" encoding="UTF-8" standalone="no"?>
<svg
   xmlns:dc="http://purl.org/dc/elements/1.1/"
   xmlns:cc="http://creativecommons.org/ns#"
   xmlns:rdf="http://www.w3.org/1999/02/22-rdf-syntax-ns#"
   xmlns:svg="http://www.w3.org/2000/svg"
   xmlns="http://www.w3.org/2000/svg"
   viewBox="0 0 1000 477.5"
   height="477.5"
   width="1000"
   xml:space="preserve"
   version="1.1"
   id="svg2"><metadata
     id="metadata8"><rdf:RDF><cc:Work
         rdf:about=""><dc:format>image/svg+xml</dc:format><dc:type
           rdf:resource="http://purl.org/dc/dcmitype/StillImage" /></cc:Work></rdf:RDF></metadata><defs
     id="defs6" /><g
     transform="scale(1.25,1.25)"
     id="g10"><g
       id="g12"><path
         id="path14"
         style="fill:none;stroke:#5e81b5;stroke-width:1.60000002;stroke-linecap:square;stroke-linejoin:miter;stroke-miterlimit:3.25;stroke-dasharray:none;stroke-opacity:1"
         d="m 24.914,355.355 0.293,-3.097 0.289,-0.59 0.293,1.961 0.289,-0.25 0.293,-0.375 0.289,-0.957 0.293,3.043 0.289,-0.871 0.293,-0.684 0.289,-11.996 0.293,8.34 0.293,2.84 0.289,-0.082 0.293,-0.094 0.289,-0.199 0.293,-0.52 0.289,0.824 0.293,-3.468 0.289,1.086 0.293,0.273 0.289,0.117 0.293,-0.578 0.289,-2.16 0.293,-1.035 0.293,0.601 0.289,0 0.293,0.106 0.289,1.781 0.293,-0.32 0.289,-0.059 0.293,-0.293 0.289,-0.816 0.293,0.73 0.289,0.817 0.293,-0.637 0.29,0 0.293,-0.262 0.292,0.121 0.29,-0.168 0.292,0.071 0.29,-0.082 0.293,-0.059 0.289,-0.141 0.293,0.391 0.289,0.188 0.293,-2.95 0.289,0.934 0.293,-0.109 0.289,-0.282 0.293,-0.75 1.457,-0.16 1.453,-2.828 1.457,-51.766 1.457,49.512 1.453,0.742 1.457,-0.777 1.457,-0.402 1.457,-1.485 1.453,-1.062 1.457,-0.672 1.457,-1.297 1.453,-0.766 1.457,-1.05 1.457,-1.485 1.454,-0.215 1.457,-0.082 1.457,-1.945 1.453,-1.617 1.457,-0.492 1.457,-1.344 1.453,-1.559 1.457,0.743 1.457,-2.254 1.457,-0.918 1.453,-0.84 1.457,-2.391 1.457,-4.035 1.453,-0.27 1.457,-1.769 1.457,-1.332 1.454,-3.836 1.457,-1.711 1.457,-0.492 1.453,-3.317 1.457,-1.746 1.457,0.84 1.457,1.805 1.453,-0.508 1.457,-0.766 1.457,-2.414 1.453,-2.058 1.457,0.648 1.457,-1.793 1.453,-2.039 1.457,0.789 1.457,-4.054 1.454,0.671 1.457,-3.328 1.457,0.11 1.453,-59.492 1.457,53.394 1.457,-4.602 1.457,-4.433 1.453,2.191 1.457,-5.093 1.457,-5.743 1.453,2.442 1.457,5.187 1.457,-1.769 1.453,-2.219 1.457,-6.777 1.457,0.304 1.454,-0.683" /><path
         id="path16"
         style="fill:none;stroke:#e19c24;stroke-width:1.60000002;stroke-linecap:square;stroke-linejoin:miter;stroke-miterlimit:3.25;stroke-dasharray:none;stroke-opacity:1"
         d="m 24.914,365.457 0.293,-2.871 0.289,1.109 0.293,1.746 0.289,-1.015 0.293,0.961 0.289,-0.039 0.293,-0.075 0.289,0.008 0.293,-1.008 0.289,0.926 0.293,-0.031 0.293,-0.051 0.289,-0.015 0.293,-0.895 0.289,0.816 0.293,-0.019 0.289,-1.348 0.293,1.27 0.289,-0.903 0.293,0.801 0.289,-0.14 0.293,-0.094 0.289,0.047 0.293,0.082 0.293,-0.27 0.289,-1.453 0.293,1.621 0.289,-0.32 0.293,0.246 0.289,-0.242 0.293,-0.18 0.289,0.231 0.293,0.015 0.289,-0.992 0.293,0.77 0.29,0.105 0.293,-0.906 0.292,-0.856 0.29,1.633 0.292,-0.031 0.29,-1.102 0.293,0.969 0.289,0.008 0.293,-0.641 0.289,-0.847 0.293,1.367 0.289,-0.09 0.293,-0.863 0.289,0.832 0.293,-0.184 1.457,-0.062 1.453,-1.067 1.457,-0.105 1.457,0.449 1.453,-0.289 1.457,-0.36 1.457,-1.972 1.457,-0.156 1.453,-1.106 1.457,-0.367 1.457,-0.313 1.453,0.227 1.457,-0.297 1.457,0.074 1.454,0.41 1.457,-0.449 1.457,-1.746 1.453,1.152 1.457,-0.601 1.457,0.039 1.453,-0.477 1.457,-0.324 1.457,-0.847 1.457,-1.664 1.453,0.425 1.457,-0.449 1.457,0.469 1.453,-0.578 1.457,-2.957 1.457,-0.735 1.454,1.617 1.457,-4.046 1.457,1.878 1.453,0.84 1.457,-1.613 1.457,0.051 1.457,-4.387 1.453,1.856 1.457,0.617 1.457,-1.446 1.453,-0.144 1.457,-2.207 1.457,1.023 1.453,-2.558 1.457,-4.922 1.457,4.203 1.454,-4.168 1.457,2.207 1.457,-3.453 1.453,-1.219 1.457,1.942 1.457,-2.622 1.457,-6.214 1.453,2.871 1.457,0.504 1.457,-1.231 1.453,-5 1.457,0.996 1.457,0.672 1.453,-1.25 1.457,-3.207 1.457,-5.863 1.454,-0.852 1.457,1.012 1.457,-2.602 1.457,-4.32 1.453,-1.601 1.457,-0.957 1.457,-1.762 1.453,-0.102 1.457,-2.211 1.457,-0.308 1.453,-2.52 1.457,-0.824 1.457,-1.816 1.453,-2.375 1.457,-2.129 1.457,-2.711 1.453,2.218 1.458,-6.16 1.457,-5.027 1.457,4.375 1.453,-4.469 1.457,-0.558 1.457,-2.797 1.453,-0.211 1.457,-5.11 1.457,2.301 1.453,-5.406 1.457,2.125 1.457,-7.172 1.453,2.91 1.457,-4.273 1.457,-6.266 1.457,-1.504 1.453,-1.859 1.458,-0.16 1.457,-0.219 1.453,-9.199 1.457,2.453 1.457,-4.516 1.453,-5.539 1.457,2.813 1.457,-1.141 1.453,-4.719 1.457,0.789 1.457,-2.601 1.457,-4.535 1.453,1.488 1.457,-6.051 1.457,-1.906 1.453,1.684 1.457,-3.54 1.458,-4.445 1.453,0.617 1.457,-2.234 1.457,-4.652 1.453,-49.211 1.457,48.734 1.457,-3.762 1.453,-5.707 1.457,0.262 1.457,-25.219 1.457,18.633 1.453,2.535 1.457,-9.644 1.457,-2.098 1.453,-4.418 1.457,-1.375 1.457,2.156 1.454,-9.66 1.457,-1.879 1.457,-3.715 1.453,-0.218 1.457,1.054 1.457,-10.351 1.457,1.64 1.453,-2.132 1.457,-1.36 1.457,-54.113 1.453,46.113 1.457,-29.277 1.457,31.301 1.453,-12.59 1.457,5.883 1.457,-11.102 1.454,7.813 1.457,-12.942 1.457,10.184 1.453,-14.774 1.457,9.727 1.457,-14.785 1.457,10.215 1.453,-13.524 1.457,-25.094 1.457,25.368 1.453,-8.809 1.457,8.547 1.457,-10.332 1.453,-12.301 2.914,10.906 2.911,-13.781 2.914,2.223 2.91,-14.774 2.91,-11.488 2.914,9.816 5.82,-9.031 5.825,-14.992" /><path
         id="path18"
         style="fill:none;stroke:#8fb032;stroke-width:1.60000002;stroke-linecap:square;stroke-linejoin:miter;stroke-miterlimit:3.25;stroke-dasharray:none;stroke-opacity:1"
         d="m 24.914,363.738 0.293,-0.105 0.289,0.183 0.293,0.145 0.289,-0.559 0.293,0.219 0.289,0.246 0.293,-0.41 0.289,0.074 0.293,0.153 0.289,-0.25 0.293,0.164 0.293,-0.317 0.289,0.114 0.293,0.218 0.289,-0.433 0.293,0.285 0.289,-0.391 0.293,0.258 0.289,-0.207 0.293,0.078 0.289,0.024 0.293,-0.145 0.289,0.199 0.293,-0.34 0.293,0.258 0.289,-0.191 0.293,0.133 0.289,-0.172 0.293,-0.039 0.289,0.015 0.293,-0.25 0.289,0.254 0.293,-0.234 0.289,0.234 0.293,-0.234 0.29,0.051 0.293,-0.168 0.292,0.015 0.29,0.192 0.292,-0.243 0.29,-0.21 0.293,0.3 0.289,-0.281 0.293,-0.035 0.289,0.18 0.293,-0.18 0.289,-0.145 0.293,0.321 0.289,-0.184 0.293,-0.176 1.457,0.157 1.453,-0.184 1.457,-0.277 1.457,-0.149 1.453,-0.226 1.457,-0.149 1.457,-0.16 1.457,-0.109 1.453,-0.129 1.457,-0.031 1.457,-0.149 1.453,-0.246 1.457,-0.297 1.457,0.02 1.454,-0.114 1.457,-0.238 1.457,0.027 1.453,-0.464 1.457,0.191 1.457,-0.48 1.453,0.226 1.457,-0.328 1.457,-0.34 1.457,0.207 1.453,-0.23 1.457,-0.282 1.457,-0.261 1.453,-0.211 1.457,-0.238 1.457,-0.059 1.454,-0.117 1.457,-0.184 1.457,-0.058 1.453,-0.157 1.457,-0.074 1.457,-0.199 1.457,-0.324 1.453,-0.043 1.457,-0.121 1.457,-0.235 1.453,-0.012 1.457,-0.339 1.457,0.035 1.453,-0.274 1.457,-0.328 1.457,0.223 1.454,-0.367 1.457,-0.278 1.457,0.125 1.453,-0.047 1.457,-0.281 1.457,-0.219 1.457,-0.203 1.453,-0.14 1.457,-0.098 1.457,-0.121 1.453,-0.043 1.457,-0.547 1.457,-0.238 1.453,0.035 1.457,0.109 1.457,-0.257 1.454,-0.418 1.457,-0.672 1.457,0.14 1.457,0.157 1.453,-0.043 1.457,-0.227 1.457,-0.336 1.453,0.082 1.457,-0.344 1.457,-0.375 1.453,0.368 1.457,-0.215 1.457,-0.133 1.453,-0.148 1.457,0 1.457,-0.098 1.453,-0.266 1.458,-0.082 1.457,-0.199 1.457,-0.5 1.453,-0.289 1.457,0.75 1.457,-0.59 1.453,-0.324 1.457,0.551 1.457,-0.766 1.453,0.008 1.457,-0.231 1.457,0.524 1.453,-0.84 1.457,-0.172 1.457,-0.016 1.457,-0.273 1.453,-0.465 1.458,0.192 1.457,-0.145 1.453,0.102 1.457,-0.75 1.457,-0.067 1.453,-0.207 1.457,0.445 1.457,-0.425 1.453,0.011 1.457,-0.218 1.457,-0.606 1.457,0.559 1.453,-0.211 1.457,-1.621 1.457,1.172 1.453,-0.657 1.457,0.239 1.458,-0.653 1.453,0.309 1.457,-0.774 1.457,0.012 1.453,0.375 1.457,-0.449 1.457,-0.188 1.453,-0.152 1.457,-0.207 1.457,-1.734 1.457,1.918 1.453,-0.328 1.457,-0.059 1.457,-0.457 1.453,-0.004 1.457,0.184 1.457,-0.196 1.454,-0.414 1.457,-0.117 1.457,-0.523 1.453,0.285 1.457,-0.289 1.457,-0.078 1.457,-0.352 1.453,0.121 1.457,-0.578 1.457,0.246 1.453,-0.144 1.457,0.23 1.457,-2.465 1.453,1.274 1.457,0.339 1.457,-0.25 1.454,0.043 1.457,-0.336 1.457,0.071 1.453,-0.844 1.457,-0.027 1.457,-0.16 1.457,0.011 1.453,0.442 1.457,-0.614 1.457,-0.253 1.453,0.363 1.457,-0.586 1.457,1.027 1.453,-1.332 2.914,-0.07 2.911,-0.442 2.914,-0.234 2.91,-0.441 2.91,0.058 2.914,-0.148 2.91,-0.43 2.91,-0.551 2.914,-0.222 2.911,-0.59 2.914,-1.016 2.91,0.367 2.91,-0.777 2.914,-0.074 2.91,-0.543 2.91,0.433 2.914,-0.503 2.91,-0.141 2.915,-0.207 2.91,-0.363 2.91,-0.676 2.914,0.254 2.91,-0.586 2.91,0.078 2.914,-0.969 2.91,-0.25 2.915,0.106 2.91,0.129 2.91,-0.204 2.914,-0.425 2.91,-0.5 2.914,-1.047 2.91,-0.852 2.91,1.039 2.914,-1.191 2.911,-0.539 2.91,0.402 2.914,-0.457 2.91,0.11 2.914,-0.989 2.91,-0.273 2.91,0.054 2.914,-0.191 2.911,-0.41 2.91,-0.469 2.914,0.746 2.91,-1.254 2.914,0.664 2.91,-1.562 2.91,-0.199 2.914,-0.196 2.911,-0.347 2.91,-0.094 2.914,-0.293 2.91,-0.488 2.914,0.164 2.91,-0.989 2.91,0.161 2.914,-0.493 2.911,-0.738 2.914,0.899 2.91,-1.532 2.91,0.032 2.914,-0.219 2.91,-1.336 2.91,0.297 2.914,-0.653 2.911,0.903 2.914,-1.285 2.91,0.136 2.91,-0.722 2.914,1.093 2.91,-0.82 2.91,-0.121 2.914,-0.758 2.911,-0.133 2.914,-0.316 2.91,-0.461 2.91,-0.531 2.914,-1.676 2.91,0.996 2.91,-0.336 2.914,-0.121 2.91,-0.289 2.915,-0.234 2.91,-0.387 2.91,-0.172 2.914,-0.285 2.91,-0.375 2.914,-0.512 2.91,0.031 2.91,0.508 2.915,-2.226 2.91,0.101 2.91,-0.062 2.914,0.636 2.91,-0.984 2.914,-0.496 2.91,-0.02 2.91,-0.128" /><path
         id="path20"
         style="fill:none;stroke:#eb6235;stroke-width:1.60000002;stroke-linecap:square;stroke-linejoin:miter;stroke-miterlimit:3.25;stroke-dasharray:none;stroke-opacity:1"
         d="m 24.914,366.684 0.293,-0.403 0.289,0.399 0.293,-0.032 0.289,-0.656 0.293,0.184 0.289,0.465 0.293,-0.051 0.289,-0.512 0.293,0.504 0.289,-0.008 0.293,-0.566 0.293,0.531 0.289,-0.023 0.293,-0.528 0.289,0.52 0.293,-0.004 0.289,-0.465 0.293,0.438 0.289,-0.586 0.293,0.574 0.289,-0.012 0.293,-0.441 0.289,0.402 0.293,-0.508 0.293,0.492 0.289,-0.589 0.293,0.605 0.289,-0.613 0.293,0.586 0.289,-0.77 0.293,0.742 0.289,-0.773 0.293,0.766 0.289,-0.657 0.293,0.649 0.29,-0.633 0.293,0.574 0.292,-0.558 0.29,0.554 0.292,-0.574 0.29,-0.687 0.293,1.23 0.289,-0.637 0.293,0.594 0.289,-0.465 0.293,-0.64 0.289,1.109 0.293,-0.496 0.289,0.445 0.293,-0.008 1.457,-0.714 1.453,-0.415 1.457,0.95 1.457,-0.219 1.453,-0.442 1.457,-0.23 1.457,-0.738 1.457,0.156 1.453,-0.02 1.457,-0.007 1.457,-0.383 1.453,0.719 1.457,0.179 1.457,0.434 1.454,-1.055 1.457,-0.48 1.457,1.14 1.453,-0.925 1.457,-0.582 1.457,0.425 1.453,-0.175 1.457,0.078 1.457,-0.7 1.457,0.661 1.453,-0.153 1.457,-0.488 1.457,0.379 1.453,-0.168 1.457,0.035 1.457,-0.418 1.454,-0.277 1.457,0.121 1.457,-0.024 1.453,-0.156 1.457,0.176 1.457,0.402 1.457,-0.363 1.453,-0.004 1.457,0.008 1.457,-1.067 1.453,0.825 1.457,0.109 1.457,-1.324 1.453,1.156 1.457,-1.047 1.457,0.844 1.454,-1.91 1.457,1.863 1.457,-0.125 1.453,-0.734 1.457,0.789 1.457,-0.328 1.457,0.047 1.453,0.238 1.457,-1.055 1.457,0.09 1.453,-0.043 1.457,-0.066 1.457,-0.086 1.453,0.828 1.457,-0.539 1.457,-0.016 1.454,-0.254 1.457,-0.394 1.457,0.328 1.457,-0.258 1.453,-0.184 1.457,0.305 1.457,-0.348 1.453,0.344 1.457,-0.594 1.457,0.122 1.453,0.562 1.457,-0.855 1.457,0.222 1.453,0.203 1.457,0.246 1.457,-0.855 1.453,-0.141 1.458,0.293 1.457,-0.09 1.457,-0.21 1.453,-0.25 1.457,0.085 1.457,-0.16 1.453,0.301 1.457,-0.273 1.457,-0.098 1.453,0.086 1.457,-0.102 1.457,-0.007 1.453,0.582 1.457,-0.848 1.457,1.043 1.457,-1.184 1.453,0.008 1.458,-0.437 1.457,-0.11 1.453,0.414 1.457,-0.113 1.457,-0.738 1.453,0.469 1.457,0.011 1.457,-0.066 1.453,-0.004 1.457,-0.02 1.457,-0.043 1.457,-0.093 1.453,-0.016 1.457,-0.637 1.457,0.239 1.453,0.222 1.457,-0.246 1.458,-0.73 1.453,0.91 1.457,-0.281 1.457,0.812 1.453,-1.144 1.457,0.71 1.457,-0.707 1.453,-0.167 1.457,-0.629 1.457,0.769 1.457,-0.129 1.453,0.223 1.457,-0.504 1.457,-0.516 1.453,-0.32 1.457,-0.348 1.457,0.086 1.454,-0.066 1.457,0.215 1.457,0.183 1.453,1.082 1.457,-0.902 1.457,-0.273 1.457,-0.391 1.453,1.184 1.457,-0.872 1.457,-0.214" /><path
         id="path22"
         style="fill:none;stroke:#8778b3;stroke-width:1.60000002;stroke-linecap:square;stroke-linejoin:miter;stroke-miterlimit:3.25;stroke-dasharray:none;stroke-opacity:1"
         d="m 24.914,368.016 0.293,0.004 0.289,-0.004 0.293,-0.004 0.289,-0.004 0.582,0 0.293,-0.004 0.289,0.008 0.293,-0.008 0.582,0 0.293,0.004 0.289,0 0.293,-0.004 0.289,0 0.293,-0.004 0.289,-0.004 0.293,-0.058 0.289,0.058 0.582,0 0.293,-0.004 0.582,0 0.293,-0.004 0.289,-0.043 0.293,0.043 0.289,0.004 0.293,-0.004 0.289,-0.004 0.293,0 0.289,-0.007 0.293,0.007 0.289,-0.05 0.293,0.046 0.29,-0.003 0.293,0 0.292,0.007 0.29,-0.07 0.292,0.059 0.29,0.007 0.293,-0.011 0.289,-0.004 0.293,0.004 0.289,-0.004 0.293,0.004 0.289,0.004 0.293,-0.012 0.289,-0.059 0.293,0.059 1.457,-0.004 2.91,0 1.457,-0.008 1.453,0 2.914,-0.023 1.457,-0.004 1.453,0 1.457,-0.004 1.457,0.004 1.453,-0.016 1.457,-0.004 1.457,-0.007 1.454,0.003 1.457,-0.003 1.457,-0.012 1.453,-0.004 1.457,0 1.457,-0.016 1.453,0 1.457,-0.117 1.457,0.102 1.457,0 1.453,-0.145 1.457,0.121 1.457,0.008 1.453,-0.168 1.457,0.152 1.457,0.004 1.454,-0.015 1.457,-0.004 1.457,0.015 1.453,-0.035 1.457,0.004 1.457,-0.027 1.457,0.012 1.453,-0.004 1.457,-0.024 1.457,-0.137 1.453,0.141 2.914,-0.023 1.453,-0.012 1.457,0.004 1.457,-0.016 1.454,-0.008 1.457,-0.129 1.457,0.145 1.453,-0.031 2.914,0.008 1.457,-0.024 1.453,-0.015 1.457,-0.012 1.457,0.004 1.453,-0.012 1.457,0.004 1.457,-0.012 1.453,-0.008 1.457,-0.367 1.457,0.36 1.454,-0.004 1.457,-0.012 1.457,0 1.457,-0.016 1.453,-0.418 1.457,0.067 1.457,0.332 1.453,0 1.457,-0.008 1.457,-0.359 1.453,0.347 1.457,-0.019 1.457,-0.262 1.453,-0.125 1.457,0.383 1.457,-0.008 1.453,0.008 1.458,-0.317 1.457,0.305 1.457,-0.012 1.453,-0.007 1.457,-0.258 1.457,-0.071 1.453,0.309 1.457,0.008 1.457,-0.219 1.453,0.195 1.457,-0.226 1.457,-0.098 1.453,0.301 1.457,-0.004 1.457,-0.352 1.457,0.344 1.453,-0.015 1.458,-0.004 1.457,0.008 1.453,-0.282 1.457,0.258 1.457,-0.008 1.453,-0.211 1.457,0.192 1.457,0.004 1.453,0.004 1.457,-0.016 1.457,-0.238 1.457,0.234 1.453,-0.008 1.457,-0.008 1.457,-0.011 1.453,-0.016 1.457,0.004 1.458,-0.004 1.453,-0.234 1.457,0.004 1.457,0.05 1.453,0.149 1.457,0 1.457,-0.602 1.453,0.582 1.457,-0.008 1.457,-0.003 1.457,-0.168 1.453,-0.18 1.457,0.316 1.457,0 1.453,-0.019 1.457,-0.219 1.457,0.059 1.454,-0.168 1.457,0.015 1.457,0 1.453,0.285 2.914,-0.015 1.457,-0.235 1.453,0.227 1.457,-0.023 1.457,0.007 1.453,-0.011 1.457,-0.012 1.457,-0.328 1.453,-0.051 1.457,0.359 1.457,-0.011 1.454,0 1.457,-0.012 1.457,0.004 1.453,0.004 1.457,-0.016 1.457,-0.308 1.457,-0.266 1.453,0.273 1.457,-0.031 1.457,-0.051 1.453,-0.062 1.457,-0.028 1.457,-0.273 1.453,0.399 2.914,-0.024 2.911,0.328 2.914,-0.48 2.91,0.101 2.91,0.289 2.914,0.004 2.91,-0.449 2.91,0.055 2.914,-0.34 2.911,0.668 2.914,-0.004 2.91,-0.805 2.91,0.461 2.914,-0.043 2.91,0.328 2.91,-0.629 2.914,0.606 2.91,-0.457 2.915,-0.117 2.91,0.523 2.91,-0.656 2.914,0.246 2.91,0.09 2.91,0.277 2.914,-0.769 2.91,0.734 2.915,0.035 2.91,-0.07 2.91,-0.422 2.914,-0.426 2.91,0.067 2.914,0.722 2.91,-0.48 2.91,0.453 2.914,-0.016 2.911,0.153 2.91,-0.563 2.914,0.379 2.91,-0.019 2.914,-0.008 2.91,0.097 2.91,-1.019 2.914,0.058 2.911,-0.3 2.91,0.785 2.914,0.285 2.91,0 2.914,-0.648 2.91,0.222 2.91,0.387 2.914,-0.399 2.911,-0.558 2.91,0.203 2.914,-0.199 2.91,0 2.914,0.875 2.91,-0.571 2.91,0.54 2.914,-1.133 2.911,0.757 2.914,-0.292 2.91,0.605 2.91,-1.121 2.914,1.109 2.91,0.063 2.91,-1.153 2.914,1.039 2.911,-0.355 2.914,-0.312 2.91,0.625 2.91,-0.645 2.914,0.336 2.91,-0.66 2.91,0.582 2.914,-0.309 2.911,0.614 2.914,-0.149 2.91,-0.496 2.91,-0.109 2.914,-0.399 2.91,0.606 2.91,-0.036 2.914,-0.593 2.91,0.062 2.915,0.36 2.91,-0.438 2.91,0.313 2.914,0.382 2.91,0.34 2.914,-0.027 2.91,-0.34 2.91,-1.219 2.915,0.555 2.91,0.34 2.91,-0.145 2.914,-0.058 2.91,0.551 2.914,-0.09 2.91,-0.371 2.91,0.398" /><path
         id="path24"
         style="fill:none;stroke:#c56e1a;stroke-width:1.60000002;stroke-linecap:square;stroke-linejoin:miter;stroke-miterlimit:3.25;stroke-dasharray:none;stroke-opacity:1"
         d="m 24.914,368.09 0.293,-0.012 0.289,0.02 0.293,-0.012 0.289,-0.008 0.293,-0.016 0.289,0.016 0.293,-0.016 0.289,0.004 0.293,0.012 0.289,0 0.293,-0.012 0.293,-0.004 0.289,0 0.293,0.004 0.289,0.012 0.293,-0.012 0.289,0.008 0.293,0.004 0.289,-0.008 0.293,0 0.289,-0.011 0.293,0.007 0.289,-0.019 0.586,0.015 0.289,-0.007 0.293,-0.008 0.289,0.004 0.293,-0.004 0.289,0.012 0.293,-0.008 0.289,0.011 0.293,0.004 0.289,-0.019 0.293,0.004 0.29,-0.008 0.293,0.031 0.292,-0.012 0.29,-0.015 0.292,-0.008 0.29,0.004 0.293,0 0.289,-0.012 0.293,0.024 0.289,-0.227 0.293,0.211 0.289,0.004 0.293,0.004 0.289,-0.008 0.293,-0.008 1.457,0.008 1.453,-0.012 1.457,0 1.457,0.004 1.453,-0.023 1.457,0.004 1.457,-0.004 1.457,-0.008 1.453,-0.012 1.457,0.004 1.457,0.012 1.453,-0.024 1.457,0.004 1.457,-0.019 1.454,0.004 1.457,-0.008 1.457,0.004 1.453,-0.035 1.457,0.07 1.457,-0.059 1.453,-0.011 1.457,0.004 1.457,-0.004 1.457,-0.344 1.453,0.32 1.457,0 1.457,-0.011 1.453,0.007 2.914,-0.007 1.454,-0.024 1.457,0.012 1.457,-0.008 1.453,0 1.457,-0.004 1.457,0.02 1.457,-0.039 1.453,0 1.457,-0.004 1.457,0.015 1.453,-0.023 1.457,-0.004 1.457,-0.016 1.453,0.004 1.457,0.051 1.457,-0.063 1.454,0.004 1.457,-0.007 1.457,0 1.453,-0.02 1.457,0.016 1.457,0.097 1.457,-0.101 1.453,-0.039 1.457,0.008 1.457,-0.012 1.453,-0.012 1.457,0.016 1.457,-0.008 1.453,-0.008 1.457,-0.023 1.457,0.011 1.454,0.02 1.457,0.004 1.457,-0.039 1.457,0.004 1.453,-0.012 1.457,-0.016 1.457,-0.023 1.453,0.016 1.457,0 1.457,-0.02 1.453,0.02 1.457,-0.004 1.457,-0.012 1.453,-0.449 1.457,0.504 1.457,-0.067 1.453,-0.027 1.458,0.008 1.457,-0.004 1.457,-0.016 1.453,0.184 1.457,-0.184 1.457,0 1.453,-0.008 1.457,-0.011 1.457,0.093 1.453,-0.101 1.457,0 1.457,-0.004 1.453,0.098 1.457,-0.11 1.457,0.016 1.457,-0.02 1.453,0.016 1.458,-0.016 1.457,-0.012 1.453,0.086 1.457,-0.117 1.457,0.024 1.453,0.047 1.457,-0.067 1.457,0 1.453,-0.012 1.457,0.008 1.457,0.117 1.457,-0.121 1.453,-0.011 1.457,0.004 1.457,0 1.453,-0.024 1.457,-0.004 1.458,0.055 1.453,-0.051 1.457,0.063 1.457,-0.079 1.453,0.075 1.457,-0.071 1.457,0.028 1.453,-0.043 1.457,-0.016 1.457,0.012 1.457,-0.031 1.453,-0.743 1.457,0.766 1.457,0.055 1.453,-0.078 1.457,0.007 1.457,0.325 1.454,-0.344 1.457,0.008 1.457,-0.004 1.453,-0.02 1.457,0 1.457,-1.336 1.457,1.34 1.453,0.004 1.457,0.16 1.457,-0.183 1.453,0.015 1.457,0.02 1.457,-0.871 1.453,0.82 1.457,0 1.457,-0.016 1.454,0.188 1.457,-0.172 1.457,-0.02 1.453,-0.003 1.457,-0.012 1.457,0.14 1.457,-1.128 1.453,0.984 1.457,0 1.457,-0.02 1.453,-0.027 1.457,0.027 1.457,0.059 1.453,0.078 2.914,0.074 2.911,-0.902 2.914,-0.344 2.91,-0.492 2.91,-0.047 2.914,0.305 2.91,0.527 2.91,0.903 2.914,-0.067 2.911,-0.094 2.914,-0.105 2.91,-0.031 2.91,0.011 2.914,-0.015 2.91,-1.207 2.91,1.336 2.914,-0.188 2.91,0.024 2.915,-1.914 2.91,2.046 2.91,-0.175 2.914,0 2.91,0.164 2.91,-0.18 2.914,-1.793 2.91,1.793 2.915,-0.031 2.91,0.16 2.91,-0.156 2.914,0.187 2.91,-0.222 2.914,0.242 2.91,-0.254 2.91,0.172 2.914,-0.184 2.911,0.024 2.91,-1.2 2.914,1.145 2.91,0.14 2.914,-2.671 2.91,2.515 2.91,0.098 2.914,0.414 2.911,-0.527 2.91,-0.004 2.914,0.074 2.91,0.195 2.914,-2.476 2.91,2.16 2.91,-0.012 2.914,0.012 2.911,0 2.91,0.101 2.914,0.055 2.91,0.008 2.914,0.031 2.91,0.004 2.91,-0.02 2.914,-0.027 2.911,-0.043 2.914,-0.051 2.91,-0.113 2.91,-0.058 2.914,-0.024 2.91,0.008 2.91,-2.258 2.914,2.512 2.911,-0.102 2.914,-0.195 2.91,-0.012 2.91,0.598 2.914,-0.414 2.91,-0.219 2.91,-1.906 2.914,2.164 2.911,-0.281 2.914,-1.301 2.91,1.465 2.91,-0.2 2.914,0.321 2.91,-0.34 2.91,0.379 2.914,-0.375 2.91,0.387 2.915,-0.418 2.91,0.359 2.91,-0.367 2.914,0.187 2.91,-2.515 2.914,2.32 2.91,0.266 2.91,-0.325 2.915,0.063 2.91,0.293 2.91,-2.43 2.914,2.043 2.91,0.156 2.914,0.231 2.91,-1.68 2.91,1.254" /><path
         id="path26"
         style="fill:none;stroke:#ffffff;stroke-width:4;stroke-linecap:butt;stroke-linejoin:round;stroke-miterlimit:3.25;stroke-dasharray:none;stroke-opacity:1"
         d="m 131.188,261.387 0.242,-0.11 0.707,-0.324 1.152,-0.523 1.582,-0.723 1.996,-0.91 2.383,-1.09 2.754,-1.254 3.105,-1.418 3.442,-1.57 3.754,-1.715 4.05,-1.848 4.325,-1.972 4.582,-2.094 4.82,-2.199 5.039,-2.297 5.238,-2.391 5.418,-2.476 5.582,-2.547 5.723,-2.61 5.848,-2.668 5.949,-2.718 6.039,-2.754 6.102,-2.785 6.148,-2.805 6.176,-2.82 6.187,-2.825 6.176,-2.816 6.148,-2.805 6.098,-2.785 6.031,-2.75 5.946,-2.715 5.84,-2.664 5.714,-2.609 5.571,-2.539 5.406,-2.469 5.227,-2.387 5.023,-2.293 4.805,-2.191 4.57,-2.086 4.332,-1.977 4.109,-1.875 3.899,-1.781 3.695,-1.683 3.5,-1.598 3.32,-1.516 3.153,-1.437 2.988,-1.363 2.84,-1.297 2.699,-1.235 2.574,-1.172 2.453,-1.121 2.348,-1.07 2.25,-1.027 2.164,-0.989 2.09,-0.953 2.023,-0.922 1.969,-0.898 1.926,-0.879 1.894,-0.867 1.872,-0.852 1.855,-0.847 1.859,-0.848 1.868,-0.852 1.886,-0.863 1.918,-0.875 1.957,-0.89 2.008,-0.918 2.074,-0.946 2.145,-0.98 2.23,-1.016 2.321,-1.062 2.429,-1.106 2.543,-1.16 2.668,-1.219 2.805,-1.281 2.953,-1.348 3.109,-1.418 3.266,-1.492 3.414,-1.558 3.559,-1.621 3.683,-1.684 3.813,-1.738 3.926,-1.789 4.031,-1.84 4.129,-1.883 4.219,-1.922 4.3,-1.961 4.375,-1.996 4.438,-2.023 4.496,-2.047 4.543,-2.071 4.582,-2.086 4.613,-2.097 4.637,-2.11 4.652,-2.117 4.657,-2.117 4.652,-2.117 4.644,-2.11 4.621,-2.097 4.598,-2.09 4.559,-2.066 4.515,-2.047 4.465,-2.024 4.399,-1.996 4.332,-1.961 4.254,-1.922 4.168,-1.882 4.074,-1.84 3.969,-1.789 3.859,-1.739 3.738,-1.683 3.61,-1.621 3.472,-1.559 3.328,-1.492 3.176,-1.418 3.016,-1.348 2.867,-1.273 2.715,-1.207 2.574,-1.137 2.434,-1.074 2.296,-1.008 2.165,-0.949 2.039,-0.887 1.914,-0.832 1.793,-0.773 1.683,-0.723 1.567,-0.668 1.464,-0.621 1.36,-0.57 1.262,-0.528 1.171,-0.48 1.079,-0.438 0.992,-0.398 0.914,-0.36 0.832,-0.324 0.762,-0.293 0.695,-0.254 0.629,-0.226 0.566,-0.199 0.512,-0.172 0.461,-0.145 0.414,-0.125 0.367,-0.101 0.328,-0.086 0.297,-0.067 0.262,-0.05 0.234,-0.04 0.215,-0.027 0.195,-0.015 0.18,-0.012 0.172,-0.008 4.879,0" /><path
         id="path28"
         style="fill:none;stroke:#aaaaaa;stroke-width:0.5;stroke-linecap:square;stroke-linejoin:miter;stroke-miterlimit:3.25;stroke-dasharray:none;stroke-opacity:1"
         d="m 131.188,261.387 0.242,-0.11 0.707,-0.324 1.152,-0.523 1.582,-0.723 1.996,-0.91 2.383,-1.09 2.754,-1.254 3.105,-1.418 3.442,-1.57 3.754,-1.715 4.05,-1.848 4.325,-1.972 4.582,-2.094 4.82,-2.199 5.039,-2.297 5.238,-2.391 5.418,-2.476 5.582,-2.547 5.723,-2.61 5.848,-2.668 5.949,-2.718 6.039,-2.754 6.102,-2.785 6.148,-2.805 6.176,-2.82 6.187,-2.825 6.176,-2.816 6.148,-2.805 6.098,-2.785 6.031,-2.75 5.946,-2.715 5.84,-2.664 5.714,-2.609 5.571,-2.539 5.406,-2.469 5.227,-2.387 5.023,-2.293 4.805,-2.191 4.57,-2.086 4.332,-1.977 4.109,-1.875 3.899,-1.781 3.695,-1.683 3.5,-1.598 3.32,-1.516 3.153,-1.437 2.988,-1.363 2.84,-1.297 2.699,-1.235 2.574,-1.172 2.453,-1.121 2.348,-1.07 2.25,-1.027 2.164,-0.989 2.09,-0.953 2.023,-0.922 1.969,-0.898 1.926,-0.879 1.894,-0.867 1.872,-0.852 1.855,-0.847 1.859,-0.848 1.868,-0.852 1.886,-0.863 1.918,-0.875 1.957,-0.89 2.008,-0.918 2.074,-0.946 2.145,-0.98 2.23,-1.016 2.321,-1.062 2.429,-1.106 2.543,-1.16 2.668,-1.219 2.805,-1.281 2.953,-1.348 3.109,-1.418 3.266,-1.492 3.414,-1.558 3.559,-1.621 3.683,-1.684 3.813,-1.738 3.926,-1.789 4.031,-1.84 4.129,-1.883 4.219,-1.922 4.3,-1.961 4.375,-1.996 4.438,-2.023 4.496,-2.047 4.543,-2.071 4.582,-2.086 4.613,-2.097 4.637,-2.11 4.652,-2.117 4.657,-2.117 4.652,-2.117 4.644,-2.11 4.621,-2.097 4.598,-2.09 4.559,-2.066 4.515,-2.047 4.465,-2.024 4.399,-1.996 4.332,-1.961 4.254,-1.922 4.168,-1.882 4.074,-1.84 3.969,-1.789 3.859,-1.739 3.738,-1.683 3.61,-1.621 3.472,-1.559 3.328,-1.492 3.176,-1.418 3.016,-1.348 2.867,-1.273 2.715,-1.207 2.574,-1.137 2.434,-1.074 2.296,-1.008 2.165,-0.949 2.039,-0.887 1.914,-0.832 1.793,-0.773 1.683,-0.723 1.567,-0.668 1.464,-0.621 1.36,-0.57 1.262,-0.528 1.171,-0.48 1.079,-0.438 0.992,-0.398 0.914,-0.36 0.832,-0.324 0.762,-0.293 0.695,-0.254 0.629,-0.226 0.566,-0.199 0.512,-0.172 0.461,-0.145 0.414,-0.125 0.367,-0.101 0.328,-0.086 0.297,-0.067 0.262,-0.05 0.234,-0.04 0.215,-0.027 0.195,-0.015 0.18,-0.012 0.172,-0.008 4.879,0" /><path
         id="path30"
         style="fill:#ffffff;fill-opacity:0.66666697;fill-rule:nonzero;stroke:none"
         d="m 613.883,37.668 106,0 0,16 -106,0 0,-16 z" /><text
         id="text32"
         style="font-variant:normal;font-size:9px;font-family:CairoFont-0;-inkscape-font-specification:CairoFont-0-1;writing-mode:lr-tb;fill:#5e81b5;fill-opacity:1;fill-rule:nonzero;stroke:none"
         transform="translate(615.88386,48.785123)"><tspan
           id="tspan34"
           y="0"
           x="0">■</tspan></text>
<text
         id="text36"
         style="font-variant:normal;font-size:9px;font-family:CairoFont-1;-inkscape-font-specification:CairoFont-1-0;writing-mode:lr-tb;fill:#000000;fill-opacity:1;fill-rule:nonzero;stroke:none"
         transform="translate(623.78621,48.785123)"><tspan
           id="tspan38"
           y="0"
           x="0 5.994 10.998 13.995 18.495001 20.493 25.497 30.500999 36.494999 38.493 43.497002 48.500999 53.505001 56.501999 61.506001 63.999001 69.002998">ParsingElaborated</tspan></text>
<path
         id="path40"
         style="fill:none;stroke:#ffffff;stroke-width:4;stroke-linecap:butt;stroke-linejoin:round;stroke-miterlimit:3.25;stroke-dasharray:none;stroke-opacity:1"
         d="m 301.52,45.668 0.222,0.156 0.649,0.461 1.05,0.754 1.442,1.027 1.805,1.286 2.144,1.531 2.469,1.762 2.765,1.972 3.047,2.176 3.305,2.359 3.543,2.524 3.758,2.683 3.953,2.821 4.125,2.941 4.281,3.055 4.406,3.144 4.524,3.227 4.605,3.285 4.676,3.336 4.723,3.371 4.75,3.387 4.75,3.39 4.738,3.379 4.695,3.352 4.641,3.308 4.555,3.25 4.457,3.18 4.332,3.094 4.191,2.988 4.024,2.871 3.839,2.739 3.629,2.589 3.414,2.434 3.203,2.285 3.004,2.145 2.817,2.008 2.64,1.886 2.481,1.766 2.324,1.664 2.188,1.558 2.062,1.469 1.942,1.387 1.839,1.312 1.746,1.247 1.668,1.191 1.598,1.137 1.539,1.097 1.492,1.067 1.461,1.043 1.438,1.027 1.429,1.016 1.426,1.019 1.446,1.031 1.464,1.047 1.504,1.071 1.551,1.109 1.613,1.148 1.684,1.204 1.769,1.261 1.864,1.328 1.972,1.407 2.086,1.492 2.223,1.582 2.363,1.687 2.508,1.789 2.641,1.883 2.773,1.977 2.891,2.062 2.996,2.137 3.098,2.211 3.187,2.27 3.27,2.328 3.343,2.379 3.403,2.425 3.457,2.457 3.5,2.493 3.535,2.511 3.562,2.532 3.578,2.539 3.586,2.543 3.582,2.543 3.571,2.527 3.551,2.515 3.519,2.489 3.484,2.461 3.434,2.422 3.375,2.378 3.309,2.329 3.23,2.273 3.149,2.207 3.05,2.141 2.95,2.058 2.835,1.977 2.715,1.887 2.582,1.789 2.442,1.683 2.297,1.582 2.164,1.481 2.031,1.379 1.902,1.289 1.778,1.195 1.66,1.109 1.547,1.024 1.437,0.941 1.332,0.864 1.231,0.789 1.136,0.718 1.043,0.653 0.961,0.586 0.875,0.527 0.801,0.465 0.727,0.414 0.66,0.363 0.597,0.317 0.54,0.269 0.484,0.231 0.433,0.191 0.391,0.156 0.352,0.129 0.312,0.098 0.285,0.078 0.258,0.055 0.238,0.035 0.219,0.023 0.207,0.012 0.199,0.008 4.817,0" /><path
         id="path42"
         style="fill:none;stroke:#aaaaaa;stroke-width:0.5;stroke-linecap:square;stroke-linejoin:miter;stroke-miterlimit:3.25;stroke-dasharray:none;stroke-opacity:1"
         d="m 301.52,45.668 0.222,0.156 0.649,0.461 1.05,0.754 1.442,1.027 1.805,1.286 2.144,1.531 2.469,1.762 2.765,1.972 3.047,2.176 3.305,2.359 3.543,2.524 3.758,2.683 3.953,2.821 4.125,2.941 4.281,3.055 4.406,3.144 4.524,3.227 4.605,3.285 4.676,3.336 4.723,3.371 4.75,3.387 4.75,3.39 4.738,3.379 4.695,3.352 4.641,3.308 4.555,3.25 4.457,3.18 4.332,3.094 4.191,2.988 4.024,2.871 3.839,2.739 3.629,2.589 3.414,2.434 3.203,2.285 3.004,2.145 2.817,2.008 2.64,1.886 2.481,1.766 2.324,1.664 2.188,1.558 2.062,1.469 1.942,1.387 1.839,1.312 1.746,1.247 1.668,1.191 1.598,1.137 1.539,1.097 1.492,1.067 1.461,1.043 1.438,1.027 1.429,1.016 1.426,1.019 1.446,1.031 1.464,1.047 1.504,1.071 1.551,1.109 1.613,1.148 1.684,1.204 1.769,1.261 1.864,1.328 1.972,1.407 2.086,1.492 2.223,1.582 2.363,1.687 2.508,1.789 2.641,1.883 2.773,1.977 2.891,2.062 2.996,2.137 3.098,2.211 3.187,2.27 3.27,2.328 3.343,2.379 3.403,2.425 3.457,2.457 3.5,2.493 3.535,2.511 3.562,2.532 3.578,2.539 3.586,2.543 3.582,2.543 3.571,2.527 3.551,2.515 3.519,2.489 3.484,2.461 3.434,2.422 3.375,2.378 3.309,2.329 3.23,2.273 3.149,2.207 3.05,2.141 2.95,2.058 2.835,1.977 2.715,1.887 2.582,1.789 2.442,1.683 2.297,1.582 2.164,1.481 2.031,1.379 1.902,1.289 1.778,1.195 1.66,1.109 1.547,1.024 1.437,0.941 1.332,0.864 1.231,0.789 1.136,0.718 1.043,0.653 0.961,0.586 0.875,0.527 0.801,0.465 0.727,0.414 0.66,0.363 0.597,0.317 0.54,0.269 0.484,0.231 0.433,0.191 0.391,0.156 0.352,0.129 0.312,0.098 0.285,0.078 0.258,0.055 0.238,0.035 0.219,0.023 0.207,0.012 0.199,0.008 4.817,0" /><path
         id="path44"
         style="fill:#ffffff;fill-opacity:0.66666697;fill-rule:nonzero;stroke:none"
         d="m 613.883,253.387 156,0 0,16 -156,0 0,-16 z" /><text
         id="text46"
         style="font-variant:normal;font-size:9px;font-family:CairoFont-0;-inkscape-font-specification:CairoFont-0-1;writing-mode:lr-tb;fill:#e19c24;fill-opacity:1;fill-rule:nonzero;stroke:none"
         transform="translate(615.88386,264.50318)"><tspan
           id="tspan48"
           y="0"
           x="0">■</tspan></text>
<text
         id="text50"
         style="font-variant:normal;font-size:9px;font-family:CairoFont-1;-inkscape-font-specification:CairoFont-1-0;writing-mode:lr-tb;fill:#000000;fill-opacity:1;fill-rule:nonzero;stroke:none"
         transform="translate(623.78621,264.50318)"><tspan
           id="tspan52"
           y="0"
           x="0 5.994 10.998 13.995 18.999001 26.496 31.5 33.993 36.990002 38.987999 43.487999 45.486 47.979">Parametricity</tspan></text>
<text
         id="text54"
         style="font-variant:normal;font-size:9px;font-family:CairoFont-2;-inkscape-font-specification:CairoFont-2-0;writing-mode:lr-tb;fill:#000000;fill-opacity:1;fill-rule:nonzero;stroke:none"
         transform="translate(678.76721,264.50318)"><tspan
           id="tspan56"
           y="0"
           x="0">(</tspan></text>
<text
         id="text58"
         style="font-variant:normal;font-size:9px;font-family:CairoFont-1;-inkscape-font-specification:CairoFont-1-0;writing-mode:lr-tb;fill:#000000;fill-opacity:1;fill-rule:nonzero;stroke:none"
         transform="translate(681.76421,264.50318)"><tspan
           id="tspan60"
           y="0"
           x="0 2.997 8.0010004 13.005 18.009001 22.509001 27.513 35.019001 37.512001 42.515999 45.513">reducedterm</tspan></text>
<text
         id="text62"
         style="font-variant:normal;font-size:9px;font-family:CairoFont-2;-inkscape-font-specification:CairoFont-2-0;writing-mode:lr-tb;fill:#000000;fill-opacity:1;fill-rule:nonzero;stroke:none"
         transform="translate(734.77421,264.50318)"><tspan
           id="tspan64"
           y="0"
           x="0">)</tspan></text>
<path
         id="path66"
         style="fill:none;stroke:#ffffff;stroke-width:4;stroke-linecap:butt;stroke-linejoin:round;stroke-miterlimit:3.25;stroke-dasharray:none;stroke-opacity:1"
         d="m 563.566,307.684 50.317,0" /><path
         id="path68"
         style="fill:none;stroke:#aaaaaa;stroke-width:0.5;stroke-linecap:square;stroke-linejoin:miter;stroke-miterlimit:3.25;stroke-dasharray:none;stroke-opacity:1"
         d="m 563.566,307.684 50.317,0" /><path
         id="path70"
         style="fill:#ffffff;fill-opacity:0.66666697;fill-rule:nonzero;stroke:none"
         d="m 613.883,300.684 89,0 0,14 -89,0 0,-14 z" /><text
         id="text72"
         style="font-variant:normal;font-size:9px;font-family:CairoFont-0;-inkscape-font-specification:CairoFont-0-1;writing-mode:lr-tb;fill:#8fb032;fill-opacity:1;fill-rule:nonzero;stroke:none"
         transform="translate(615.88386,310.80179)"><tspan
           id="tspan74"
           y="0"
           x="0">■</tspan></text>
<text
         id="text76"
         style="font-variant:normal;font-size:9px;font-family:CairoFont-1;-inkscape-font-specification:CairoFont-1-0;writing-mode:lr-tb;fill:#000000;fill-opacity:1;fill-rule:nonzero;stroke:none"
         transform="translate(623.78621,310.80179)"><tspan
           id="tspan78"
           y="0"
           x="0 5.0040002 7.4970002 12.501 17.000999 22.004999 27.009001 32.013 38.511002 43.514999 48.519001 53.019001 58.022999">Ltac2LowLevel</tspan></text>
<path
         id="path80"
         style="fill:none;stroke:#ffffff;stroke-width:4;stroke-linecap:butt;stroke-linejoin:round;stroke-miterlimit:3.25;stroke-dasharray:none;stroke-opacity:1"
         d="m 243.289,355.766 0.262,-0.012 0.773,-0.043 1.258,-0.07 1.715,-0.098 2.152,-0.117 2.559,-0.145 2.941,-0.164 3.301,-0.183 3.633,-0.204 3.945,-0.218 4.223,-0.235 4.48,-0.25 4.715,-0.261 4.922,-0.274 5.102,-0.285 5.257,-0.293 5.391,-0.301 5.496,-0.304 5.578,-0.313 5.633,-0.312 5.66,-0.317 5.668,-0.316 5.649,-0.313 5.601,-0.312 5.531,-0.309 5.434,-0.301 5.316,-0.296 5.168,-0.29 4.996,-0.277 4.801,-0.265 4.578,-0.258 4.328,-0.239 4.071,-0.226 3.816,-0.215 3.582,-0.199 3.36,-0.188 3.152,-0.175 2.957,-0.165 2.773,-0.152 2.61,-0.148 2.457,-0.137 2.32,-0.129 2.192,-0.121 2.082,-0.117 1.988,-0.11 1.906,-0.105 1.836,-0.102 1.781,-0.101 1.739,-0.094 1.714,-0.098 1.704,-0.093 1.707,-0.094 1.718,-0.098 1.75,-0.097 1.793,-0.098 1.852,-0.106 1.922,-0.105 2.008,-0.113 2.109,-0.117 2.223,-0.126 2.351,-0.128 2.488,-0.141 2.649,-0.145 2.82,-0.16 2.988,-0.164 3.153,-0.176 6.75,-0.375 3.578,-0.199 3.691,-0.207 3.805,-0.211 3.895,-0.218 3.984,-0.219 4.059,-0.227 4.121,-0.23 4.171,-0.231 4.215,-0.234 4.246,-0.235 4.262,-0.238 4.274,-0.234 4.265,-0.238 4.254,-0.235 4.231,-0.234 4.191,-0.231 4.148,-0.23 4.086,-0.227 4.02,-0.218 3.937,-0.219 3.844,-0.211 3.746,-0.207 3.629,-0.199 3.504,-0.192 3.371,-0.183 3.219,-0.176 3.066,-0.164 2.895,-0.16 2.726,-0.145 2.563,-0.137 2.402,-0.129 2.25,-0.121 2.102,-0.113 1.961,-0.101 1.82,-0.094 1.691,-0.09 1.567,-0.078 1.445,-0.074 1.328,-0.067 1.223,-0.062 1.117,-0.055 1.02,-0.047 0.925,-0.047 0.84,-0.035 0.758,-0.035 0.68,-0.031 0.613,-0.024 0.547,-0.019 0.484,-0.02 0.434,-0.015 0.387,-0.012 0.339,-0.008 0.305,-0.008 0.274,-0.004 0.246,-0.004 0.222,-0.003 5.231,0" /><path
         id="path82"
         style="fill:none;stroke:#aaaaaa;stroke-width:0.5;stroke-linecap:square;stroke-linejoin:miter;stroke-miterlimit:3.25;stroke-dasharray:none;stroke-opacity:1"
         d="m 243.289,355.766 0.262,-0.012 0.773,-0.043 1.258,-0.07 1.715,-0.098 2.152,-0.117 2.559,-0.145 2.941,-0.164 3.301,-0.183 3.633,-0.204 3.945,-0.218 4.223,-0.235 4.48,-0.25 4.715,-0.261 4.922,-0.274 5.102,-0.285 5.257,-0.293 5.391,-0.301 5.496,-0.304 5.578,-0.313 5.633,-0.312 5.66,-0.317 5.668,-0.316 5.649,-0.313 5.601,-0.312 5.531,-0.309 5.434,-0.301 5.316,-0.296 5.168,-0.29 4.996,-0.277 4.801,-0.265 4.578,-0.258 4.328,-0.239 4.071,-0.226 3.816,-0.215 3.582,-0.199 3.36,-0.188 3.152,-0.175 2.957,-0.165 2.773,-0.152 2.61,-0.148 2.457,-0.137 2.32,-0.129 2.192,-0.121 2.082,-0.117 1.988,-0.11 1.906,-0.105 1.836,-0.102 1.781,-0.101 1.739,-0.094 1.714,-0.098 1.704,-0.093 1.707,-0.094 1.718,-0.098 1.75,-0.097 1.793,-0.098 1.852,-0.106 1.922,-0.105 2.008,-0.113 2.109,-0.117 2.223,-0.126 2.351,-0.128 2.488,-0.141 2.649,-0.145 2.82,-0.16 2.988,-0.164 3.153,-0.176 6.75,-0.375 3.578,-0.199 3.691,-0.207 3.805,-0.211 3.895,-0.218 3.984,-0.219 4.059,-0.227 4.121,-0.23 4.171,-0.231 4.215,-0.234 4.246,-0.235 4.262,-0.238 4.274,-0.234 4.265,-0.238 4.254,-0.235 4.231,-0.234 4.191,-0.231 4.148,-0.23 4.086,-0.227 4.02,-0.218 3.937,-0.219 3.844,-0.211 3.746,-0.207 3.629,-0.199 3.504,-0.192 3.371,-0.183 3.219,-0.176 3.066,-0.164 2.895,-0.16 2.726,-0.145 2.563,-0.137 2.402,-0.129 2.25,-0.121 2.102,-0.113 1.961,-0.101 1.82,-0.094 1.691,-0.09 1.567,-0.078 1.445,-0.074 1.328,-0.067 1.223,-0.062 1.117,-0.055 1.02,-0.047 0.925,-0.047 0.84,-0.035 0.758,-0.035 0.68,-0.031 0.613,-0.024 0.547,-0.019 0.484,-0.02 0.434,-0.015 0.387,-0.012 0.339,-0.008 0.305,-0.008 0.274,-0.004 0.246,-0.004 0.222,-0.003 5.231,0" /><path
         id="path84"
         style="fill:#ffffff;fill-opacity:0.66666697;fill-rule:nonzero;stroke:none"
         d="m 613.883,327.688 81,0 0,16 -81,0 0,-16 z" /><text
         id="text86"
         style="font-variant:normal;font-size:9px;font-family:CairoFont-0;-inkscape-font-specification:CairoFont-0-1;writing-mode:lr-tb;fill:#eb6235;fill-opacity:1;fill-rule:nonzero;stroke:none"
         transform="translate(615.88386,338.80407)"><tspan
           id="tspan88"
           y="0"
           x="0">■</tspan></text>
<text
         id="text90"
         style="font-variant:normal;font-size:9px;font-family:CairoFont-1;-inkscape-font-specification:CairoFont-1-0;writing-mode:lr-tb;fill:#000000;fill-opacity:1;fill-rule:nonzero;stroke:none"
         transform="translate(623.78621,338.80407)"><tspan
           id="tspan92"
           y="0"
           x="0 5.4899998 10.494 17.990999 22.995001 24.993 29.997 32.490002 37.493999 43.992001 48.995998">TemplateCoq</tspan></text>
<path
         id="path94"
         style="fill:none;stroke:#ffffff;stroke-width:4;stroke-linecap:butt;stroke-linejoin:round;stroke-miterlimit:3.25;stroke-dasharray:none;stroke-opacity:1"
         d="m 563.566,365.375 0.278,-0.09 0.773,-0.262 1.18,-0.398 1.508,-0.504 1.746,-0.59 1.902,-0.636 1.969,-0.665 1.953,-0.656 1.848,-0.621 1.66,-0.558 1.398,-0.473 1.149,-0.383 0.941,-0.316 0.785,-0.266 0.672,-0.227 0.61,-0.203 0.597,-0.203 0.629,-0.211 0.707,-0.238 0.836,-0.277 1.004,-0.34 1.18,-0.395 1.32,-0.441 1.43,-0.473 1.5,-0.492 1.543,-0.496 1.55,-0.492 1.524,-0.473 1.461,-0.441 1.375,-0.395 1.246,-0.34 1.109,-0.277 0.989,-0.219 0.878,-0.172 0.793,-0.125 0.719,-0.089 0.664,-0.059 0.625,-0.035 0.602,-0.02 0.597,-0.004 5.067,0" /><path
         id="path96"
         style="fill:none;stroke:#aaaaaa;stroke-width:0.5;stroke-linecap:square;stroke-linejoin:miter;stroke-miterlimit:3.25;stroke-dasharray:none;stroke-opacity:1"
         d="m 563.566,365.375 0.278,-0.09 0.773,-0.262 1.18,-0.398 1.508,-0.504 1.746,-0.59 1.902,-0.636 1.969,-0.665 1.953,-0.656 1.848,-0.621 1.66,-0.558 1.398,-0.473 1.149,-0.383 0.941,-0.316 0.785,-0.266 0.672,-0.227 0.61,-0.203 0.597,-0.203 0.629,-0.211 0.707,-0.238 0.836,-0.277 1.004,-0.34 1.18,-0.395 1.32,-0.441 1.43,-0.473 1.5,-0.492 1.543,-0.496 1.55,-0.492 1.524,-0.473 1.461,-0.441 1.375,-0.395 1.246,-0.34 1.109,-0.277 0.989,-0.219 0.878,-0.172 0.793,-0.125 0.719,-0.089 0.664,-0.059 0.625,-0.035 0.602,-0.02 0.597,-0.004 5.067,0" /><path
         id="path98"
         style="fill:#ffffff;fill-opacity:0.66666697;fill-rule:nonzero;stroke:none"
         d="m 613.883,343.82 168,0 0,16 -168,0 0,-16 z" /><text
         id="text100"
         style="font-variant:normal;font-size:9px;font-family:CairoFont-0;-inkscape-font-specification:CairoFont-0-1;writing-mode:lr-tb;fill:#8778b3;fill-opacity:1;fill-rule:nonzero;stroke:none"
         transform="translate(615.88386,354.93616)"><tspan
           id="tspan102"
           y="0"
           x="0">■</tspan></text>
<text
         id="text104"
         style="font-variant:normal;font-size:9px;font-family:CairoFont-1;-inkscape-font-specification:CairoFont-1-0;writing-mode:lr-tb;fill:#000000;fill-opacity:1;fill-rule:nonzero;stroke:none"
         transform="translate(623.78621,354.93616)"><tspan
           id="tspan106"
           y="0"
           x="0 5.994 10.998 13.995 18.999001 26.496 31.5 33.993 36.990002 38.987999 43.487999 45.486 47.979">Parametricity</tspan></text>
<text
         id="text108"
         style="font-variant:normal;font-size:9px;font-family:CairoFont-2;-inkscape-font-specification:CairoFont-2-0;writing-mode:lr-tb;fill:#000000;fill-opacity:1;fill-rule:nonzero;stroke:none"
         transform="translate(678.76721,354.93616)"><tspan
           id="tspan110"
           y="0"
           x="0">(</tspan></text>
<text
         id="text112"
         style="font-variant:normal;font-size:9px;font-family:CairoFont-1;-inkscape-font-specification:CairoFont-1-0;writing-mode:lr-tb;fill:#000000;fill-opacity:1;fill-rule:nonzero;stroke:none"
         transform="translate(681.76421,354.93616)"><tspan
           id="tspan114"
           y="0"
           x="0 5.0040002 10.008 13.005 18.009001 23.013 28.017 32.516998 37.521 45.035999 47.528999 52.533001 55.529999">unreducedterm</tspan></text>
<text
         id="text116"
         style="font-variant:normal;font-size:9px;font-family:CairoFont-2;-inkscape-font-specification:CairoFont-2-0;writing-mode:lr-tb;fill:#000000;fill-opacity:1;fill-rule:nonzero;stroke:none"
         transform="translate(744.79121,354.93616)"><tspan
           id="tspan118"
           y="0"
           x="0">)</tspan></text>
<path
         id="path120"
         style="fill:none;stroke:#ffffff;stroke-width:4;stroke-linecap:butt;stroke-linejoin:round;stroke-miterlimit:3.25;stroke-dasharray:none;stroke-opacity:1"
         d="m 563.566,366.414 0.278,0.004 0.773,0.012 1.18,0.019 1.508,0.024 1.746,0.027 1.902,0.027 1.969,0.032 1.953,0.031 1.848,0.027 1.66,0.028 1.398,0.019 1.149,0.02 0.941,0.015 0.785,0.012 0.672,0.008 0.61,0.011 0.597,0.008 0.629,0.012 0.707,0.008 0.836,0.015 1.004,0.016 1.18,0.016 1.32,0.023 1.43,0.02 1.5,0.023 1.543,0.024 1.55,0.023 1.524,0.02 1.461,0.019 1.375,0.02 1.246,0.015 1.109,0.012 0.989,0.012 0.878,0.007 0.793,0.008 0.719,0.004 0.664,0 0.625,0.004 6.266,0" /><path
         id="path122"
         style="fill:none;stroke:#aaaaaa;stroke-width:0.5;stroke-linecap:square;stroke-linejoin:miter;stroke-miterlimit:3.25;stroke-dasharray:none;stroke-opacity:1"
         d="m 563.566,366.414 0.278,0.004 0.773,0.012 1.18,0.019 1.508,0.024 1.746,0.027 1.902,0.027 1.969,0.032 1.953,0.031 1.848,0.027 1.66,0.028 1.398,0.019 1.149,0.02 0.941,0.015 0.785,0.012 0.672,0.008 0.61,0.011 0.597,0.008 0.629,0.012 0.707,0.008 0.836,0.015 1.004,0.016 1.18,0.016 1.32,0.023 1.43,0.02 1.5,0.023 1.543,0.024 1.55,0.023 1.524,0.02 1.461,0.019 1.375,0.02 1.246,0.015 1.109,0.012 0.989,0.012 0.878,0.007 0.793,0.008 0.719,0.004 0.664,0 0.625,0.004 6.266,0" /><path
         id="path124"
         style="fill:#ffffff;fill-opacity:0.66666697;fill-rule:nonzero;stroke:none"
         d="m 613.883,360.039 50,0 0,14 -50,0 0,-14 z" /><text
         id="text126"
         style="font-variant:normal;font-size:9px;font-family:CairoFont-0;-inkscape-font-specification:CairoFont-0-1;writing-mode:lr-tb;fill:#c56e1a;fill-opacity:1;fill-rule:nonzero;stroke:none"
         transform="translate(615.88386,370.15623)"><tspan
           id="tspan128"
           y="0"
           x="0">■</tspan></text>
<text
         id="text130"
         style="font-variant:normal;font-size:9px;font-family:CairoFont-1;-inkscape-font-specification:CairoFont-1-0;writing-mode:lr-tb;fill:#000000;fill-opacity:1;fill-rule:nonzero;stroke:none"
         transform="translate(623.78621,370.15623)"><tspan
           id="tspan132"
           y="0"
           x="0 6.993 13.491 18.495001 25.992001">OCaml</tspan></text>
<path
         id="path134"
         style="fill:none;stroke:#000000;stroke-width:0.5;stroke-linecap:butt;stroke-linejoin:miter;stroke-miterlimit:3.25;stroke-dasharray:none;stroke-opacity:1"
         d="m 39.473,368.168 0,-2.406" /><path
         id="path136"
         style="fill:none;stroke:#000000;stroke-width:0.5;stroke-linecap:butt;stroke-linejoin:miter;stroke-miterlimit:3.25;stroke-dasharray:none;stroke-opacity:1"
         d="m 68.59,368.168 0,-2.406" /><path
         id="path138"
         style="fill:none;stroke:#000000;stroke-width:0.5;stroke-linecap:butt;stroke-linejoin:miter;stroke-miterlimit:3.25;stroke-dasharray:none;stroke-opacity:1"
         d="m 97.707,368.168 0,-2.406" /><path
         id="path140"
         style="fill:none;stroke:#000000;stroke-width:0.5;stroke-linecap:butt;stroke-linejoin:miter;stroke-miterlimit:3.25;stroke-dasharray:none;stroke-opacity:1"
         d="m 126.82,368.168 0,-4.012" /><text
         id="text142"
         style="font-variant:normal;font-size:9px;font-family:CairoFont-1;-inkscape-font-specification:CairoFont-1-0;writing-mode:lr-tb;fill:#000000;fill-opacity:1;fill-rule:nonzero;stroke:none"
         transform="translate(116.81013,379.31023)"><tspan
           id="tspan144"
           y="0"
           x="0 5.0040002 10.008 15.012">5000</tspan></text>
<path
         id="path146"
         style="fill:none;stroke:#000000;stroke-width:0.5;stroke-linecap:butt;stroke-linejoin:miter;stroke-miterlimit:3.25;stroke-dasharray:none;stroke-opacity:1"
         d="m 155.938,368.168 0,-2.406" /><path
         id="path148"
         style="fill:none;stroke:#000000;stroke-width:0.5;stroke-linecap:butt;stroke-linejoin:miter;stroke-miterlimit:3.25;stroke-dasharray:none;stroke-opacity:1"
         d="m 185.055,368.168 0,-2.406" /><path
         id="path150"
         style="fill:none;stroke:#000000;stroke-width:0.5;stroke-linecap:butt;stroke-linejoin:miter;stroke-miterlimit:3.25;stroke-dasharray:none;stroke-opacity:1"
         d="m 214.172,368.168 0,-2.406" /><path
         id="path152"
         style="fill:none;stroke:#000000;stroke-width:0.5;stroke-linecap:butt;stroke-linejoin:miter;stroke-miterlimit:3.25;stroke-dasharray:none;stroke-opacity:1"
         d="m 243.289,368.168 0,-2.406" /><path
         id="path154"
         style="fill:none;stroke:#000000;stroke-width:0.5;stroke-linecap:butt;stroke-linejoin:miter;stroke-miterlimit:3.25;stroke-dasharray:none;stroke-opacity:1"
         d="m 272.402,368.168 0,-4.012" /><text
         id="text156"
         style="font-variant:normal;font-size:9px;font-family:CairoFont-1;-inkscape-font-specification:CairoFont-1-0;writing-mode:lr-tb;fill:#000000;fill-opacity:1;fill-rule:nonzero;stroke:none"
         transform="translate(259.26437,379.31023)"><tspan
           id="tspan158"
           y="0"
           x="0 5.0040002 11.259 16.263 21.267">10000</tspan></text>
<path
         id="path160"
         style="fill:none;stroke:#000000;stroke-width:0.5;stroke-linecap:butt;stroke-linejoin:miter;stroke-miterlimit:3.25;stroke-dasharray:none;stroke-opacity:1"
         d="m 301.52,368.168 0,-2.406" /><path
         id="path162"
         style="fill:none;stroke:#000000;stroke-width:0.5;stroke-linecap:butt;stroke-linejoin:miter;stroke-miterlimit:3.25;stroke-dasharray:none;stroke-opacity:1"
         d="m 330.637,368.168 0,-2.406" /><path
         id="path164"
         style="fill:none;stroke:#000000;stroke-width:0.5;stroke-linecap:butt;stroke-linejoin:miter;stroke-miterlimit:3.25;stroke-dasharray:none;stroke-opacity:1"
         d="m 359.754,368.168 0,-2.406" /><path
         id="path166"
         style="fill:none;stroke:#000000;stroke-width:0.5;stroke-linecap:butt;stroke-linejoin:miter;stroke-miterlimit:3.25;stroke-dasharray:none;stroke-opacity:1"
         d="m 388.871,368.168 0,-2.406" /><path
         id="path168"
         style="fill:none;stroke:#000000;stroke-width:0.5;stroke-linecap:butt;stroke-linejoin:miter;stroke-miterlimit:3.25;stroke-dasharray:none;stroke-opacity:1"
         d="m 417.984,368.168 0,-4.012" /><text
         id="text170"
         style="font-variant:normal;font-size:9px;font-family:CairoFont-1;-inkscape-font-specification:CairoFont-1-0;writing-mode:lr-tb;fill:#000000;fill-opacity:1;fill-rule:nonzero;stroke:none"
         transform="translate(404.8463,379.31023)"><tspan
           id="tspan172"
           y="0"
           x="0 5.0040002 11.259 16.263 21.267">15000</tspan></text>
<path
         id="path174"
         style="fill:none;stroke:#000000;stroke-width:0.5;stroke-linecap:butt;stroke-linejoin:miter;stroke-miterlimit:3.25;stroke-dasharray:none;stroke-opacity:1"
         d="m 447.102,368.168 0,-2.406" /><path
         id="path176"
         style="fill:none;stroke:#000000;stroke-width:0.5;stroke-linecap:butt;stroke-linejoin:miter;stroke-miterlimit:3.25;stroke-dasharray:none;stroke-opacity:1"
         d="m 476.219,368.168 0,-2.406" /><path
         id="path178"
         style="fill:none;stroke:#000000;stroke-width:0.5;stroke-linecap:butt;stroke-linejoin:miter;stroke-miterlimit:3.25;stroke-dasharray:none;stroke-opacity:1"
         d="m 505.336,368.168 0,-2.406" /><path
         id="path180"
         style="fill:none;stroke:#000000;stroke-width:0.5;stroke-linecap:butt;stroke-linejoin:miter;stroke-miterlimit:3.25;stroke-dasharray:none;stroke-opacity:1"
         d="m 534.453,368.168 0,-2.406" /><path
         id="path182"
         style="fill:none;stroke:#000000;stroke-width:0.5;stroke-linecap:butt;stroke-linejoin:miter;stroke-miterlimit:3.25;stroke-dasharray:none;stroke-opacity:1"
         d="m 563.566,368.168 0,-4.012" /><text
         id="text184"
         style="font-variant:normal;font-size:9px;font-family:CairoFont-1;-inkscape-font-specification:CairoFont-1-0;writing-mode:lr-tb;fill:#000000;fill-opacity:1;fill-rule:nonzero;stroke:none"
         transform="translate(550.42823,379.31023)"><tspan
           id="tspan186"
           y="0"
           x="0 5.0040002 11.259 16.263 21.267">20000</tspan></text>
<path
         id="path188"
         style="fill:none;stroke:#000000;stroke-width:0.5;stroke-linecap:butt;stroke-linejoin:miter;stroke-miterlimit:3.25;stroke-dasharray:none;stroke-opacity:1"
         d="m 13.691,368.168 561.098,0" /><text
         id="text190"
         style="font-variant:normal;font-size:9px;font-family:CairoFont-3;-inkscape-font-specification:CairoFont-3-0;writing-mode:lr-tb;fill:#000000;fill-opacity:1;fill-rule:nonzero;stroke:none"
         transform="translate(582.78957,371.2868)"><tspan
           id="tspan192"
           y="0"
           x="0">n</tspan></text>
<path
         id="path194"
         style="fill:none;stroke:#000000;stroke-width:0.5;stroke-linecap:butt;stroke-linejoin:miter;stroke-miterlimit:3.25;stroke-dasharray:none;stroke-opacity:1"
         d="m 16.5,368.168 4.012,0" /><path
         id="path196"
         style="fill:none;stroke:#000000;stroke-width:0.5;stroke-linecap:butt;stroke-linejoin:miter;stroke-miterlimit:3.25;stroke-dasharray:none;stroke-opacity:1"
         d="m 16.5,358.734 2.406,0" /><path
         id="path198"
         style="fill:none;stroke:#000000;stroke-width:0.5;stroke-linecap:butt;stroke-linejoin:miter;stroke-miterlimit:3.25;stroke-dasharray:none;stroke-opacity:1"
         d="m 16.5,349.301 2.406,0" /><path
         id="path200"
         style="fill:none;stroke:#000000;stroke-width:0.5;stroke-linecap:butt;stroke-linejoin:miter;stroke-miterlimit:3.25;stroke-dasharray:none;stroke-opacity:1"
         d="m 16.5,339.863 2.406,0" /><path
         id="path202"
         style="fill:none;stroke:#000000;stroke-width:0.5;stroke-linecap:butt;stroke-linejoin:miter;stroke-miterlimit:3.25;stroke-dasharray:none;stroke-opacity:1"
         d="m 16.5,330.43 2.406,0" /><path
         id="path204"
         style="fill:none;stroke:#000000;stroke-width:0.5;stroke-linecap:butt;stroke-linejoin:miter;stroke-miterlimit:3.25;stroke-dasharray:none;stroke-opacity:1"
         d="m 16.5,320.992 4.012,0" /><text
         id="text206"
         style="font-variant:normal;font-size:9px;font-family:CairoFont-1;-inkscape-font-specification:CairoFont-1-0;writing-mode:lr-tb;fill:#000000;fill-opacity:1;fill-rule:nonzero;stroke:none"
         transform="translate(8.492188,324.11067)"><tspan
           id="tspan208"
           y="0"
           x="0">1</tspan></text>
<path
         id="path210"
         style="fill:none;stroke:#000000;stroke-width:0.5;stroke-linecap:butt;stroke-linejoin:miter;stroke-miterlimit:3.25;stroke-dasharray:none;stroke-opacity:1"
         d="m 16.5,311.559 2.406,0" /><path
         id="path212"
         style="fill:none;stroke:#000000;stroke-width:0.5;stroke-linecap:butt;stroke-linejoin:miter;stroke-miterlimit:3.25;stroke-dasharray:none;stroke-opacity:1"
         d="m 16.5,302.121 2.406,0" /><path
         id="path214"
         style="fill:none;stroke:#000000;stroke-width:0.5;stroke-linecap:butt;stroke-linejoin:miter;stroke-miterlimit:3.25;stroke-dasharray:none;stroke-opacity:1"
         d="m 16.5,292.688 2.406,0" /><path
         id="path216"
         style="fill:none;stroke:#000000;stroke-width:0.5;stroke-linecap:butt;stroke-linejoin:miter;stroke-miterlimit:3.25;stroke-dasharray:none;stroke-opacity:1"
         d="m 16.5,283.254 2.406,0" /><path
         id="path218"
         style="fill:none;stroke:#000000;stroke-width:0.5;stroke-linecap:butt;stroke-linejoin:miter;stroke-miterlimit:3.25;stroke-dasharray:none;stroke-opacity:1"
         d="m 16.5,273.816 4.012,0" /><text
         id="text220"
         style="font-variant:normal;font-size:9px;font-family:CairoFont-1;-inkscape-font-specification:CairoFont-1-0;writing-mode:lr-tb;fill:#000000;fill-opacity:1;fill-rule:nonzero;stroke:none"
         transform="translate(8.492188,276.93453)"><tspan
           id="tspan222"
           y="0"
           x="0">2</tspan></text>
<path
         id="path224"
         style="fill:none;stroke:#000000;stroke-width:0.5;stroke-linecap:butt;stroke-linejoin:miter;stroke-miterlimit:3.25;stroke-dasharray:none;stroke-opacity:1"
         d="m 16.5,264.383 2.406,0" /><path
         id="path226"
         style="fill:none;stroke:#000000;stroke-width:0.5;stroke-linecap:butt;stroke-linejoin:miter;stroke-miterlimit:3.25;stroke-dasharray:none;stroke-opacity:1"
         d="m 16.5,254.945 2.406,0" /><path
         id="path228"
         style="fill:none;stroke:#000000;stroke-width:0.5;stroke-linecap:butt;stroke-linejoin:miter;stroke-miterlimit:3.25;stroke-dasharray:none;stroke-opacity:1"
         d="m 16.5,245.512 2.406,0" /><path
         id="path230"
         style="fill:none;stroke:#000000;stroke-width:0.5;stroke-linecap:butt;stroke-linejoin:miter;stroke-miterlimit:3.25;stroke-dasharray:none;stroke-opacity:1"
         d="m 16.5,236.078 2.406,0" /><path
         id="path232"
         style="fill:none;stroke:#000000;stroke-width:0.5;stroke-linecap:butt;stroke-linejoin:miter;stroke-miterlimit:3.25;stroke-dasharray:none;stroke-opacity:1"
         d="m 16.5,226.641 4.012,0" /><text
         id="text234"
         style="font-variant:normal;font-size:9px;font-family:CairoFont-1;-inkscape-font-specification:CairoFont-1-0;writing-mode:lr-tb;fill:#000000;fill-opacity:1;fill-rule:nonzero;stroke:none"
         transform="translate(8.492188,229.7584)"><tspan
           id="tspan236"
           y="0"
           x="0">3</tspan></text>
<path
         id="path238"
         style="fill:none;stroke:#000000;stroke-width:0.5;stroke-linecap:butt;stroke-linejoin:miter;stroke-miterlimit:3.25;stroke-dasharray:none;stroke-opacity:1"
         d="m 16.5,217.207 2.406,0" /><path
         id="path240"
         style="fill:none;stroke:#000000;stroke-width:0.5;stroke-linecap:butt;stroke-linejoin:miter;stroke-miterlimit:3.25;stroke-dasharray:none;stroke-opacity:1"
         d="m 16.5,207.77 2.406,0" /><path
         id="path242"
         style="fill:none;stroke:#000000;stroke-width:0.5;stroke-linecap:butt;stroke-linejoin:miter;stroke-miterlimit:3.25;stroke-dasharray:none;stroke-opacity:1"
         d="m 16.5,198.336 2.406,0" /><path
         id="path244"
         style="fill:none;stroke:#000000;stroke-width:0.5;stroke-linecap:butt;stroke-linejoin:miter;stroke-miterlimit:3.25;stroke-dasharray:none;stroke-opacity:1"
         d="m 16.5,188.898 2.406,0" /><path
         id="path246"
         style="fill:none;stroke:#000000;stroke-width:0.5;stroke-linecap:butt;stroke-linejoin:miter;stroke-miterlimit:3.25;stroke-dasharray:none;stroke-opacity:1"
         d="m 16.5,179.465 4.012,0" /><text
         id="text248"
         style="font-variant:normal;font-size:9px;font-family:CairoFont-1;-inkscape-font-specification:CairoFont-1-0;writing-mode:lr-tb;fill:#000000;fill-opacity:1;fill-rule:nonzero;stroke:none"
         transform="translate(8.492188,182.58227)"><tspan
           id="tspan250"
           y="0"
           x="0">4</tspan></text>
<path
         id="path252"
         style="fill:none;stroke:#000000;stroke-width:0.5;stroke-linecap:butt;stroke-linejoin:miter;stroke-miterlimit:3.25;stroke-dasharray:none;stroke-opacity:1"
         d="m 16.5,170.031 2.406,0" /><path
         id="path254"
         style="fill:none;stroke:#000000;stroke-width:0.5;stroke-linecap:butt;stroke-linejoin:miter;stroke-miterlimit:3.25;stroke-dasharray:none;stroke-opacity:1"
         d="m 16.5,160.594 2.406,0" /><path
         id="path256"
         style="fill:none;stroke:#000000;stroke-width:0.5;stroke-linecap:butt;stroke-linejoin:miter;stroke-miterlimit:3.25;stroke-dasharray:none;stroke-opacity:1"
         d="m 16.5,151.16 2.406,0" /><path
         id="path258"
         style="fill:none;stroke:#000000;stroke-width:0.5;stroke-linecap:butt;stroke-linejoin:miter;stroke-miterlimit:3.25;stroke-dasharray:none;stroke-opacity:1"
         d="m 16.5,141.723 2.406,0" /><path
         id="path260"
         style="fill:none;stroke:#000000;stroke-width:0.5;stroke-linecap:butt;stroke-linejoin:miter;stroke-miterlimit:3.25;stroke-dasharray:none;stroke-opacity:1"
         d="m 16.5,132.289 4.012,0" /><text
         id="text262"
         style="font-variant:normal;font-size:9px;font-family:CairoFont-1;-inkscape-font-specification:CairoFont-1-0;writing-mode:lr-tb;fill:#000000;fill-opacity:1;fill-rule:nonzero;stroke:none"
         transform="translate(8.492188,135.40614)"><tspan
           id="tspan264"
           y="0"
           x="0">5</tspan></text>
<path
         id="path266"
         style="fill:none;stroke:#000000;stroke-width:0.5;stroke-linecap:butt;stroke-linejoin:miter;stroke-miterlimit:3.25;stroke-dasharray:none;stroke-opacity:1"
         d="m 16.5,122.855 2.406,0" /><path
         id="path268"
         style="fill:none;stroke:#000000;stroke-width:0.5;stroke-linecap:butt;stroke-linejoin:miter;stroke-miterlimit:3.25;stroke-dasharray:none;stroke-opacity:1"
         d="m 16.5,113.418 2.406,0" /><path
         id="path270"
         style="fill:none;stroke:#000000;stroke-width:0.5;stroke-linecap:butt;stroke-linejoin:miter;stroke-miterlimit:3.25;stroke-dasharray:none;stroke-opacity:1"
         d="m 16.5,103.984 2.406,0" /><path
         id="path272"
         style="fill:none;stroke:#000000;stroke-width:0.5;stroke-linecap:butt;stroke-linejoin:miter;stroke-miterlimit:3.25;stroke-dasharray:none;stroke-opacity:1"
         d="m 16.5,94.547 2.406,0" /><path
         id="path274"
         style="fill:none;stroke:#000000;stroke-width:0.5;stroke-linecap:butt;stroke-linejoin:miter;stroke-miterlimit:3.25;stroke-dasharray:none;stroke-opacity:1"
         d="m 16.5,85.113 4.012,0" /><text
         id="text276"
         style="font-variant:normal;font-size:9px;font-family:CairoFont-1;-inkscape-font-specification:CairoFont-1-0;writing-mode:lr-tb;fill:#000000;fill-opacity:1;fill-rule:nonzero;stroke:none"
         transform="translate(8.492188,88.230013)"><tspan
           id="tspan278"
           y="0"
           x="0">6</tspan></text>
<path
         id="path280"
         style="fill:none;stroke:#000000;stroke-width:0.5;stroke-linecap:butt;stroke-linejoin:miter;stroke-miterlimit:3.25;stroke-dasharray:none;stroke-opacity:1"
         d="m 16.5,75.676 2.406,0" /><path
         id="path282"
         style="fill:none;stroke:#000000;stroke-width:0.5;stroke-linecap:butt;stroke-linejoin:miter;stroke-miterlimit:3.25;stroke-dasharray:none;stroke-opacity:1"
         d="m 16.5,66.242 2.406,0" /><path
         id="path284"
         style="fill:none;stroke:#000000;stroke-width:0.5;stroke-linecap:butt;stroke-linejoin:miter;stroke-miterlimit:3.25;stroke-dasharray:none;stroke-opacity:1"
         d="m 16.5,56.809 2.406,0" /><path
         id="path286"
         style="fill:none;stroke:#000000;stroke-width:0.5;stroke-linecap:butt;stroke-linejoin:miter;stroke-miterlimit:3.25;stroke-dasharray:none;stroke-opacity:1"
         d="m 16.5,47.371 2.406,0" /><path
         id="path288"
         style="fill:none;stroke:#000000;stroke-width:0.5;stroke-linecap:butt;stroke-linejoin:miter;stroke-miterlimit:3.25;stroke-dasharray:none;stroke-opacity:1"
         d="m 16.5,37.938 4.012,0" /><text
         id="text290"
         style="font-variant:normal;font-size:9px;font-family:CairoFont-1;-inkscape-font-specification:CairoFont-1-0;writing-mode:lr-tb;fill:#000000;fill-opacity:1;fill-rule:nonzero;stroke:none"
         transform="translate(8.492188,41.053883)"><tspan
           id="tspan292"
           y="0"
           x="0">7</tspan></text>
<path
         id="path294"
         style="fill:none;stroke:#000000;stroke-width:0.5;stroke-linecap:butt;stroke-linejoin:miter;stroke-miterlimit:3.25;stroke-dasharray:none;stroke-opacity:1"
         d="m 16.5,28.5 2.406,0" /><path
         id="path296"
         style="fill:none;stroke:#000000;stroke-width:0.5;stroke-linecap:butt;stroke-linejoin:miter;stroke-miterlimit:3.25;stroke-dasharray:none;stroke-opacity:1"
         d="m 16.5,375.105 0,-346.777" /><text
         id="text298"
         style="font-variant:normal;font-size:9px;font-family:CairoFont-1;-inkscape-font-specification:CairoFont-1-0;writing-mode:lr-tb;fill:#000000;fill-opacity:1;fill-rule:nonzero;stroke:none"
         transform="translate(0,20.421875)"><tspan
           id="tspan300"
           y="0"
           x="0 5.4899998 7.4879999 14.985">Time</tspan></text>
<text
         id="text302"
         style="font-variant:normal;font-size:9px;font-family:CairoFont-2;-inkscape-font-specification:CairoFont-2-0;writing-mode:lr-tb;fill:#000000;fill-opacity:1;fill-rule:nonzero;stroke:none"
         transform="translate(22.491,20.421875)"><tspan
           id="tspan304"
           y="0"
           x="0">(</tspan></text>
<text
         id="text306"
         style="font-variant:normal;font-size:9px;font-family:CairoFont-1;-inkscape-font-specification:CairoFont-1-0;writing-mode:lr-tb;fill:#000000;fill-opacity:1;fill-rule:nonzero;stroke:none"
         transform="translate(25.488,20.421875)"><tspan
           id="tspan308"
           y="0"
           x="0">s</tspan></text>
<text
         id="text310"
         style="font-variant:normal;font-size:9px;font-family:CairoFont-2;-inkscape-font-specification:CairoFont-2-0;writing-mode:lr-tb;fill:#000000;fill-opacity:1;fill-rule:nonzero;stroke:none"
         transform="translate(29.988,20.421875)"><tspan
           id="tspan312"
           y="0"
           x="0">)</tspan></text>
<text
         id="text314"
         style="font-variant:normal;font-size:10.79980469px;font-family:CairoFont-1;-inkscape-font-specification:CairoFont-1-0;writing-mode:lr-tb;fill:#000000;fill-opacity:1;fill-rule:nonzero;stroke:none"
         transform="translate(142.69712,9.953125)"><tspan
           id="tspan316"
           y="0"
           x="0 7.1926703 9.5902271 14.990129 23.997168 30.001858 35.99575 38.987297 44.991989 48.588322">Sizeofterm</tspan></text>
<text
         id="text318"
         style="font-variant:normal;font-size:10.79980469px;font-family:CairoFont-2;-inkscape-font-specification:CairoFont-2-0;writing-mode:lr-tb;fill:#000000;fill-opacity:1;fill-rule:nonzero;stroke:none"
         transform="translate(203.28403,9.953125)"><tspan
           id="tspan320"
           y="0"
           x="0">(</tspan></text>
<text
         id="text322"
         style="font-variant:normal;font-size:10.79980469px;font-family:CairoFont-1;-inkscape-font-specification:CairoFont-1-0;writing-mode:lr-tb;fill:#000000;fill-opacity:1;fill-rule:nonzero;stroke:none"
         transform="translate(206.88036,9.953125)"><tspan
           id="tspan324"
           y="0"
           x="0 7.7974591 10.195016 13.186562 22.1828 28.18749 30.585049 36.589741 42.594429 48.599121 52.195457">withbinders</tspan></text>
<text
         id="text326"
         style="font-variant:normal;font-size:10.79980469px;font-family:CairoFont-2;-inkscape-font-specification:CairoFont-2-0;writing-mode:lr-tb;fill:#000000;fill-opacity:1;fill-rule:nonzero;stroke:none"
         transform="translate(264.47572,9.953125)"><tspan
           id="tspan328"
           y="0"
           x="0">)</tspan></text>
<text
         id="text330"
         style="font-variant:normal;font-size:10.79980469px;font-family:CairoFont-1;-inkscape-font-specification:CairoFont-1-0;writing-mode:lr-tb;fill:#000000;fill-opacity:1;fill-rule:nonzero;stroke:none"
         transform="translate(271.07441,9.953125)"><tspan
           id="tspan332"
           y="0"
           x="0 5.3999023 13.802151 21.599609 27.604301 30.001858 32.993404 35.390961 40.790863 46.795555 49.787102 52.184658 58.18935 67.196388 70.187935 72.585487 81.581726">vsReificationtime</tspan></text>
<text
         id="text334"
         style="font-variant:normal;font-size:10.79980469px;font-family:CairoFont-2;-inkscape-font-specification:CairoFont-2-0;writing-mode:lr-tb;fill:#000000;fill-opacity:1;fill-rule:nonzero;stroke:none"
         transform="translate(361.66317,9.953125)"><tspan
           id="tspan336"
           y="0"
           x="0">(</tspan></text>
<text
         id="text338"
         style="font-variant:normal;font-size:10.79980469px;font-family:CairoFont-1;-inkscape-font-specification:CairoFont-1-0;writing-mode:lr-tb;fill:#000000;fill-opacity:1;fill-rule:nonzero;stroke:none"
         transform="translate(365.2595,9.953125)"><tspan
           id="tspan340"
           y="0"
           x="0 2.3975568 8.4022484 11.998584 18.003275 27.010313 30.001858 36.00655 39.602886 48.599121 57.001369 63.006062 69.010757 71.40831">largetermsonly</tspan></text>
<text
         id="text342"
         style="font-variant:normal;font-size:10.79980469px;font-family:CairoFont-2;-inkscape-font-specification:CairoFont-2-0;writing-mode:lr-tb;fill:#000000;fill-opacity:1;fill-rule:nonzero;stroke:none"
         transform="translate(442.06772,9.953125)"><tspan
           id="tspan344"
           y="0"
           x="0">)</tspan></text>
</g></g></svg>